<?xml version="1.0"?>
<svg xmlns="http://www.w3.org/2000/svg" xmlns:xlink="http://www.w3.org/1999/xlink" id="Layer_1" data-name="Layer 1" viewBox="0 0 512 512" width="512" height="512"><defs><linearGradient id="linear-gradient" x1="256" y1="488.621" x2="256" y2="30.768" gradientUnits="userSpaceOnUse"><stop offset="0.322" stop-color="#a163f5"/><stop offset="0.466" stop-color="#b074ee"/><stop offset="0.752" stop-color="#d8a1dd"/><stop offset="0.898" stop-color="#efbad3"/></linearGradient><linearGradient id="linear-gradient-2" x1="262.282" y1="488.621" x2="262.282" y2="30.768" xlink:href="#linear-gradient"/><linearGradient id="linear-gradient-3" x1="41" y1="488.621" x2="41" y2="30.768" xlink:href="#linear-gradient"/><linearGradient id="linear-gradient-4" x1="69" y1="488.621" x2="69" y2="30.768" xlink:href="#linear-gradient"/><linearGradient id="linear-gradient-5" x1="98" y1="488.621" x2="98" y2="30.768" xlink:href="#linear-gradient"/><linearGradient id="linear-gradient-6" x1="126" y1="488.621" x2="126" y2="30.768" xlink:href="#linear-gradient"/><linearGradient id="linear-gradient-7" x1="155" y1="488.621" x2="155" y2="30.768" xlink:href="#linear-gradient"/><linearGradient id="linear-gradient-8" x1="263.715" y1="488.621" x2="263.715" y2="30.768" xlink:href="#linear-gradient"/><linearGradient id="linear-gradient-9" x1="400" y1="488.621" x2="400" y2="30.768" xlink:href="#linear-gradient"/></defs><title>Add Package</title><path d="M407,273.463V135.55a7.03,7.03,0,0,0-3.535-6.081L211.5,18.638a7,7,0,0,0-7,0L12.617,129.422A7,7,0,0,0,9,135.55v240.9a7,7,0,0,0,3.5,6.062l192,110.85a7,7,0,0,0,7,0l103.122-59.53A103,103,0,1,0,407,273.463ZM99,191.648l35,19.976V339.933l-13.195-14.878a7.229,7.229,0,0,0-8.077-1.845L99,328.816Zm7.21-12.118L284.191,76.772l34.935,20.17L141.141,199.7Zm226.917-74.5L385.98,135.54,208,238.3l-52.859-30.518ZM215,250.421,393,147.653v125.81a103.015,103.015,0,0,0-85.413,148.264L215,475.176ZM208,32.783l62.191,35.906L92.205,171.45,30.019,135.541ZM23,147.654l62,35.917V339.28a7.136,7.136,0,0,0,9.822,6.47l18.653-7.691,22.057,25.046a7.016,7.016,0,0,0,5.264,2.375,7.548,7.548,0,0,0,2.572-.451A7.1,7.1,0,0,0,148,358.48V219.707l53,30.714V475.176L23,372.409ZM400,465.22a89,89,0,1,1,89-89A89.322,89.322,0,0,1,400,465.22Z" style="fill:url(#linear-gradient)"/><path d="M244.854,293.881a7.183,7.183,0,0,0,6.292-3.687L255,283.248V343.42a7,7,0,1,0,14,0V273.051l5.69,6.155a6.929,6.929,0,0,0,9.836.284,7,7,0,0,0,.254-9.9l-17.915-18.96a7.01,7.01,0,0,0-11.267,1.492l-16.9,31.44a7,7,0,0,0,6.158,10.315Z" style="fill:url(#linear-gradient-2)"/><path d="M41,338.45a7,7,0,0,0-7,7v25.92a7,7,0,0,0,14,0V345.45A7,7,0,0,0,41,338.45Z" style="fill:url(#linear-gradient-3)"/><path d="M69,357.65a7,7,0,0,0-7,7V388a7,7,0,0,0,14,0V364.65A7,7,0,0,0,69,357.65Z" style="fill:url(#linear-gradient-4)"/><path d="M98,376.85a7,7,0,0,0-7,7v20.56a7,7,0,0,0,14,0V383.85A7,7,0,0,0,98,376.85Z" style="fill:url(#linear-gradient-5)"/><path d="M126,396.05a7,7,0,0,0-7,7v17.77a7,7,0,0,0,14,0V403.05A7,7,0,0,0,126,396.05Z" style="fill:url(#linear-gradient-6)"/><path d="M155,415.25a7,7,0,0,0-7,7v15.36a7,7,0,0,0,14,0V422.25A7,7,0,0,0,155,415.25Z" style="fill:url(#linear-gradient-7)"/><path d="M276.16,353.467l-31.89,18.41a7,7,0,1,0,7,12.125l31.89-18.41a7,7,0,1,0-7-12.125Z" style="fill:url(#linear-gradient-8)"/><path d="M445,369H407V331.22a7,7,0,0,0-14,0V369H355a7,7,0,0,0,0,14h38v38.22a7,7,0,0,0,14,0V383h38a7,7,0,0,0,0-14Z" style="fill:url(#linear-gradient-9)"/></svg>
