<?xml version="1.0"?>
<svg xmlns="http://www.w3.org/2000/svg" xmlns:xlink="http://www.w3.org/1999/xlink" id="Layer_1" data-name="Layer 1" viewBox="0 0 512 512" width="512" height="512"><defs><linearGradient id="linear-gradient" x1="194.981" y1="494" x2="194.981" y2="23.485" gradientUnits="userSpaceOnUse"><stop offset="0.322" stop-color="#a163f5"/><stop offset="0.466" stop-color="#b074ee"/><stop offset="0.752" stop-color="#d8a1dd"/><stop offset="0.898" stop-color="#efbad3"/></linearGradient><linearGradient id="linear-gradient-2" x1="271.493" y1="494" x2="271.493" y2="23.485" xlink:href="#linear-gradient"/><linearGradient id="linear-gradient-3" x1="385" y1="494" x2="385" y2="23.485" xlink:href="#linear-gradient"/><linearGradient id="linear-gradient-4" x1="256" y1="494" x2="256" y2="23.485" xlink:href="#linear-gradient"/></defs><title>Add Packages</title><path d="M89,260c0-89.879,73.121-163,163-163a162.545,162.545,0,0,1,53.655,9.039,7,7,0,0,0,4.61-13.219A176.513,176.513,0,0,0,252,83C154.4,83,75,162.4,75,260a176.463,176.463,0,0,0,10.664,60.645,7,7,0,0,0,13.152-4.8A162.522,162.522,0,0,1,89,260Z" style="fill:url(#linear-gradient)"/><path d="M406.22,188.052a7,7,0,0,0-3.758,9.158A161.9,161.9,0,0,1,415,260c0,89.879-73.121,163-163,163a161.467,161.467,0,0,1-92.6-28.842l22.168-30.088a7,7,0,0,0-6.537-11.093l-54.942,7.134a7,7,0,0,0-6,8.137l9.463,54.59a7,7,0,0,0,12.533,2.957l15-20.36A175.362,175.362,0,0,0,252,437c97.6,0,177-79.4,177-177a175.8,175.8,0,0,0-13.622-68.19A7,7,0,0,0,406.22,188.052ZM144.038,391.4c-.017.023-.038.043-.056.067-.029.039-.052.08-.081.119l-9.357,12.7-5.414-31.23,31.432-4.081Z" style="fill:url(#linear-gradient-2)"/><path d="M430,119H393V82a7,7,0,0,0-14,0v37H340a7,7,0,0,0,0,14h39v39a7,7,0,0,0,14,0V133h37a7,7,0,0,0,0-14Z" style="fill:url(#linear-gradient-3)"/><path d="M172.282,339H339.961A7.254,7.254,0,0,0,347,331.747V229h9a7.2,7.2,0,0,0,7-7.229V180.253A7.22,7.22,0,0,0,356,173H156a7.22,7.22,0,0,0-7,7.253v41.518A7.2,7.2,0,0,0,156,229h9V331.747A7.465,7.465,0,0,0,172.282,339ZM333,325H179V229h48v49.1a6.93,6.93,0,0,0,10.542,5.986l18.351-11.129,18.913,11.171a6.986,6.986,0,0,0,3.555.972,6.35,6.35,0,0,0,3.29-.921A6.837,6.837,0,0,0,285,278.1V229h48Zm-92-59.324V229h30v36.841l-11.789-7.066a6.736,6.736,0,0,0-7.04.042ZM163,215V187H349v28Z" style="fill:url(#linear-gradient-4)"/></svg>
