<?xml version="1.0"?>
<svg xmlns="http://www.w3.org/2000/svg" xmlns:xlink="http://www.w3.org/1999/xlink" id="Layer_1" data-name="Layer 1" viewBox="0 0 512 512" width="512" height="512"><defs><linearGradient id="linear-gradient" x1="256" y1="494" x2="256" y2="28.606" gradientUnits="userSpaceOnUse"><stop offset="0.322" stop-color="#a163f5"/><stop offset="0.466" stop-color="#b074ee"/><stop offset="0.752" stop-color="#d8a1dd"/><stop offset="0.898" stop-color="#efbad3"/></linearGradient><linearGradient id="linear-gradient-2" x1="134.182" y1="494" x2="134.182" y2="28.606" xlink:href="#linear-gradient"/><linearGradient id="linear-gradient-3" x1="134.182" y1="494" x2="134.182" y2="28.606" xlink:href="#linear-gradient"/><linearGradient id="linear-gradient-4" x1="128.5" y1="494" x2="128.5" y2="28.606" xlink:href="#linear-gradient"/><linearGradient id="linear-gradient-5" x1="114" y1="494" x2="114" y2="28.606" xlink:href="#linear-gradient"/><linearGradient id="linear-gradient-6" x1="329" y1="494" x2="329" y2="28.606" xlink:href="#linear-gradient"/></defs><title>Application</title><path d="M422.825,44H89.175A47.206,47.206,0,0,0,42,91V335.239C42,361.155,63.259,382,89.175,382H249v72H173.373a7,7,0,0,0,0,14H343.41a7,7,0,1,0,0-14H263V382H422.825C448.741,382,470,361.155,470,335.239V91A47.206,47.206,0,0,0,422.825,44ZM89.175,58h333.65A33.19,33.19,0,0,1,456,91V293H56V91A33.19,33.19,0,0,1,89.175,58Zm333.65,310H89.175A32.984,32.984,0,0,1,56,335.239V307H456v28.239A32.984,32.984,0,0,1,422.825,368Z" style="fill:url(#linear-gradient)"/><path d="M134.182,216.031a55.182,55.182,0,1,0-43.453-89.2,55.186,55.186,0,0,0,3.34,71.911A55.414,55.414,0,0,0,134.182,216.031ZM101.748,135.47A41.184,41.184,0,1,1,93,160.849,40.963,40.963,0,0,1,101.748,135.47Z" style="fill:url(#linear-gradient-2)"/><path d="M121.175,176.35a7,7,0,0,0,9.741.884l26.931-21.91a7,7,0,0,0-8.836-10.86l-21.628,17.6-7.125-8.344a7,7,0,1,0-10.647,9.092Z" style="fill:url(#linear-gradient-3)"/><path d="M86,242h85a7,7,0,0,0,0-14H86a7,7,0,0,0,0,14Z" style="fill:url(#linear-gradient-4)"/><path d="M86,272h56a7,7,0,0,0,0-14H86a7,7,0,0,0,0,14Z" style="fill:url(#linear-gradient-5)"/><path d="M228.735,150H238V252.649A7.322,7.322,0,0,0,245.017,260H412.7a7.572,7.572,0,0,0,7.3-7.351V150h8.735A7.515,7.515,0,0,0,436,142.673V101.154A7.363,7.363,0,0,0,428.735,94h-200A6.913,6.913,0,0,0,222,101.154v41.519C222,146.54,224.869,150,228.735,150ZM406,246H252V150h48v49a6.77,6.77,0,0,0,10.344,5.987l18.317-11.128,18.9,11.169A6.951,6.951,0,0,0,351.1,206a6.812,6.812,0,0,0,3.419-.92A6.954,6.954,0,0,0,358,199V150h48Zm-92-96h30v36.742l-11.921-7.064a6.619,6.619,0,0,0-6.974.041L314,186.577Zm-78-42H422v28H236Z" style="fill:url(#linear-gradient-6)"/></svg>
