<?xml version="1.0"?>
<svg xmlns="http://www.w3.org/2000/svg" xmlns:xlink="http://www.w3.org/1999/xlink" id="Layer_1" data-name="Layer 1" viewBox="0 0 512 512" width="512" height="512"><defs><linearGradient id="linear-gradient" x1="256" y1="494" x2="256" y2="28.606" gradientUnits="userSpaceOnUse"><stop offset="0.322" stop-color="#a163f5"/><stop offset="0.466" stop-color="#b074ee"/><stop offset="0.752" stop-color="#d8a1dd"/><stop offset="0.898" stop-color="#efbad3"/></linearGradient><linearGradient id="linear-gradient-2" x1="362" y1="494" x2="362" y2="28.606" xlink:href="#linear-gradient"/><linearGradient id="linear-gradient-3" x1="175" y1="494" x2="175" y2="28.606" xlink:href="#linear-gradient"/><linearGradient id="linear-gradient-4" x1="156.5" y1="494" x2="156.5" y2="28.606" xlink:href="#linear-gradient"/><linearGradient id="linear-gradient-5" x1="183" y1="494" x2="183" y2="28.606" xlink:href="#linear-gradient"/></defs><title>Bill document</title><path d="M362,291a99.7,99.7,0,0,0-17,1.466V142a7,7,0,0,0-2.05-4.95l-112-112A7,7,0,0,0,226,23H86A35.04,35.04,0,0,0,51,58V394a35.04,35.04,0,0,0,35,35H271.012A99,99,0,1,0,362,291ZM233,46.9,321.1,135H254a21.024,21.024,0,0,1-21-21ZM86,415a21.024,21.024,0,0,1-21-21V58A21.024,21.024,0,0,1,86,37H219v77a35.04,35.04,0,0,0,35,35h77V295.971A99.048,99.048,0,0,0,266.2,415Zm276,60a85,85,0,1,1,85-85A85.1,85.1,0,0,1,362,475Z" style="fill:url(#linear-gradient)"/><path d="M362,346.717a19.664,19.664,0,0,1,19.642,19.642,7,7,0,0,0,14,0A33.7,33.7,0,0,0,369,333.454v-8.376a7,7,0,0,0-14,0v8.376A33.641,33.641,0,0,0,362,400a19.638,19.638,0,0,1,.188,39.275c-.063,0-.125-.009-.188-.009s-.125.007-.188.009a19.659,19.659,0,0,1-19.454-19.632,7,7,0,0,0-14,0A33.7,33.7,0,0,0,355,452.547v9.588a7,7,0,0,0,14,0v-9.588A33.642,33.642,0,0,0,362,386a19.642,19.642,0,1,1,0-39.283Z" style="fill:url(#linear-gradient-2)"/><path d="M247,327H103a7,7,0,0,0,0,14H247a7,7,0,0,0,0-14Z" style="fill:url(#linear-gradient-3)"/><path d="M210,361H103a7,7,0,0,0,0,14H210a7,7,0,0,0,0-14Z" style="fill:url(#linear-gradient-4)"/><path d="M263,218a6.836,6.836,0,0,0,7-6.806V173.828A6.855,6.855,0,0,0,263,167H103a6.855,6.855,0,0,0-7,6.828v37.366A6.836,6.836,0,0,0,103,218h8v82.172A6.566,6.566,0,0,0,117.653,307H248.565c3.867,0,7.435-2.961,7.435-6.828V218ZM110,181H256v23H110Zm60,37h26v31.63l-9.653-5.734a7.029,7.029,0,0,0-7.205.041L170,249.465Zm72,75H125V218h31v43.892a7.061,7.061,0,0,0,10.7,5.987l16.182-9.8,16.673,9.84a7,7,0,0,0,3.562.972,6.785,6.785,0,0,0,3.412-.921,6.946,6.946,0,0,0,3.47-6.079V218h32Z" style="fill:url(#linear-gradient-5)"/></svg>
