<?xml version="1.0"?>
<svg xmlns="http://www.w3.org/2000/svg" xmlns:xlink="http://www.w3.org/1999/xlink" id="Layer_1" data-name="Layer 1" viewBox="0 0 512 512" width="512" height="512"><defs><linearGradient id="linear-gradient" x1="256" y1="496" x2="256" y2="19.576" gradientUnits="userSpaceOnUse"><stop offset="0.322" stop-color="#a163f5"/><stop offset="0.466" stop-color="#b074ee"/><stop offset="0.752" stop-color="#d8a1dd"/><stop offset="0.898" stop-color="#efbad3"/></linearGradient></defs><title>Box 2</title><path d="M456,58H56c-3.866,0-7,2.639-7,6.5V167.543c0,3.866,3.134,7.457,7,7.457H82V447.5a6.232,6.232,0,0,0,6.564,6.5H423.922c3.867,0,7.078-2.639,7.078-6.5V175h25c3.866,0,7-3.591,7-7.457V64.505C463,60.639,459.866,58,456,58ZM417,440H96V175H205V340.2a6.9,6.9,0,0,0,3.45,6.1,6.79,6.79,0,0,0,3.379.9,6.9,6.9,0,0,0,3.6-1.013l40.3-24.427,41.439,24.468a7.259,7.259,0,0,0,7.168.051A7.132,7.132,0,0,0,308,340.2V175H417ZM219,175h75V327.943L259.364,307.58a6.921,6.921,0,0,0-7.144.041L219,327.777Zm230-14H63V72H449Z" style="fill:url(#linear-gradient)"/></svg>
