<?xml version="1.0"?>
<svg xmlns="http://www.w3.org/2000/svg" xmlns:xlink="http://www.w3.org/1999/xlink" id="Layer_1" data-name="Layer 1" viewBox="0 0 512 512" width="512" height="512"><defs><linearGradient id="linear-gradient" x1="129.967" y1="494" x2="129.967" y2="28.606" gradientUnits="userSpaceOnUse"><stop offset="0.322" stop-color="#a163f5"/><stop offset="0.466" stop-color="#b074ee"/><stop offset="0.752" stop-color="#d8a1dd"/><stop offset="0.898" stop-color="#efbad3"/></linearGradient><linearGradient id="linear-gradient-2" x1="401.208" y1="494" x2="401.208" y2="28.606" xlink:href="#linear-gradient"/><linearGradient id="linear-gradient-3" x1="341.812" y1="494" x2="341.812" y2="28.606" xlink:href="#linear-gradient"/><linearGradient id="linear-gradient-4" x1="451.986" y1="494" x2="451.986" y2="28.606" xlink:href="#linear-gradient"/><linearGradient id="linear-gradient-5" x1="340.529" y1="494" x2="340.529" y2="28.606" xlink:href="#linear-gradient"/><linearGradient id="linear-gradient-6" x1="427.791" y1="494" x2="427.791" y2="28.606" xlink:href="#linear-gradient"/><linearGradient id="linear-gradient-7" x1="382.774" y1="494" x2="382.774" y2="28.606" xlink:href="#linear-gradient"/><linearGradient id="linear-gradient-8" x1="321.5" y1="494" x2="321.5" y2="28.606" xlink:href="#linear-gradient"/><linearGradient id="linear-gradient-9" x1="306.929" y1="494" x2="306.929" y2="28.606" xlink:href="#linear-gradient"/><linearGradient id="linear-gradient-10" x1="226.219" y1="494" x2="226.219" y2="28.606" xlink:href="#linear-gradient"/><linearGradient id="linear-gradient-11" x1="402.274" y1="494" x2="402.274" y2="28.606" xlink:href="#linear-gradient"/><linearGradient id="linear-gradient-12" x1="235.5" y1="494" x2="235.5" y2="28.606" xlink:href="#linear-gradient"/></defs><title>Call center chat</title><path d="M226.742,342.584c-.015-5.713-.061-18.917-.169-20.666A110.939,110.939,0,0,0,115.787,217.054c-.417,0-.838,0-1.255.007q-1.435.015-2.857.067a101.516,101.516,0,0,0-84.447,50.839A103.458,103.458,0,0,0,24.57,368.081c3.041,7.552,10.43,27.775,11.43,36.5v90.736c0,3.866,3.418,6.679,7.284,6.679h92.755A6.7,6.7,0,0,0,143,495.321v-23.6a7.839,7.839,0,0,1,7.521-5.286c4.124.017,8.855.038,13.336.06a6.983,6.983,0,0,0,5.149,2.382l41.718.639h.242a21.153,21.153,0,0,0,21.11-20.813,20.843,20.843,0,0,0-5.857-15.038A21.655,21.655,0,0,0,212,427.331V409h23.375a11.351,11.351,0,0,0,10.856-15.464ZM106.856,391h-.228a23.921,23.921,0,0,1-17.184-7.312,24.165,24.165,0,0,1-6.933-17.338l.052-3.912a24.346,24.346,0,0,1,48.687.659L131.2,367A24.381,24.381,0,0,1,106.856,391Zm22.375,78.013a7.042,7.042,0,0,0-.231,1.708V488H50V404.236c0-.217.132-.433.112-.649-1.144-12.279-11.439-38.155-12.618-41.065-.085-.209-.144-.414-.247-.614a89.524,89.524,0,0,1,1.965-86.9A88.3,88.3,0,0,1,100,232.378v92.648a38.1,38.1,0,0,0-31.534,37.227l0,3.915a38.4,38.4,0,0,0,32.45,38.406l-.065,7.665a41.875,41.875,0,0,0,40.412,42.243A21.883,21.883,0,0,0,129.231,469.013Zm88.847-20.265A7.332,7.332,0,0,1,210.992,456h-.079l-34.693-.918.2-14.082h34.626a7.266,7.266,0,0,1,5.015,2.415A7.7,7.7,0,0,1,218.078,448.748ZM204.729,395c-3.867,0-6.729,3.535-6.729,7.4V427H169.521a7.128,7.128,0,0,0-7,7.045l-.094,6.524-19.942-.086a27.859,27.859,0,0,1-27.631-28.123l.077-8.2A38.442,38.442,0,0,0,145.2,367.2l.053-3.914a38.172,38.172,0,0,0-11.019-27.319A36.96,36.96,0,0,0,114,325.123V231.072s.423-.01.586-.012c.37,0,.787-.006,1.155-.006a96.731,96.731,0,0,1,96.83,91.66c.068,1.277.14,11.869.162,21.186a5.973,5.973,0,0,0,.466,2.28L231.92,395Z" style="fill:url(#linear-gradient)"/><path d="M384.151,72h34.115a7,7,0,0,0,0-14H384.151a7,7,0,0,0,0,14Z" style="fill:url(#linear-gradient-2)"/><path d="M321.925,72H361.7a7,7,0,0,0,0-14H321.925a7,7,0,0,0,0,14Z" style="fill:url(#linear-gradient-3)"/><path d="M458.249,58H445.724a7,7,0,0,0,0,14h12.525a7,7,0,0,0,0-14Z" style="fill:url(#linear-gradient-4)"/><path d="M307.925,111h65.209a7,7,0,0,0,0-14H307.925a7,7,0,0,0,0,14Z" style="fill:url(#linear-gradient-5)"/><path d="M458.249,97H397.332a7,7,0,0,0,0,14h60.917a7,7,0,0,0,0-14Z" style="fill:url(#linear-gradient-6)"/><path d="M458.249,136H307.3a7,7,0,0,0,0,14H458.249a7,7,0,0,0,0-14Z" style="fill:url(#linear-gradient-7)"/><path d="M469.118,10H174.057C157.58,10,144,23.084,144,39.561V193.882A30.268,30.268,0,0,0,174.057,224H238v30.085a7.109,7.109,0,0,0,4.1,6.319,7.247,7.247,0,0,0,3.069.681,6.956,6.956,0,0,0,4.438-1.445L293.743,224H469.118A30.119,30.119,0,0,0,499,193.882V39.561A29.643,29.643,0,0,0,469.118,10ZM485,193.882A16.1,16.1,0,0,1,469.118,210H291.262a7.213,7.213,0,0,0-4.525,1.445L252,239.4V216.764A6.606,6.606,0,0,0,245.233,210H174.057A16.254,16.254,0,0,1,158,193.882V39.561A15.78,15.78,0,0,1,174.057,24H469.118A15.629,15.629,0,0,1,485,39.561Z" style="fill:url(#linear-gradient-8)"/><path d="M322.842,175H291.017a7,7,0,0,0,0,14h31.825a7,7,0,0,0,0-14Z" style="fill:url(#linear-gradient-9)"/><path d="M267.358,175H185.079a7,7,0,0,0,0,14h82.279a7,7,0,0,0,0-14Z" style="fill:url(#linear-gradient-10)"/><path d="M458.249,175H346.3a7,7,0,1,0,0,14H458.249a7,7,0,0,0,0-14Z" style="fill:url(#linear-gradient-11)"/><path d="M181.54,139.954l50.371,29.071a7.027,7.027,0,0,0,7.015,0l50.463-29.071A7.1,7.1,0,0,0,293,133.892V75.75a7.1,7.1,0,0,0-3.608-6.062L238.985,40.617a7.048,7.048,0,0,0-7.027,0l-50.4,29.071A7.049,7.049,0,0,0,178,75.75v58.142A7.036,7.036,0,0,0,181.54,139.954ZM192,87.87l36,20.989v41.979l-36-20.987Zm43.431,8.864L223.761,90,260.11,69.011l11.67,6.737ZM242,150.839v-41.98L279,87.87v41.981Zm-6.569-96.077,10.679,6.166L209.761,81.914l-10.679-6.166Z" style="fill:url(#linear-gradient-12)"/></svg>
