<?xml version="1.0"?>
<svg xmlns="http://www.w3.org/2000/svg" xmlns:xlink="http://www.w3.org/1999/xlink" id="Layer_1" data-name="Layer 1" viewBox="0 0 512 512" width="512" height="512"><defs><linearGradient id="linear-gradient" x1="256" y1="494" x2="256" y2="28.606" gradientUnits="userSpaceOnUse"><stop offset="0.322" stop-color="#a163f5"/><stop offset="0.466" stop-color="#b074ee"/><stop offset="0.752" stop-color="#d8a1dd"/><stop offset="0.898" stop-color="#efbad3"/></linearGradient><linearGradient id="linear-gradient-2" x1="101.344" y1="494" x2="101.344" y2="28.606" xlink:href="#linear-gradient"/><linearGradient id="linear-gradient-3" x1="256" y1="494" x2="256" y2="28.606" xlink:href="#linear-gradient"/></defs><title>Call center</title><path d="M428.4,318.381l-1.431.772c-9.691-11.079-25.908-15.241-38.336-8.942l-.155.081-4.693,2.529a42.257,42.257,0,0,0-47.76-3.682L307.181,325h-38.45a54.944,54.944,0,0,1-23.707-5.61l-5.33-2.667a92.645,92.645,0,0,0-96.429,9.373c-.154.115-.3.214-.446.342L129.95,337.885a43.476,43.476,0,0,1-15.241,8.792L107.745,323.9a6.945,6.945,0,0,0-6.7-4.895H38.806a6.9,6.9,0,0,0-6.949,7.748L52.6,496.864A6.987,6.987,0,0,0,59.553,503h93.365a7,7,0,0,0,6.7-9.042l-12-39.368L185,430.951a21.812,21.812,0,0,1,15.864-2.039c.145.036.291.068.438.1l77.708,14.308a101.753,101.753,0,0,0,62.885-8.878,7.135,7.135,0,0,0,.857-.5l134.4-92.281a7,7,0,0,0,2.034-9.381A38.091,38.091,0,0,0,428.4,318.381Zm-33.368,4.283c6.1-3.046,13.676-.912,19,3.469l-49.442,26.673-1.778.937a45.442,45.442,0,0,0-5.813-10.586Zm-52.24-1.447c.056-.03.111-.061.167-.093a28.257,28.257,0,0,1,26.848-.772l-23.3,12.556a45.243,45.243,0,0,0-13.367-6.441ZM65.751,489,46.711,333H95.865l47.6,156Zm269.5-66.894a87.655,87.655,0,0,1-53.721,7.437l-77.478-14.266a35.764,35.764,0,0,0-26.034,3.54c-.109.061-.217.126-.324.193L143.378,440.7l-24.586-80.641a57.46,57.46,0,0,0,20.467-11.732l12.65-11.262a78.711,78.711,0,0,1,81.689-7.831l5.331,2.756a69.017,69.017,0,0,0,29.8,7.007h51.693a31.333,31.333,0,0,1,30.562,23.892l-35.906-1.713a225.4,225.4,0,0,0-40.994,1.848,6.984,6.984,0,1,0,1.919,13.835,211.288,211.288,0,0,1,38.442-1.781l44.093,1.992c.106,0,.211.006.317.006a7,7,0,0,0,7-7c0-.7-.021-1.395-.052-2.088l5.369-2.831L435.045,330.7a24.113,24.113,0,0,1,28.014,3.65Z" style="fill:url(#linear-gradient)"/><path d="M81.9,466.232a19.449,19.449,0,1,0,19.448-19.448A19.47,19.47,0,0,0,81.9,466.232Zm19.448-5.448a5.449,5.449,0,1,1-5.448,5.448A5.454,5.454,0,0,1,101.344,460.784Z" style="fill:url(#linear-gradient-2)"/><path d="M127.945,211.385a29.774,29.774,0,0,0,20.988,8.582h.287l26.8-.25a7,7,0,0,0,6.934-7.064l-.713-76.645a7.061,7.061,0,0,0-7-7.007h-.066l-8.3.15-.112-16.878a88.854,88.854,0,0,1,87.892-89.286c.284,0,.566,0,.849,0A88.729,88.729,0,0,1,344.2,111.128l.109,16.441-8.334.078a7,7,0,0,0-6.934,7.065l.713,76.573a6.748,6.748,0,0,0,2.1,4.821,6.9,6.9,0,0,0,4.9,1.894h.065l8.316.032.083,9.041A20.746,20.746,0,0,1,324.734,248l-15.1-.013a22.908,22.908,0,0,0-22-16.982h-.215l-36.42.459A22.85,22.85,0,0,0,228.444,254.5l.025,2.742A22.941,22.941,0,0,0,251.234,280h.218l36.42-.422a22.79,22.79,0,0,0,21.895-17.443l15.076-.1A34.745,34.745,0,0,0,359.22,227l-.083-8.987,4.486-.043a30.007,30.007,0,0,0,29.692-30.251l-.285-30.63A29.971,29.971,0,0,0,362.78,127.4l-4.468.041-.108-16.4A102.72,102.72,0,0,0,152.769,112.4l.113,16.952-4.5.042a30.006,30.006,0,0,0-29.692,30.25l.285,30.628A29.777,29.777,0,0,0,127.945,211.385Zm165.976,51.484a8.8,8.8,0,0,1-6.179,2.71l-36.42.421h-.084a8.916,8.916,0,0,1-8.77-8.814l-.025-2.733a8.9,8.9,0,0,1,8.691-8.984L287.553,245h.083a8.887,8.887,0,0,1,8.772,8.811l.025,2.771A8.852,8.852,0,0,1,293.921,262.869ZM362.911,141h.152a16.32,16.32,0,0,1,15.968,16.121l.285,30.679a16.012,16.012,0,0,1-15.823,16.146l-19.8.2-.583-62.32,8.277.177h.024Zm-214.4,2.25,11.45-.25h.021l8.33.066.583,62.644-19.8.221a15.942,15.942,0,0,1-16.12-15.8l-.285-30.7A16.049,16.049,0,0,1,148.507,143.25Z" style="fill:url(#linear-gradient-3)"/><path d="M256,223.2a6.989,6.989,0,0,0,3.5-.938l50.176-29.071A6.84,6.84,0,0,0,313,187.126V128.984a6.841,6.841,0,0,0-3.324-6.062L259.412,93.851a6.915,6.915,0,0,0-6.956,0L202.3,122.922a6.822,6.822,0,0,0-3.3,6.062v58.142a6.84,6.84,0,0,0,3.324,6.062l50.264,29.071A6.674,6.674,0,0,0,256,223.2Zm0-73.229-11.67-6.737,36.349-20.987,11.67,6.738Zm7,54.105v-41.98L299,141.1v41.979ZM256,108l10.679,6.166L230.33,135.148l-10.679-6.166ZM213,141.1l36,20.988v41.98l-36-20.989Z" style="fill:url(#linear-gradient-3)"/></svg>
