<?xml version="1.0"?>
<svg xmlns="http://www.w3.org/2000/svg" xmlns:xlink="http://www.w3.org/1999/xlink" id="Layer_1" data-name="Layer 1" viewBox="0 0 512 512" width="512" height="512"><defs><linearGradient id="linear-gradient" x1="256" y1="489" x2="256" y2="31.147" gradientUnits="userSpaceOnUse"><stop offset="0.322" stop-color="#a163f5"/><stop offset="0.466" stop-color="#b074ee"/><stop offset="0.752" stop-color="#d8a1dd"/><stop offset="0.898" stop-color="#efbad3"/></linearGradient><linearGradient id="linear-gradient-2" x1="325" y1="488.621" x2="325" y2="30.768" xlink:href="#linear-gradient"/><linearGradient id="linear-gradient-3" x1="290" y1="488.621" x2="290" y2="30.768" xlink:href="#linear-gradient"/><linearGradient id="linear-gradient-4" x1="393" y1="488.621" x2="393" y2="30.768" xlink:href="#linear-gradient"/><linearGradient id="linear-gradient-5" x1="428" y1="488.621" x2="428" y2="30.768" xlink:href="#linear-gradient"/><linearGradient id="linear-gradient-6" x1="359" y1="488.621" x2="359" y2="30.768" xlink:href="#linear-gradient"/><linearGradient id="linear-gradient-7" x1="462" y1="488.621" x2="462" y2="30.768" xlink:href="#linear-gradient"/><linearGradient id="linear-gradient-8" x1="85" y1="488.621" x2="85" y2="30.768" xlink:href="#linear-gradient"/><linearGradient id="linear-gradient-9" x1="50" y1="488.621" x2="50" y2="30.768" xlink:href="#linear-gradient"/><linearGradient id="linear-gradient-10" x1="153" y1="488.621" x2="153" y2="30.768" xlink:href="#linear-gradient"/><linearGradient id="linear-gradient-11" x1="187" y1="488.621" x2="187" y2="30.768" xlink:href="#linear-gradient"/><linearGradient id="linear-gradient-12" x1="119" y1="488.621" x2="119" y2="30.768" xlink:href="#linear-gradient"/><linearGradient id="linear-gradient-13" x1="222" y1="488.621" x2="222" y2="30.768" xlink:href="#linear-gradient"/><linearGradient id="linear-gradient-14" x1="112" y1="488.621" x2="112" y2="30.768" xlink:href="#linear-gradient"/><linearGradient id="linear-gradient-15" x1="77" y1="488.621" x2="77" y2="30.768" xlink:href="#linear-gradient"/><linearGradient id="linear-gradient-16" x1="180" y1="488.621" x2="180" y2="30.768" xlink:href="#linear-gradient"/><linearGradient id="linear-gradient-17" x1="214" y1="488.621" x2="214" y2="30.768" xlink:href="#linear-gradient"/><linearGradient id="linear-gradient-18" x1="146" y1="488.621" x2="146" y2="30.768" xlink:href="#linear-gradient"/><linearGradient id="linear-gradient-19" x1="249" y1="488.621" x2="249" y2="30.768" xlink:href="#linear-gradient"/><linearGradient id="linear-gradient-20" x1="84" y1="488.621" x2="84" y2="30.768" xlink:href="#linear-gradient"/></defs><title>Cargo container 3</title><path d="M496.05,381H263V300h19.96a7.279,7.279,0,0,0,7.04-7.28V197.86a6.916,6.916,0,0,0-7.04-6.86h-1.432L170,118.138V98.476a20.223,20.223,0,0,0,0-37.958V57h6.25a7,7,0,0,0,0-14H170V29.55a7,7,0,0,0-14,0V43h-6.23a7,7,0,0,0,0,14H156v9.27a7,7,0,0,0,7,7,6.24,6.24,0,1,1-6.236,6.24,7,7,0,0,0-14,0A19.862,19.862,0,0,0,156,98.476v19.662L44.491,191H43.06A6.933,6.933,0,0,0,36,197.86V286H15.95A6.724,6.724,0,0,0,9,292.72V482.45c0,3.866,3.184,6.55,7.05,6.55h239.9c.034,0,.067,0,.1,0s.065,0,.1,0h239.9c3.866,0,6.95-2.684,6.95-6.55V387.58C503,383.714,499.916,381,496.05,381ZM163.01,130.427,255.9,191H70.121ZM50,205H276v81H50ZM23,300H249v81H23Zm0,175V395H249v80Zm466,0H263V395H489Z" style="fill:url(#linear-gradient)"/><path d="M325,472.45a7,7,0,0,0,7-7V404.58a7,7,0,1,0-14,0v60.87A7,7,0,0,0,325,472.45Z" style="fill:url(#linear-gradient-2)"/><path d="M290,472.45a7,7,0,0,0,7-7V404.58a7,7,0,1,0-14,0v60.87A7,7,0,0,0,290,472.45Z" style="fill:url(#linear-gradient-3)"/><path d="M393,472.45a7,7,0,0,0,7-7V404.58a7,7,0,1,0-14,0v60.87A7,7,0,0,0,393,472.45Z" style="fill:url(#linear-gradient-4)"/><path d="M428,472.45a7,7,0,0,0,7-7V404.58a7,7,0,1,0-14,0v60.87A7,7,0,0,0,428,472.45Z" style="fill:url(#linear-gradient-5)"/><path d="M359,472.45a7,7,0,0,0,7-7V404.58a7,7,0,1,0-14,0v60.87A7,7,0,0,0,359,472.45Z" style="fill:url(#linear-gradient-6)"/><path d="M462,472.45a7,7,0,0,0,7-7V404.58a7,7,0,1,0-14,0v60.87A7,7,0,0,0,462,472.45Z" style="fill:url(#linear-gradient-7)"/><path d="M85,397.58a7,7,0,0,0-7,7v60.87a7,7,0,1,0,14,0V404.58A7,7,0,0,0,85,397.58Z" style="fill:url(#linear-gradient-8)"/><path d="M50,397.58a7,7,0,0,0-7,7v60.87a7,7,0,1,0,14,0V404.58A7,7,0,0,0,50,397.58Z" style="fill:url(#linear-gradient-9)"/><path d="M153,397.58a7,7,0,0,0-7,7v60.87a7,7,0,1,0,14,0V404.58A7,7,0,0,0,153,397.58Z" style="fill:url(#linear-gradient-10)"/><path d="M187,397.58a7,7,0,0,0-7,7v60.87a7,7,0,1,0,14,0V404.58A7,7,0,0,0,187,397.58Z" style="fill:url(#linear-gradient-11)"/><path d="M119,397.58a7,7,0,0,0-7,7v60.87a7,7,0,1,0,14,0V404.58A7,7,0,0,0,119,397.58Z" style="fill:url(#linear-gradient-12)"/><path d="M222,397.58a7,7,0,0,0-7,7v60.87a7,7,0,1,0,14,0V404.58A7,7,0,0,0,222,397.58Z" style="fill:url(#linear-gradient-13)"/><path d="M112,207.86a7,7,0,0,0-7,7v60.86a7,7,0,0,0,14,0V214.86A7,7,0,0,0,112,207.86Z" style="fill:url(#linear-gradient-14)"/><path d="M77,207.86a7,7,0,0,0-7,7v60.86a7,7,0,0,0,14,0V214.86A7,7,0,0,0,77,207.86Z" style="fill:url(#linear-gradient-15)"/><path d="M180,207.86a7,7,0,0,0-7,7v60.86a7,7,0,0,0,14,0V214.86A7,7,0,0,0,180,207.86Z" style="fill:url(#linear-gradient-16)"/><path d="M214,207.86a7,7,0,0,0-7,7v60.86a7,7,0,0,0,14,0V214.86A7,7,0,0,0,214,207.86Z" style="fill:url(#linear-gradient-17)"/><path d="M146,207.86a7,7,0,0,0-7,7v60.86a7,7,0,0,0,14,0V214.86A7,7,0,0,0,146,207.86Z" style="fill:url(#linear-gradient-18)"/><path d="M249,207.86a7,7,0,0,0-7,7v60.86a7,7,0,0,0,14,0V214.86A7,7,0,0,0,249,207.86Z" style="fill:url(#linear-gradient-19)"/><path d="M84,302.72a7,7,0,0,0-7,7v60.87a7,7,0,0,0,14,0V309.72A7,7,0,0,0,84,302.72Z" style="fill:url(#linear-gradient-20)"/><path d="M50,302.72a7,7,0,0,0-7,7v60.87a7,7,0,0,0,14,0V309.72A7,7,0,0,0,50,302.72Z" style="fill:url(#linear-gradient-9)"/><path d="M153,302.72a7,7,0,0,0-7,7v60.87a7,7,0,0,0,14,0V309.72A7,7,0,0,0,153,302.72Z" style="fill:url(#linear-gradient-10)"/><path d="M187,302.72a7,7,0,0,0-7,7v60.87a7,7,0,0,0,14,0V309.72A7,7,0,0,0,187,302.72Z" style="fill:url(#linear-gradient-11)"/><path d="M119,302.72a7,7,0,0,0-7,7v60.87a7,7,0,0,0,14,0V309.72A7,7,0,0,0,119,302.72Z" style="fill:url(#linear-gradient-12)"/><path d="M222,302.72a7,7,0,0,0-7,7v60.87a7,7,0,0,0,14,0V309.72A7,7,0,0,0,222,302.72Z" style="fill:url(#linear-gradient-13)"/></svg>
