<?xml version="1.0"?>
<svg xmlns="http://www.w3.org/2000/svg" xmlns:xlink="http://www.w3.org/1999/xlink" id="Layer_1" data-name="Layer 1" viewBox="0 0 512 512" width="512" height="512"><defs><linearGradient id="linear-gradient" x1="256" y1="494" x2="256" y2="19.658" gradientUnits="userSpaceOnUse"><stop offset="0.322" stop-color="#a163f5"/><stop offset="0.466" stop-color="#b074ee"/><stop offset="0.752" stop-color="#d8a1dd"/><stop offset="0.898" stop-color="#efbad3"/></linearGradient><linearGradient id="linear-gradient-2" x1="167.954" y1="494" x2="167.954" y2="19.658" xlink:href="#linear-gradient"/><linearGradient id="linear-gradient-3" x1="320.454" y1="494" x2="320.454" y2="19.658" xlink:href="#linear-gradient"/></defs><title> Clipboard verification</title><path d="M394.15,70H374V45.794a7,7,0,1,0-14,0V70H152V45.794a7,7,0,1,0-14,0V70H117.85A47.049,47.049,0,0,0,71,117.145V426.206A46.749,46.749,0,0,0,117.85,473h276.3A46.749,46.749,0,0,0,441,426.206V117.145A47.049,47.049,0,0,0,394.15,70ZM427,426.206A32.734,32.734,0,0,1,394.15,459H117.85A32.734,32.734,0,0,1,85,426.206V117.145A33.033,33.033,0,0,1,117.85,84H138v18.65a7,7,0,0,0,14,0V84H360v18.65a7,7,0,0,0,14,0V84h20.15A33.033,33.033,0,0,1,427,117.145Z" style="fill:url(#linear-gradient)"/><path d="M197.024,249.94l-38.979,37.27L139,268.16a7,7,0,1,0-9.9,9.9l23.889,23.889a7,7,0,0,0,9.788.11l43.927-42a7,7,0,0,0-9.676-10.12Z" style="fill:url(#linear-gradient-2)"/><path d="M377.954,269h-115a7,7,0,1,0,0,14h115a7,7,0,0,0,0-14Z" style="fill:url(#linear-gradient-3)"/><path d="M197.024,149.94l-38.979,37.27L139,168.16a7,7,0,1,0-9.9,9.9l23.889,23.889a7,7,0,0,0,9.788.11l43.927-42a7,7,0,0,0-9.676-10.12Z" style="fill:url(#linear-gradient-2)"/><path d="M377.954,169h-115a7,7,0,0,0,0,14h115a7,7,0,0,0,0-14Z" style="fill:url(#linear-gradient-3)"/><path d="M197.024,349.94l-38.979,37.27L139,368.16a7,7,0,1,0-9.9,9.9l23.889,23.889a7,7,0,0,0,9.788.11l43.927-42a7,7,0,0,0-9.676-10.12Z" style="fill:url(#linear-gradient-2)"/><path d="M377.954,369h-115a7,7,0,1,0,0,14h115a7,7,0,0,0,0-14Z" style="fill:url(#linear-gradient-3)"/></svg>
