<?xml version="1.0"?>
<svg xmlns="http://www.w3.org/2000/svg" xmlns:xlink="http://www.w3.org/1999/xlink" id="Layer_1" data-name="Layer 1" viewBox="0 0 512 512" width="512" height="512"><defs><linearGradient id="linear-gradient" x1="114" y1="496" x2="114" y2="19.576" gradientUnits="userSpaceOnUse"><stop offset="0.322" stop-color="#a163f5"/><stop offset="0.466" stop-color="#b074ee"/><stop offset="0.752" stop-color="#d8a1dd"/><stop offset="0.898" stop-color="#efbad3"/></linearGradient><linearGradient id="linear-gradient-2" x1="185" y1="496" x2="185" y2="19.576" xlink:href="#linear-gradient"/><linearGradient id="linear-gradient-3" x1="256" y1="496" x2="256" y2="19.576" xlink:href="#linear-gradient"/><linearGradient id="linear-gradient-4" x1="327" y1="496" x2="327" y2="19.576" xlink:href="#linear-gradient"/><linearGradient id="linear-gradient-5" x1="398" y1="496" x2="398" y2="19.576" xlink:href="#linear-gradient"/></defs><title>Container shipping</title><path d="M114,447.188a7,7,0,0,0,7-7V332.805a7,7,0,0,0-14,0V440.188A7,7,0,0,0,114,447.188Z" style="fill:url(#linear-gradient)"/><path d="M185,447.188a7,7,0,0,0,7-7V332.805a7,7,0,0,0-14,0V440.188A7,7,0,0,0,185,447.188Z" style="fill:url(#linear-gradient-2)"/><path d="M256,447.188a7,7,0,0,0,7-7V332.805a7,7,0,0,0-14,0V440.188A7,7,0,0,0,256,447.188Z" style="fill:url(#linear-gradient-3)"/><path d="M327,447.188a7,7,0,0,0,7-7V332.805a7,7,0,0,0-14,0V440.188A7,7,0,0,0,327,447.188Z" style="fill:url(#linear-gradient-4)"/><path d="M398,447.188a7,7,0,0,0,7-7V332.805a7,7,0,0,0-14,0V440.188A7,7,0,0,0,398,447.188Z" style="fill:url(#linear-gradient-5)"/><path d="M462.967,290.54c0-.022,0-.044,0-.066-.017-.17-.047-.337-.077-.5a6.936,6.936,0,0,0-.672-1.99c-.015-.029-.027-.06-.043-.089-.07-.131-.149-.255-.227-.381-.042-.069-.081-.14-.126-.207-.057-.085-.121-.165-.182-.248-.074-.1-.146-.2-.227-.3-.037-.044-.078-.085-.115-.128-.111-.129-.223-.257-.343-.377l-.026-.024a7,7,0,0,0-1.065-.865c-.176-.117-.357-.227-.544-.328l-.013-.006a6.935,6.935,0,0,0-.628-.3l-.155,0L265,205.019V191.066a34.216,34.216,0,0,0,24.7-32.537A33.774,33.774,0,0,0,263,125.412V91h6.423a7.049,7.049,0,0,0,6.791-5.356l13.423-53.718a7.246,7.246,0,0,0-1.274-6.12A7.11,7.11,0,0,0,282.846,23H229.154a7.149,7.149,0,0,0-6.791,8.849l13.423,53.77A7.071,7.071,0,0,0,242.577,91H249v40.684a7,7,0,0,0,7,7,19.846,19.846,0,1,1-19.846,19.845,7,7,0,0,0-7-7,7.127,7.127,0,0,0-7.147,7A34.154,34.154,0,0,0,251,192.04v12.938L53.237,284.7c-.012,0,.051.011.039.016-.157.064-.272.138-.423.213-.061.03-.105.057-.164.088-.121.065-.227.138-.344.209-.084.051-.167.1-.248.153-.065.044-.124.094-.187.14a6.89,6.89,0,0,0-2.7,3.994c-.02.08-.044.158-.061.238s-.03.187-.046.28c-.023.139-.048.277-.064.417-.006.063-.007.128-.012.191-.014.173-.025.345-.026.52l0,.034V481.8a7.175,7.175,0,0,0,7,7.2H456a7.175,7.175,0,0,0,7-7.2V291.183C463,290.967,462.987,290.753,462.967,290.54ZM238.12,37h35.76l-9.922,40H248.042Zm20.144,180.069L420.648,284H92.112ZM449,475H63V298H449Z" style="fill:url(#linear-gradient-3)"/></svg>
