<?xml version="1.0"?>
<svg xmlns="http://www.w3.org/2000/svg" xmlns:xlink="http://www.w3.org/1999/xlink" id="Layer_1" data-name="Layer 1" viewBox="0 0 512 512" width="512" height="512"><defs><linearGradient id="linear-gradient" x1="256" y1="494" x2="256" y2="19.658" gradientUnits="userSpaceOnUse"><stop offset="0.322" stop-color="#a163f5"/><stop offset="0.466" stop-color="#b074ee"/><stop offset="0.752" stop-color="#d8a1dd"/><stop offset="0.898" stop-color="#efbad3"/></linearGradient></defs><title> Containers 2</title><path d="M456,85H56a7.267,7.267,0,0,0-7,7.306v40A6.745,6.745,0,0,0,56,139H73V373H56a6.745,6.745,0,0,0-7,6.694v40A7.267,7.267,0,0,0,56,427H456a7.267,7.267,0,0,0,7-7.306v-40A6.745,6.745,0,0,0,456,373H439V139h17a6.745,6.745,0,0,0,7-6.694v-40A7.267,7.267,0,0,0,456,85Zm-7,302v26H63V387ZM202,260.078a7,7,0,0,0,7-7V139H313V253.078a7,7,0,0,0,14,0V139h98V373H377V259.078a7,7,0,0,0-14,0V373H267.219l.754-113.761A7.152,7.152,0,0,0,261.019,252h-.047a7.167,7.167,0,0,0-7,7.145L253.219,373H148.6l.754-113.761A7.152,7.152,0,0,0,142.4,252h-.047a7.167,7.167,0,0,0-7,7.145L134.6,373H87V139H195V253.078A7,7,0,0,0,202,260.078ZM449,125H63V99H449Z" style="fill:url(#linear-gradient)"/></svg>
