<?xml version="1.0"?>
<svg xmlns="http://www.w3.org/2000/svg" xmlns:xlink="http://www.w3.org/1999/xlink" id="Layer_1" data-name="Layer 1" viewBox="0 0 512 512" width="512" height="512"><defs><linearGradient id="linear-gradient" x1="256" y1="488.621" x2="256" y2="30.768" gradientUnits="userSpaceOnUse"><stop offset="0.322" stop-color="#a163f5"/><stop offset="0.466" stop-color="#b074ee"/><stop offset="0.752" stop-color="#d8a1dd"/><stop offset="0.898" stop-color="#efbad3"/></linearGradient><linearGradient id="linear-gradient-2" x1="205.56" y1="488.621" x2="205.56" y2="30.768" xlink:href="#linear-gradient"/><linearGradient id="linear-gradient-3" x1="410.165" y1="488.621" x2="410.165" y2="30.768" xlink:href="#linear-gradient"/><linearGradient id="linear-gradient-4" x1="103.255" y1="488.621" x2="103.255" y2="30.768" xlink:href="#linear-gradient"/><linearGradient id="linear-gradient-5" x1="307.86" y1="488.621" x2="307.86" y2="30.768" xlink:href="#linear-gradient"/></defs><title> Conveyor 3</title><path d="M410.74,312H101.26a62.5,62.5,0,0,0,0,125H410.74a62.5,62.5,0,0,0,0-125Zm34.13,96.725A48.079,48.079,0,0,1,410.74,423H101.26a48.5,48.5,0,0,1,0-97H410.74a48.5,48.5,0,0,1,34.13,82.725Z" style="fill:url(#linear-gradient)"/><path d="M205.56,334.31a40.16,40.16,0,1,0,40.16,40.16A40.206,40.206,0,0,0,205.56,334.31Zm0,66.32a26.16,26.16,0,1,1,26.16-26.16A26.189,26.189,0,0,1,205.56,400.63Z" style="fill:url(#linear-gradient-2)"/><path d="M410.17,334.31a40.16,40.16,0,1,0,40.15,40.16A40.206,40.206,0,0,0,410.17,334.31Zm0,66.32a26.16,26.16,0,1,1,26.15-26.16A26.189,26.189,0,0,1,410.17,400.63Z" style="fill:url(#linear-gradient-3)"/><path d="M103.25,334.31a40.16,40.16,0,1,0,40.16,40.16A40.2,40.2,0,0,0,103.25,334.31Zm0,66.32a26.16,26.16,0,1,1,26.16-26.16A26.185,26.185,0,0,1,103.25,400.63Z" style="fill:url(#linear-gradient-4)"/><path d="M307.86,334.31a40.16,40.16,0,1,0,40.16,40.16A40.206,40.206,0,0,0,307.86,334.31Zm0,66.32a26.16,26.16,0,1,1,26.16-26.16A26.189,26.189,0,0,1,307.86,400.63Z" style="fill:url(#linear-gradient-5)"/><path d="M155.17,292H356.83A16.019,16.019,0,0,0,373,276.03V149.21a7.006,7.006,0,0,0-1.1-3.763L331.935,82.616A16.212,16.212,0,0,0,318.3,75H193.7a16.212,16.212,0,0,0-13.633,7.612L140.1,145.38a7.233,7.233,0,0,0-1.1,3.83V276.03A16.019,16.019,0,0,0,155.17,292ZM280,278H232V192.694l48,19.9Zm76.83,0H294V207.94a7.123,7.123,0,0,0-4.424-6.456l-61.545-25.77a7.321,7.321,0,0,0-6.745.627A7.16,7.16,0,0,0,218,182.17V278H155.17a2.01,2.01,0,0,1-2.17-1.97V156H359V276.03A2.01,2.01,0,0,1,356.83,278Zm-36.7-187.968L353.236,142H263V89h55.3A2.208,2.208,0,0,1,320.127,90.032Zm-128.252,0A2.206,2.206,0,0,1,193.7,89H249v53H158.764Z" style="fill:url(#linear-gradient)"/></svg>
