<?xml version="1.0"?>
<svg xmlns="http://www.w3.org/2000/svg" xmlns:xlink="http://www.w3.org/1999/xlink" id="Layer_1" data-name="Layer 1" viewBox="0 0 512 512" width="512" height="512"><defs><linearGradient id="linear-gradient" x1="262.282" y1="488.621" x2="262.282" y2="30.768" gradientUnits="userSpaceOnUse"><stop offset="0.322" stop-color="#a163f5"/><stop offset="0.466" stop-color="#b074ee"/><stop offset="0.752" stop-color="#d8a1dd"/><stop offset="0.898" stop-color="#efbad3"/></linearGradient><linearGradient id="linear-gradient-2" x1="41" y1="488.621" x2="41" y2="30.768" xlink:href="#linear-gradient"/><linearGradient id="linear-gradient-3" x1="69" y1="488.621" x2="69" y2="30.768" xlink:href="#linear-gradient"/><linearGradient id="linear-gradient-4" x1="98" y1="488.621" x2="98" y2="30.768" xlink:href="#linear-gradient"/><linearGradient id="linear-gradient-5" x1="126" y1="488.621" x2="126" y2="30.768" xlink:href="#linear-gradient"/><linearGradient id="linear-gradient-6" x1="155" y1="488.621" x2="155" y2="30.768" xlink:href="#linear-gradient"/><linearGradient id="linear-gradient-7" x1="263.715" y1="488.621" x2="263.715" y2="30.768" xlink:href="#linear-gradient"/><linearGradient id="linear-gradient-8" x1="250.501" y1="488.621" x2="250.501" y2="30.768" xlink:href="#linear-gradient"/><linearGradient id="linear-gradient-9" x1="400" y1="488.621" x2="400" y2="30.768" xlink:href="#linear-gradient"/></defs><title> Delivery  location map</title><path d="M244.854,293.881a7.185,7.185,0,0,0,6.292-3.687L255,283.247V343.42a7,7,0,1,0,14,0V273.051l5.69,6.155a6.929,6.929,0,0,0,9.836.284,7,7,0,0,0,.254-9.9l-17.915-18.96a7.011,7.011,0,0,0-11.267,1.491l-16.9,31.44a7,7,0,0,0,6.158,10.316Z" style="fill:url(#linear-gradient)"/><path d="M41,338.45a7,7,0,0,0-7,7v25.92a7,7,0,0,0,14,0V345.45A7,7,0,0,0,41,338.45Z" style="fill:url(#linear-gradient-2)"/><path d="M69,357.65a7,7,0,0,0-7,7V388a7,7,0,0,0,14,0V364.65A7,7,0,0,0,69,357.65Z" style="fill:url(#linear-gradient-3)"/><path d="M98,376.85a7,7,0,0,0-7,7v20.56a7,7,0,0,0,14,0V383.85A7,7,0,0,0,98,376.85Z" style="fill:url(#linear-gradient-4)"/><path d="M126,396.05a7,7,0,0,0-7,7v17.77a7,7,0,0,0,14,0V403.05A7,7,0,0,0,126,396.05Z" style="fill:url(#linear-gradient-5)"/><path d="M155,415.25a7,7,0,0,0-7,7v15.36a7,7,0,0,0,14,0V422.25A7,7,0,0,0,155,415.25Z" style="fill:url(#linear-gradient-6)"/><path d="M276.16,353.467l-31.89,18.41a7,7,0,1,0,7,12.125l31.89-18.41a7,7,0,1,0-7-12.125Z" style="fill:url(#linear-gradient-7)"/><path d="M464.021,297.883A90.474,90.474,0,0,0,407,272.117V135.55a7.03,7.03,0,0,0-3.54-6.083L211.5,18.638a7,7,0,0,0-7,0L12.628,129.415A7,7,0,0,0,9,135.55v240.9a7,7,0,0,0,3.5,6.062l192,110.85a7,7,0,0,0,7,0l120-69.273c1.009,1.144,2.045,2.282,3.12,3.4l60.33,62.97a7,7,0,0,0,10.11,0l60.331-62.971A95.4,95.4,0,0,0,486.321,394.9,87.585,87.585,0,0,0,491.8,358.2,93.49,93.49,0,0,0,464.021,297.883ZM313.681,394.9a88.952,88.952,0,0,0,9.223,17.98L215,475.176V250.421L393,147.653V272.117a90.474,90.474,0,0,0-57.021,25.766A93.49,93.49,0,0,0,308.2,358.2,87.585,87.585,0,0,0,313.681,394.9ZM99,191.648l35,19.976V339.933l-13.195-14.878a7.229,7.229,0,0,0-8.076-1.845L99,328.816Zm7.21-12.118L284.191,76.772l34.935,20.17L141.141,199.7Zm226.916-74.5L385.98,135.54,208,238.3l-52.859-30.518ZM208,32.783l62.191,35.906L92.205,171.45,30.02,135.541ZM23,147.654l62,35.917V339.28a7.135,7.135,0,0,0,9.821,6.47l18.654-7.691,22.058,25.046a7.01,7.01,0,0,0,5.262,2.375,7.553,7.553,0,0,0,2.573-.451A7.094,7.094,0,0,0,148,358.48V219.707l53,30.714V475.175L23,372.409ZM473.2,390.018a81.52,81.52,0,0,1-17.925,27.789L400,475.5l-55.277-57.695a91.7,91.7,0,0,1-6.113-7.043A77.85,77.85,0,0,1,326.8,390.021a73.678,73.678,0,0,1-4.637-30.864A79.489,79.489,0,0,1,345.8,307.865a77.686,77.686,0,0,1,108.408,0,79.489,79.489,0,0,1,23.632,51.293A73.67,73.67,0,0,1,473.2,390.018Z" style="fill:url(#linear-gradient-8)"/><path d="M400,294.81c-34.474,0-62.52,28.2-62.52,62.87s28.046,62.87,62.52,62.87,62.52-28.2,62.52-62.87S434.474,294.81,400,294.81Zm0,111.74a48.871,48.871,0,1,1,48.52-48.87A48.751,48.751,0,0,1,400,406.55Z" style="fill:url(#linear-gradient-9)"/></svg>
