<?xml version="1.0"?>
<svg xmlns="http://www.w3.org/2000/svg" xmlns:xlink="http://www.w3.org/1999/xlink" id="Layer_1" data-name="Layer 1" viewBox="0 0 512 512" width="512" height="512"><defs><linearGradient id="linear-gradient" x1="256" y1="488.621" x2="256" y2="30.768" gradientUnits="userSpaceOnUse"><stop offset="0.322" stop-color="#a163f5"/><stop offset="0.466" stop-color="#b074ee"/><stop offset="0.752" stop-color="#d8a1dd"/><stop offset="0.898" stop-color="#efbad3"/></linearGradient><linearGradient id="linear-gradient-2" x1="312.519" y1="488.621" x2="312.519" y2="30.768" xlink:href="#linear-gradient"/><linearGradient id="linear-gradient-3" x1="361.927" y1="488.621" x2="361.927" y2="30.768" xlink:href="#linear-gradient"/><linearGradient id="linear-gradient-4" x1="82" y1="488.621" x2="82" y2="30.768" xlink:href="#linear-gradient"/><linearGradient id="linear-gradient-5" x1="111" y1="488.621" x2="111" y2="30.768" xlink:href="#linear-gradient"/><linearGradient id="linear-gradient-6" x1="141" y1="488.621" x2="141" y2="30.768" xlink:href="#linear-gradient"/><linearGradient id="linear-gradient-7" x1="171" y1="488.621" x2="171" y2="30.768" xlink:href="#linear-gradient"/><linearGradient id="linear-gradient-8" x1="200" y1="488.621" x2="200" y2="30.768" xlink:href="#linear-gradient"/><linearGradient id="linear-gradient-9" x1="369.26" y1="488.621" x2="369.26" y2="30.768" xlink:href="#linear-gradient"/><linearGradient id="linear-gradient-10" x1="314.04" y1="488.621" x2="314.04" y2="30.768" xlink:href="#linear-gradient"/></defs><title> Delivery package</title><path d="M459.454,134.443l-69.776-40.2L386,100.319V100.3l3.667-6.053L259.414,19a6.917,6.917,0,0,0-6.957,0L52.609,134.394A6.981,6.981,0,0,0,49,140.53V371.47a7,7,0,0,0,3.5,6.062L252.5,493a7,7,0,0,0,7,0l200-115.47a7,7,0,0,0,3.5-6.062V140.53A7.032,7.032,0,0,0,459.454,134.443Zm-17.473,6.077L256,247.9l-55.642-32.126L386.344,108.39ZM142,198.464l37,21.142v114.6l-14.156-16.08a7.293,7.293,0,0,0-8.116-1.845L142,322.285Zm7.381-12.124L335.362,78.962,372.34,100.31,186.357,207.688ZM256,33.143l65.362,37.736L135.381,178.257,70.02,140.52ZM63,152.633l65,37.747V332.75a7.26,7.26,0,0,0,9.957,6.47l19.636-8.091,23.129,26.246A7.015,7.015,0,0,0,193,352.75V227.689l56,32.332V474.815L63,367.429ZM263,474.815V260.021L449,152.633v214.8Z" style="fill:url(#linear-gradient)"/><path d="M294.384,305.171a7,7,0,0,0,6.172-3.687L305,293.216V337.06a7,7,0,0,0,14,0V283.025l6.559,6.95a7,7,0,1,0,10.181-9.61l-18.649-19.76a7,7,0,0,0-11.257,1.491l-17.61,32.759a7,7,0,0,0,6.16,10.316Z" style="fill:url(#linear-gradient-2)"/><path d="M349.905,268.039l5.1-8.828V311.23a7,7,0,0,0,14,0V251.969l6,6.4a6.989,6.989,0,1,0,10.148-9.612L366.494,229a7,7,0,0,0-11.167,1.328l-17.611,30.75a7.017,7.017,0,0,0,12.189,6.957Z" style="fill:url(#linear-gradient-3)"/><path d="M82,332.17a7,7,0,0,0-7,7v27a7,7,0,0,0,14,0v-27A7,7,0,0,0,82,332.17Z" style="fill:url(#linear-gradient-4)"/><path d="M111,352.17a7,7,0,0,0-7,7V383.5a7,7,0,0,0,14,0V359.17A7,7,0,0,0,111,352.17Z" style="fill:url(#linear-gradient-5)"/><path d="M141,372.17a7,7,0,0,0-7,7v21.42a7,7,0,0,0,14,0V379.17A7,7,0,0,0,141,372.17Z" style="fill:url(#linear-gradient-6)"/><path d="M171,392.17a7,7,0,0,0-7,7v18.52a7,7,0,1,0,14,0V399.17A7,7,0,0,0,171,392.17Z" style="fill:url(#linear-gradient-7)"/><path d="M200,412.17a7,7,0,0,0-7,7v16a7,7,0,1,0,14,0v-16A7,7,0,0,0,200,412.17Z" style="fill:url(#linear-gradient-8)"/><path d="M386.191,313.7l-40.86,23.58a7,7,0,1,0,7,12.126l40.86-23.58a7,7,0,1,0-7-12.126Z" style="fill:url(#linear-gradient-9)"/><path d="M327.15,347.778l-33.22,19.18a7,7,0,1,0,7,12.124l33.22-19.18a7,7,0,1,0-7-12.124Z" style="fill:url(#linear-gradient-10)"/></svg>
