<?xml version="1.0"?>
<svg xmlns="http://www.w3.org/2000/svg" xmlns:xlink="http://www.w3.org/1999/xlink" id="Layer_1" data-name="Layer 1" viewBox="0 0 512 512" width="512" height="512"><defs><linearGradient id="linear-gradient" x1="255.625" y1="494" x2="255.625" y2="28.606" gradientUnits="userSpaceOnUse"><stop offset="0.322" stop-color="#a163f5"/><stop offset="0.466" stop-color="#b074ee"/><stop offset="0.752" stop-color="#d8a1dd"/><stop offset="0.898" stop-color="#efbad3"/></linearGradient><linearGradient id="linear-gradient-2" x1="391.25" y1="494" x2="391.25" y2="28.606" xlink:href="#linear-gradient"/><linearGradient id="linear-gradient-3" x1="212" y1="494" x2="212" y2="28.606" xlink:href="#linear-gradient"/></defs><title>Delivery  reminder</title><path d="M399,309.84V90.45C399,64.534,378.416,43,352.5,43H303V19.5a7,7,0,0,0-14,0V43H136V19.5a7,7,0,0,0-14,0V43H72.5C46.584,43,25,64.534,25,90.45V363.12C25,389.036,46.584,410,72.5,410H296.671A94.872,94.872,0,1,0,399,309.84ZM72.5,57H122V81.4a7,7,0,0,0,14,0V57H289V81.4a7,7,0,0,0,14,0V57h49.5C370.7,57,385,72.254,385,90.45V122H39V90.45C39,72.254,54.3,57,72.5,57ZM39,363.12V136H385V309.7C339,312.628,300.958,350,296.874,396H72.5C54.3,396,39,381.316,39,363.12ZM391.5,485.5a81,81,0,1,1,81-81A81.092,81.092,0,0,1,391.5,485.5Z" style="fill:url(#linear-gradient)"/><path d="M391.5,360.931a18.021,18.021,0,0,1,18,18,7,7,0,0,0,7,7,6.791,6.791,0,0,0,6.75-7A31.548,31.548,0,0,0,398,347.712V340.2a7,7,0,1,0-14,0v7.517a32.029,32.029,0,0,0,7.375,63.219,18,18,0,0,1,.272,35.991c-.059,0-.1-.009-.163-.009s-.111.008-.171.009A18.012,18.012,0,0,1,373.5,428.931a7,7,0,0,0-7-7,7.217,7.217,0,0,0-7.249,7A32.135,32.135,0,0,0,384,460.151v8.654a7,7,0,1,0,14,0v-8.654a31.549,31.549,0,0,0,25.25-31.22,31.929,31.929,0,0,0-31.875-32,18,18,0,0,1,.125-36Z" style="fill:url(#linear-gradient-2)"/><path d="M303,331.747V229h9.5c3.866,0,6.5-3.362,6.5-7.229V180.253c0-3.866-2.634-7.253-6.5-7.253h-200a7.662,7.662,0,0,0-7.5,7.253v41.518c0,3.867,3.634,7.229,7.5,7.229H122V331.747A7.039,7.039,0,0,0,128.782,339H296.461C300.327,339,303,335.613,303,331.747ZM119,187H305v28H119Zm78,42h31v36.841l-12.039-7.065a7.418,7.418,0,0,0-7.415.041L197,265.675Zm-61,96V229h47v49.1a7.243,7.243,0,0,0,10.917,5.987L212.33,272.96l18.945,11.17a7.033,7.033,0,0,0,3.57.972,7.283,7.283,0,0,0,3.548-.921A7.072,7.072,0,0,0,242,278.1V229h47v96Z" style="fill:url(#linear-gradient-3)"/></svg>
