<?xml version="1.0"?>
<svg xmlns="http://www.w3.org/2000/svg" xmlns:xlink="http://www.w3.org/1999/xlink" id="Layer_1" data-name="Layer 1" viewBox="0 0 512 512" width="512" height="512"><defs><linearGradient id="linear-gradient" x1="256" y1="496" x2="256" y2="19.576" gradientUnits="userSpaceOnUse"><stop offset="0.322" stop-color="#a163f5"/><stop offset="0.466" stop-color="#b074ee"/><stop offset="0.752" stop-color="#d8a1dd"/><stop offset="0.898" stop-color="#efbad3"/></linearGradient><linearGradient id="linear-gradient-2" x1="368.5" y1="496" x2="368.5" y2="19.576" xlink:href="#linear-gradient"/><linearGradient id="linear-gradient-3" x1="143.5" y1="496" x2="143.5" y2="19.576" xlink:href="#linear-gradient"/><linearGradient id="linear-gradient-4" x1="167" y1="496" x2="167" y2="19.576" xlink:href="#linear-gradient"/><linearGradient id="linear-gradient-5" x1="197" y1="496" x2="197" y2="19.576" xlink:href="#linear-gradient"/><linearGradient id="linear-gradient-6" x1="226" y1="496" x2="226" y2="19.576" xlink:href="#linear-gradient"/><linearGradient id="linear-gradient-8" x1="286" y1="496" x2="286" y2="19.576" xlink:href="#linear-gradient"/><linearGradient id="linear-gradient-9" x1="315" y1="496" x2="315" y2="19.576" xlink:href="#linear-gradient"/><linearGradient id="linear-gradient-10" x1="345" y1="496" x2="345" y2="19.576" xlink:href="#linear-gradient"/></defs><title>Delivery Truck</title><path d="M428,390.179V353.864a45.741,45.741,0,0,0-24-39.871V258.472a10.772,10.772,0,0,0,10-10.941V177.337A10.772,10.772,0,0,0,404,166.4V68.806A46.837,46.837,0,0,0,357.059,22H154.941A46.837,46.837,0,0,0,108,68.806V166.4a10.772,10.772,0,0,0-10,10.941v70.194a10.772,10.772,0,0,0,10,10.941v55.511a45.741,45.741,0,0,0-24,39.871v36.325c-2.113,1.205-4,3.474-4,6.08V412.97C80,426.044,92.168,437,106.559,437H109v24.343A28.33,28.33,0,0,0,137.392,490h1.624A28.37,28.37,0,0,0,166.5,470h5.349c10,0,18.147-10.151,18.147-23.239V437H322v9.761C322,459.849,330.151,470,340.147,470H345.5a28.37,28.37,0,0,0,27.488,20h1.624A28.329,28.329,0,0,0,403,461.343V437h2.441C419.832,437,432,426.044,432,412.97V396.259C432,393.653,430.113,391.384,428,390.179Zm-14-36.315V389H324V353.864c0-17.2,14.153-30.864,31.354-30.864h27.452A30.949,30.949,0,0,1,414,353.864ZM112,245V180h2.66c.094,0,.186.014.281.014s.187-.014.28-.014H126v65Zm282.542-65c.782,1,1.629.474,2.517.474s1.736.526,2.518-.474H400v65H387V180ZM263,176H373v73H263Zm-7-14H140c.4-17,14.184-31,31.087-31H341.474c16.91,0,30.7,14,31.1,31ZM140,249V176H249v73Zm0,14H373v46H355.354a44.747,44.747,0,0,0-31.679,12.658C320.419,298.9,300.8,281,277.158,281H234.842c-23.643,0-43.255,17.9-46.516,40.653A44.743,44.743,0,0,0,156.647,309H140Zm62,65.355c0-18.2,14.646-33.355,32.842-33.355h42.316c18.2,0,32.842,15.159,32.842,33.355V389H202ZM387,308.84V259h3v50.259C389,309.074,388,308.937,387,308.84ZM154.941,36H357.059A32.821,32.821,0,0,1,390,68.806V166h-3v-3.463A45.88,45.88,0,0,0,341.474,117H171.088C146.217,117,126,137.66,126,162.537V166h-4V68.806A32.821,32.821,0,0,1,154.941,36ZM122,259h4v49.786c-1,.1-3,.248-4,.463Zm7.194,64h27.453c17.2,0,31.353,13.653,31.353,30.854V389H98V353.854A30.94,30.94,0,0,1,129.194,323Zm9.822,153h-1.624A14.317,14.317,0,0,1,123,461.343V437h31v24.343A14.818,14.818,0,0,1,139.016,476ZM176,446.761c0,5.925-3.225,9.239-4.147,9.239H168V437h8Zm160,0V437h8v19h-3.853C339.225,456,336,452.686,336,446.761Zm53,14.582A14.317,14.317,0,0,1,374.608,476h-1.624A14.818,14.818,0,0,1,358,461.343V437h31Zm29-48.373c0,5.263-6,10.03-12.559,10.03H106.559C100,423,94,418.233,94,412.97V403H418Z" style="fill:url(#linear-gradient)"/><path d="M397,362a17,17,0,0,0-17-17H357a17,17,0,0,0-17,17v4a17,17,0,0,0,17,17h23a17,17,0,0,0,17-17Zm-14,4a3,3,0,0,1-3,3H357a3,3,0,0,1-3-3v-4a3,3,0,0,1,3-3h23a3,3,0,0,1,3,3Z" style="fill:url(#linear-gradient-2)"/><path d="M172,362a17,17,0,0,0-17-17H132a17,17,0,0,0-17,17v4a17,17,0,0,0,17,17h23a17,17,0,0,0,17-17Zm-14,4a3,3,0,0,1-3,3H132a3,3,0,0,1-3-3v-4a3,3,0,0,1,3-3h23a3,3,0,0,1,3,3Z" style="fill:url(#linear-gradient-3)"/><path d="M167,103.08a7,7,0,0,0,7-7V63.191a7,7,0,0,0-14,0V96.08A7,7,0,0,0,167,103.08Z" style="fill:url(#linear-gradient-4)"/><path d="M197,103.08a7,7,0,0,0,7-7V63.191a7,7,0,0,0-14,0V96.08A7,7,0,0,0,197,103.08Z" style="fill:url(#linear-gradient-5)"/><path d="M226,103.08a7,7,0,0,0,7-7V63.191a7,7,0,0,0-14,0V96.08A7,7,0,0,0,226,103.08Z" style="fill:url(#linear-gradient-6)"/><path d="M256,103.08a7,7,0,0,0,7-7V63.191a7,7,0,0,0-14,0V96.08A7,7,0,0,0,256,103.08Z" style="fill:url(#linear-gradient)"/><path d="M286,103.08a7,7,0,0,0,7-7V63.191a7,7,0,0,0-14,0V96.08A7,7,0,0,0,286,103.08Z" style="fill:url(#linear-gradient-8)"/><path d="M315,102.214a7,7,0,0,0,7-7V62.327a7,7,0,0,0-14,0V95.214A7,7,0,0,0,315,102.214Z" style="fill:url(#linear-gradient-9)"/><path d="M345,102.214a7,7,0,0,0,7-7V62.327a7,7,0,0,0-14,0V95.214A7,7,0,0,0,345,102.214Z" style="fill:url(#linear-gradient-10)"/></svg>
