<?xml version="1.0"?>
<svg xmlns="http://www.w3.org/2000/svg" xmlns:xlink="http://www.w3.org/1999/xlink" id="Layer_1" data-name="Layer 1" viewBox="0 0 512 512" width="512" height="512"><defs><linearGradient id="linear-gradient" x1="373.63" y1="496" x2="373.63" y2="19.576" gradientUnits="userSpaceOnUse"><stop offset="0.322" stop-color="#a163f5"/><stop offset="0.466" stop-color="#b074ee"/><stop offset="0.752" stop-color="#d8a1dd"/><stop offset="0.898" stop-color="#efbad3"/></linearGradient><linearGradient id="linear-gradient-2" x1="138.37" y1="496" x2="138.37" y2="19.576" xlink:href="#linear-gradient"/><linearGradient id="linear-gradient-3" x1="256" y1="496" x2="256" y2="19.576" xlink:href="#linear-gradient"/><linearGradient id="linear-gradient-4" x1="167" y1="496" x2="167" y2="19.576" xlink:href="#linear-gradient"/><linearGradient id="linear-gradient-5" x1="197" y1="496" x2="197" y2="19.576" xlink:href="#linear-gradient"/><linearGradient id="linear-gradient-6" x1="226" y1="496" x2="226" y2="19.576" xlink:href="#linear-gradient"/><linearGradient id="linear-gradient-8" x1="286" y1="496" x2="286" y2="19.576" xlink:href="#linear-gradient"/><linearGradient id="linear-gradient-9" x1="315" y1="496" x2="315" y2="19.576" xlink:href="#linear-gradient"/><linearGradient id="linear-gradient-10" x1="345" y1="496" x2="345" y2="19.576" xlink:href="#linear-gradient"/></defs><title>Delivery  Vehicle</title><path d="M382.744,333H364.517a19,19,0,0,0,0,38h18.227a19,19,0,0,0,0-38Zm0,24H364.517a5,5,0,0,1,0-10h18.227a5,5,0,0,1,0,10Z" style="fill:url(#linear-gradient)"/><path d="M129.256,371h18.227a19,19,0,0,0,0-38H129.256a19,19,0,0,0,0,38Zm0-24h18.227a5,5,0,0,1,0,10H129.256a5,5,0,0,1,0-10Z" style="fill:url(#linear-gradient-2)"/><path d="M431,377H420.962A29.051,29.051,0,0,0,424,364.253V303.51a6.988,6.988,0,0,0-2.041-4.949,6.1,6.1,0,0,0-.768-.741C418.363,295.373,398,275.747,384,262.236V253h9.469c9.374,0,16.531-7.967,16.531-17.341V159.944C410,150.57,402.843,143,393.469,143H384V51.677C384,38.779,371.909,28,357.416,28H154.938C140.445,28,129,38.779,129,51.677V143H118.428C109.054,143,101,150.57,101,159.944v75.715A17.684,17.684,0,0,0,118.428,253H129v8.7c-14,13.6-35.349,33.816-38.059,36.191A7.1,7.1,0,0,0,88,303.51v.886c0,.026,0,.052,0,.078s0,.051,0,.077v59.7A29.052,29.052,0,0,0,91.039,377H81c-3.866,0-7,2.67-7,6.537v22.176A26.316,26.316,0,0,0,100.284,432H112v22.729C112,470.711,124.711,484,140.694,484h.335c12.713,0,23.532-9,27.43-20h5.291c9.859,0,17.25-10.016,17.25-22.9V432H321v9.1c0,12.881,7.391,22.9,17.25,22.9h5.291c3.9,11,14.717,20,27.43,20h.335C387.289,484,400,470.711,400,454.729V432h11.716A26.316,26.316,0,0,0,438,405.713V383.537C438,379.67,434.866,377,431,377Zm-195,0V362h40v15ZM102,311h88.913C208.32,311,222,325.635,222,343.041V377H114.265C107.492,377,102,371.026,102,364.253Zm188,66V354.665c0-.018,0-.036,0-.054s0-.035,0-.053V343.041C290,325.635,303.673,311,321.08,311H410v53.253c0,6.773-5.491,12.747-12.265,12.747ZM143,153.43a14.466,14.466,0,0,1,.643-2.064A30.245,30.245,0,0,1,173.18,127H339.725a30.491,30.491,0,0,1,29.768,24.366c.091.456.507.921.507,1.337V243.54c0,.669-.328,1.38-.328,2.119s.328,1.45.328,2.118V258H143Zm253,6.514v75.715c0,1.654-.877,3.341-2.531,3.341H384V157h9.469C395.123,157,396,158.29,396,159.944ZM143,51.677C143,46.586,148.279,42,154.938,42H357.416C364.075,42,370,46.586,370,51.677V124.82A45.1,45.1,0,0,0,339.725,113H173.18A43.4,43.4,0,0,0,143,125.342ZM118.428,239A3.7,3.7,0,0,1,115,235.659V159.944c0-1.654,1.774-2.944,3.428-2.944H129v82Zm19.87,33H373.7c3.432,3,10.713,10.057,18.029,17.071,2.935,2.814,5.868,5.929,8.568,7.929H321.08C295.953,297,276,317.915,276,343.041V348H236v-4.959C236,317.915,216.04,297,190.913,297H111.66a104.053,104.053,0,0,0,8.572-7.926C127.561,282.057,134.861,275,138.3,272ZM92.153,297.111a6.864,6.864,0,0,0-.731.371A7.058,7.058,0,0,1,92.153,297.111ZM93.9,296.6c-.135.021-.265.055-.4.084C93.639,296.653,93.764,296.62,93.9,296.6Zm-.927.211c-.164.048-.322.109-.48.169C92.653,296.919,92.8,296.86,92.977,296.809ZM141.029,470h-.335C132.431,470,126,462.992,126,454.729V432h30v22.729A15.237,15.237,0,0,1,141.029,470ZM177,441.1c0,5.981-2.566,8.9-3.25,8.9H170V432h7Zm158,0V432h7v18h-3.75C337.566,450,335,447.084,335,441.1Zm51,13.626c0,8.263-6.431,15.271-14.694,15.271h-.335A15.237,15.237,0,0,1,356,454.729V432h30Zm38-49.016A12.3,12.3,0,0,1,411.716,418H100.284A12.3,12.3,0,0,1,88,405.713V391H424Z" style="fill:url(#linear-gradient-3)"/><path d="M174,63.191a7,7,0,0,0-14,0V96.08a7,7,0,0,0,14,0Z" style="fill:url(#linear-gradient-4)"/><path d="M197,103.08a7,7,0,0,0,7-7V63.191a7,7,0,0,0-14,0V96.08A7,7,0,0,0,197,103.08Z" style="fill:url(#linear-gradient-5)"/><path d="M226,103.08a7,7,0,0,0,7-7V63.191a7,7,0,0,0-14,0V96.08A7,7,0,0,0,226,103.08Z" style="fill:url(#linear-gradient-6)"/><path d="M256,103.08a7,7,0,0,0,7-7V63.191a7,7,0,0,0-14,0V96.08A7,7,0,0,0,256,103.08Z" style="fill:url(#linear-gradient-3)"/><path d="M286,103.08a7,7,0,0,0,7-7V63.191a7,7,0,0,0-14,0V96.08A7,7,0,0,0,286,103.08Z" style="fill:url(#linear-gradient-8)"/><path d="M315,102.214a7,7,0,0,0,7-7V62.327a7,7,0,0,0-14,0V95.214A7,7,0,0,0,315,102.214Z" style="fill:url(#linear-gradient-9)"/><path d="M345,102.214a7,7,0,0,0,7-7V62.327a7,7,0,0,0-14,0V95.214A7,7,0,0,0,345,102.214Z" style="fill:url(#linear-gradient-10)"/></svg>
