<?xml version="1.0"?>
<svg xmlns="http://www.w3.org/2000/svg" xmlns:xlink="http://www.w3.org/1999/xlink" id="Layer_1" data-name="Layer 1" viewBox="0 0 512 512" width="512" height="512"><defs><linearGradient id="linear-gradient" x1="385" y1="494" x2="385" y2="28.606" gradientUnits="userSpaceOnUse"><stop offset="0.322" stop-color="#a163f5"/><stop offset="0.466" stop-color="#b074ee"/><stop offset="0.752" stop-color="#d8a1dd"/><stop offset="0.898" stop-color="#efbad3"/></linearGradient><linearGradient id="linear-gradient-2" x1="421.5" y1="494" x2="421.5" y2="28.606" xlink:href="#linear-gradient"/><linearGradient id="linear-gradient-3" x1="274.999" y1="494" x2="274.999" y2="28.606" xlink:href="#linear-gradient"/><linearGradient id="linear-gradient-4" x1="273.181" y1="494" x2="273.181" y2="28.606" xlink:href="#linear-gradient"/><linearGradient id="linear-gradient-5" x1="138.046" y1="494" x2="138.046" y2="28.606" xlink:href="#linear-gradient"/></defs><title>Distribution Logistic</title><path d="M491.982,191.985a6.982,6.982,0,0,0-.074-.728c-.01-.063-.017-.126-.029-.189a6.87,6.87,0,0,0-.221-.886c-.009-.029-.022-.056-.031-.085a7.138,7.138,0,0,0-.316-.772c-.027-.056-.052-.111-.08-.165a6.752,6.752,0,0,0-.463-.784c-.022-.033-.048-.063-.071-.1a7.084,7.084,0,0,0-.518-.639c-.028-.031-.049-.066-.078-.1L458.4,154.01a6.822,6.822,0,0,0-5.1-2.01H317.861a6.822,6.822,0,0,0-5.014,1.919l-32.861,33.633a6.87,6.87,0,0,0-1.973,4.77c0,.087-.013.122-.013.209v32.024a7,7,0,0,0,.739,3.131c.014.028.168.063.183.091A28.516,28.516,0,0,0,301,243.418v80.556A24.846,24.846,0,0,0,325.909,349H444.091A24.846,24.846,0,0,0,469,323.974v-80.55a28.521,28.521,0,0,0,22.081-15.653,7.154,7.154,0,0,0,.919-3.216V192.338c0-.042-.006-.083-.006-.126C491.992,192.136,491.986,192.061,491.982,191.985ZM320.814,166H450.272l18.543,19H301.592ZM373,335H351V302h22Zm71.091,0H387V295.078c0-3.867-2.679-7.078-6.545-7.078H344.091A7.144,7.144,0,0,0,337,295.078V335H325.909A10.831,10.831,0,0,1,315,323.974V242.091a27.2,27.2,0,0,0,10.137-6.153,29.622,29.622,0,0,0,39.889.135A29.494,29.494,0,0,0,385.009,244H385A29.528,29.528,0,0,0,405,236.075a29.446,29.446,0,0,0,39.866-.095A27.117,27.117,0,0,0,455,242.1v81.875A10.831,10.831,0,0,1,444.091,335ZM465,229.737a15.269,15.269,0,0,1-13.786-8.4,7,7,0,0,0-6.219-3.779h0a7.008,7.008,0,0,0-6.22,3.787,15.514,15.514,0,0,1-27.518.078,7,7,0,0,0-6.215-3.866,7.1,7.1,0,0,0-6.267,3.787,15.514,15.514,0,0,1-27.558,0c-.018-.034-.039.148-.058.114A6.8,6.8,0,0,0,364.994,218h-.059a6.756,6.756,0,0,0-6.159,3.562,15.539,15.539,0,0,1-27.56-.167,7,7,0,0,0-12.443-.026A15.525,15.525,0,0,1,292,222.705V199H478v23.693A15.225,15.225,0,0,1,465,229.737Z" style="fill:url(#linear-gradient)"/><path d="M442,277a7,7,0,0,0-7-7H408a7,7,0,0,0-7,7v27a7,7,0,0,0,7,7h27a7,7,0,0,0,7-7Zm-14,20H415V284h13Z" style="fill:url(#linear-gradient-2)"/><path d="M172.343,95.163a7,7,0,0,0,9.133-3.819,88.125,88.125,0,0,1,167.541,14.508L331.545,108.5a7,7,0,0,0-3.222,12.467l24.556,18.911a7,7,0,0,0,9.994-1.515l17.85-25.337a7,7,0,0,0-6.772-10.952l-11.078,1.679a101.133,101.133,0,0,0-27.7-51.1,102.147,102.147,0,0,0-166.65,33.372A7,7,0,0,0,172.343,95.163ZM355.634,124.33l-5.772-4.446,8.239-1.248.032,0c.024,0,.046-.009.069-.013l1.628-.246Z" style="fill:url(#linear-gradient-3)"/><path d="M371.868,389.449a7,7,0,0,0-7.488,6.476,88.125,88.125,0,0,1-163.713,38.451l15.776-7.963a7,7,0,0,0-.825-12.85L186.39,403.251a7,7,0,0,0-9.024,4.555l-9.06,29.639a7,7,0,0,0,9.848,8.3l10-5.049a102.308,102.308,0,0,0,88.234,50.958,102.238,102.238,0,0,0,101.953-94.713A7,7,0,0,0,371.868,389.449ZM188.62,418.883l6.87,2.424-7.437,3.754-.032.014c-.018.008-.033.019-.05.028l-1.481.747Z" style="fill:url(#linear-gradient-4)"/><path d="M228,350.242V234.35l16.137,11.695a6.875,6.875,0,0,0,9.661-1.62,7.011,7.011,0,0,0-1.672-9.766L142.247,156.065a7.023,7.023,0,0,0-8.152,0L23.941,234.654a7,7,0,0,0,4.066,12.7,6.356,6.356,0,0,0,3.85-1.3L48,234.381V350.242c0,3.866,3.554,6.758,7.42,6.758H220.58C224.446,357,228,354.108,228,350.242ZM178,269H98V258h80ZM98,283h80v12H98Zm0,26h80v11H98Zm0,25h80v9H98Zm94,9V250.8a7.035,7.035,0,0,0-7.231-6.8H91.231A7.035,7.035,0,0,0,84,250.8V343H62V224.392l76.142-54.031L214,224.333V343Z" style="fill:url(#linear-gradient-5)"/></svg>
