<?xml version="1.0"?>
<svg xmlns="http://www.w3.org/2000/svg" xmlns:xlink="http://www.w3.org/1999/xlink" id="Layer_1" data-name="Layer 1" viewBox="0 0 512 512" width="512" height="512"><defs><linearGradient id="linear-gradient" x1="303" y1="494" x2="303" y2="28.606" gradientUnits="userSpaceOnUse"><stop offset="0.322" stop-color="#a163f5"/><stop offset="0.466" stop-color="#b074ee"/><stop offset="0.752" stop-color="#d8a1dd"/><stop offset="0.898" stop-color="#efbad3"/></linearGradient><linearGradient id="linear-gradient-2" x1="79.376" y1="494" x2="79.376" y2="28.606" xlink:href="#linear-gradient"/><linearGradient id="linear-gradient-3" x1="69.376" y1="494" x2="69.376" y2="28.606" xlink:href="#linear-gradient"/><linearGradient id="linear-gradient-4" x1="89.376" y1="494" x2="89.376" y2="28.606" xlink:href="#linear-gradient"/><linearGradient id="linear-gradient-5" x1="229.5" y1="494" x2="229.5" y2="28.606" xlink:href="#linear-gradient"/></defs><title>Fast Delivery </title><path d="M484.6,239.249c-.008-.106-.019-.211-.032-.316-.015-.121-.034-.24-.055-.36s-.04-.217-.065-.324-.055-.226-.087-.338-.061-.216-.1-.322-.077-.218-.119-.326-.082-.208-.128-.31-.1-.209-.151-.313-.1-.2-.159-.3-.116-.2-.177-.291-.129-.2-.2-.294-.128-.175-.195-.261-.159-.2-.242-.292c-.038-.043-.071-.09-.111-.133l-51.517-56.229A27.16,27.16,0,0,0,411.372,170H338V147.63A26.63,26.63,0,0,0,311.1,121H147.624A26.4,26.4,0,0,0,121,147.63V329.37A26.4,26.4,0,0,0,147.624,356h18.6a41.991,41.991,0,0,0,82.81,0h107.19a41.991,41.991,0,0,0,82.81,0h18.6C472.512,356,485,344.257,485,329.37V239.8c0-.057-.195-.113-.2-.17C484.8,239.505,484.606,239.377,484.6,239.249ZM411.372,184a13.223,13.223,0,0,1,9.577,4.406L461.7,233H338V184ZM135,329.37V147.63A12.386,12.386,0,0,1,147.624,135H311.1A12.616,12.616,0,0,1,324,147.63V342H249.029c-3.343-19-20.632-35-41.4-35s-38.062,16-41.4,35H147.624A12.386,12.386,0,0,1,135,329.37Zm72.624,48a28,28,0,1,1,28-28A28.032,28.032,0,0,1,207.624,377.37Zm190,0a28,28,0,1,1,28-28A28.032,28.032,0,0,1,397.624,377.37Zm73.376-48c0,7.168-6.208,12.63-13.376,12.63h-18.6c-3.343-19-20.632-35-41.4-35s-38.062,16-41.405,35H338V247H471Z" style="fill:url(#linear-gradient)"/><path d="M104.376,224h-50a7,7,0,1,0,0,14h50a7,7,0,0,0,0-14Z" style="fill:url(#linear-gradient-2)"/><path d="M104.376,274h-70a7,7,0,1,0,0,14h70a7,7,0,0,0,0-14Z" style="fill:url(#linear-gradient-3)"/><path d="M104.376,174h-30a7,7,0,0,0,0,14h30a7,7,0,0,0,0-14Z" style="fill:url(#linear-gradient-4)"/><path d="M175.505,251.111l50.356,29.071a7,7,0,0,0,7,0l50.494-29.071A7.136,7.136,0,0,0,287,245.049V186.907a7.136,7.136,0,0,0-3.642-6.062l-50.424-29.071a7.063,7.063,0,0,0-7.035,0l-50.376,29.071A7.02,7.02,0,0,0,172,186.907v58.142A7,7,0,0,0,175.505,251.111ZM186,199.028l36,20.988V262l-36-20.988Zm43.363,8.864-11.67-6.738,36.349-20.986,11.67,6.737ZM236,262v-41.98l37-20.988v41.98Zm-6.637-96.077,10.679,6.166-36.349,20.986-10.679-6.166Z" style="fill:url(#linear-gradient-5)"/></svg>
