<?xml version="1.0"?>
<svg xmlns="http://www.w3.org/2000/svg" xmlns:xlink="http://www.w3.org/1999/xlink" id="Layer_1" data-name="Layer 1" viewBox="0 0 512 512" width="512" height="512"><defs><linearGradient id="linear-gradient" x1="256" y1="494" x2="256" y2="28.606" gradientUnits="userSpaceOnUse"><stop offset="0.322" stop-color="#a163f5"/><stop offset="0.466" stop-color="#b074ee"/><stop offset="0.752" stop-color="#d8a1dd"/><stop offset="0.898" stop-color="#efbad3"/></linearGradient><linearGradient id="linear-gradient-2" x1="382.5" y1="494" x2="382.5" y2="28.606" xlink:href="#linear-gradient"/></defs><title>Fragile  Box</title><path d="M389.228,75.7A23.336,23.336,0,0,0,369.271,65H142.729a23.336,23.336,0,0,0-19.957,10.7L50.1,189.589A6.6,6.6,0,0,0,49,193.23V423.818C49,436.868,59.617,447,72.667,447H439.333C452.383,447,463,436.868,463,423.818V193.23a6.6,6.6,0,0,0-1.1-3.641Zm-11.806,7.41L443.236,186H263V79H369.271A9.305,9.305,0,0,1,377.422,83.113Zm-242.844,0A9.305,9.305,0,0,1,142.729,79H249V186H68.764ZM285,433H227V266.086l58,37.722Zm154.333,0H299V300.019a7.057,7.057,0,0,0-3.23-5.862l-71.8-46.863A7.107,7.107,0,0,0,213,253.155V433H72.667C67.336,433,63,429.148,63,423.818V200H449V423.818C449,429.148,444.664,433,439.333,433Z" style="fill:url(#linear-gradient)"/><path d="M416.789,260H347.508c-3.866,0-6.508,3.113-6.508,6.979v63.507c0,20.574,15,37.7,34,41.04V410H362.251a7,7,0,0,0,0,14h39.794a7,7,0,1,0,0-14H389V371.526a41.681,41.681,0,0,0,35-41.04V266.979A7.165,7.165,0,0,0,416.789,260ZM410,330.486A27.654,27.654,0,0,1,382.254,358h.193A27.4,27.4,0,0,1,355,330.486V274h12v28.178a7.033,7.033,0,0,0,9.391,6.592l7.539-2.691-3.15,18.8a7,7,0,1,0,13.809,2.317l5.127-30.559a7.008,7.008,0,0,0-9.282-7.75L381,292.244V274h29Z" style="fill:url(#linear-gradient-2)"/></svg>
