<?xml version="1.0"?>
<svg xmlns="http://www.w3.org/2000/svg" xmlns:xlink="http://www.w3.org/1999/xlink" id="Layer_1" data-name="Layer 1" viewBox="0 0 512 512" width="512" height="512"><defs><linearGradient id="linear-gradient" x1="58" y1="494" x2="58" y2="19.658" gradientUnits="userSpaceOnUse"><stop offset="0.322" stop-color="#a163f5"/><stop offset="0.466" stop-color="#b074ee"/><stop offset="0.752" stop-color="#d8a1dd"/><stop offset="0.898" stop-color="#efbad3"/></linearGradient><linearGradient id="linear-gradient-2" x1="256" y1="494" x2="256" y2="19.658" xlink:href="#linear-gradient"/><linearGradient id="linear-gradient-3" x1="322" y1="494" x2="322" y2="19.658" xlink:href="#linear-gradient"/><linearGradient id="linear-gradient-4" x1="421.731" y1="494" x2="421.731" y2="19.658" xlink:href="#linear-gradient"/><linearGradient id="linear-gradient-5" x1="96" y1="494" x2="96" y2="19.658" xlink:href="#linear-gradient"/><linearGradient id="linear-gradient-6" x1="134" y1="494" x2="134" y2="19.658" xlink:href="#linear-gradient"/><linearGradient id="linear-gradient-7" x1="172" y1="494" x2="172" y2="19.658" xlink:href="#linear-gradient"/><linearGradient id="linear-gradient-8" x1="210" y1="494" x2="210" y2="19.658" xlink:href="#linear-gradient"/><linearGradient id="linear-gradient-9" x1="248" y1="494" x2="248" y2="19.658" xlink:href="#linear-gradient"/></defs><title>Fragile  Items</title><path d="M58,422.877a7,7,0,0,0-7,7v12.131a7,7,0,0,0,14,0V429.877A7,7,0,0,0,58,422.877Z" style="fill:url(#linear-gradient)"/><path d="M492.9,182.7a6.951,6.951,0,0,0-.166-.766c-.009-.037-.017-.074-.028-.111a6.976,6.976,0,0,0-.316-.854c-.019-.043-.041-.085-.062-.128a6.868,6.868,0,0,0-.38-.7c-.017-.029-.03-.061-.049-.09L408.326,49.022A25.974,25.974,0,0,0,386.262,37H125.738a25.974,25.974,0,0,0-22.064,12.022L20.1,180.092c-.019.029-.032.042-.049.071a6.827,6.827,0,0,0-.381.692c-.02.042-.042.079-.061.121a6.961,6.961,0,0,0-.316.853c-.011.036-.019.072-.028.109a6.7,6.7,0,0,0-.166.767c-.012.071-.024.14-.033.212a7,7,0,0,0-.064.9V448.991A26.062,26.062,0,0,0,45.167,475H466.833A26.062,26.062,0,0,0,493,448.991V183.815a7,7,0,0,0-.064-.9C492.927,182.845,492.915,182.775,492.9,182.7ZM263,51H386.262a12.125,12.125,0,0,1,10.259,5.64L473.236,177H263Zm22,140v96.35l-58-28.906V191ZM115.479,56.64A12.125,12.125,0,0,1,125.738,51H249V177H38.764ZM479,448.991A12.047,12.047,0,0,1,466.833,461H45.167A12.047,12.047,0,0,1,33,448.991V191H213v71.744a7.231,7.231,0,0,0,4.076,6.244l71.158,36a7.244,7.244,0,0,0,3.224.756,7.985,7.985,0,0,0,3.936-1.035A7.266,7.266,0,0,0,299,298.744V191H479Z" style="fill:url(#linear-gradient-2)"/><path d="M285,332.1v45a37.12,37.12,0,0,0,30,36.326V435H304.5a7,7,0,0,0,0,14h34.463a7,7,0,0,0,0-14H329V413.428A37.12,37.12,0,0,0,359,377.1v-45a7.32,7.32,0,0,0-7.269-7.1h-60A6.862,6.862,0,0,0,285,332.1Zm14,6.9h46v38.1a23,23,0,0,1-46,0Z" style="fill:url(#linear-gradient-3)"/><path d="M381.731,379H415v53.4a2.5,2.5,0,1,1-5,0v-4.891a7,7,0,1,0-14,0V432.4a16.5,16.5,0,1,0,33,0V379h32.731a7.135,7.135,0,0,0,7-7.157,47,47,0,1,0-94,0A7.136,7.136,0,0,0,381.731,379Zm40-40a32.9,32.9,0,0,1,32.253,26h-64.5A32.9,32.9,0,0,1,421.731,339Z" style="fill:url(#linear-gradient-4)"/><path d="M96,422.877a7,7,0,0,0-7,7v12.131a7,7,0,1,0,14,0V429.877A7,7,0,0,0,96,422.877Z" style="fill:url(#linear-gradient-5)"/><path d="M134,422.877a7,7,0,0,0-7,7v12.131a7,7,0,1,0,14,0V429.877A7,7,0,0,0,134,422.877Z" style="fill:url(#linear-gradient-6)"/><path d="M172,422.877a7,7,0,0,0-7,7v12.131a7,7,0,1,0,14,0V429.877A7,7,0,0,0,172,422.877Z" style="fill:url(#linear-gradient-7)"/><path d="M210,422.877a7,7,0,0,0-7,7v12.131a7,7,0,1,0,14,0V429.877A7,7,0,0,0,210,422.877Z" style="fill:url(#linear-gradient-8)"/><path d="M248,422.877a7,7,0,0,0-7,7v12.131a7,7,0,1,0,14,0V429.877A7,7,0,0,0,248,422.877Z" style="fill:url(#linear-gradient-9)"/></svg>
