<?xml version="1.0"?>
<svg xmlns="http://www.w3.org/2000/svg" xmlns:xlink="http://www.w3.org/1999/xlink" id="Layer_1" data-name="Layer 1" viewBox="0 0 512 512" width="512" height="512"><defs><linearGradient id="linear-gradient" x1="152.226" y1="494" x2="152.226" y2="28.606" gradientUnits="userSpaceOnUse"><stop offset="0.322" stop-color="#a163f5"/><stop offset="0.466" stop-color="#b074ee"/><stop offset="0.752" stop-color="#d8a1dd"/><stop offset="0.898" stop-color="#efbad3"/></linearGradient><linearGradient id="linear-gradient-2" x1="376.75" y1="494" x2="376.75" y2="28.606" xlink:href="#linear-gradient"/><linearGradient id="linear-gradient-3" x1="377" y1="494" x2="377" y2="28.606" xlink:href="#linear-gradient"/></defs><title>Global Call Support</title><path d="M260.636,266.275a6.985,6.985,0,0,0-1.313-1.523c-.032-.028-.068-.051-.1-.079A142.922,142.922,0,0,0,156.6,216.621a6.942,6.942,0,0,0-1.5-.037c-.959-.019-1.919-.036-2.882-.036s-1.922.017-2.881.036a6.99,6.99,0,0,0-1.5.037A142.922,142.922,0,0,0,45.225,264.679c-.04.033-.082.061-.121.1a6.978,6.978,0,0,0-1.278,1.488,142.956,142.956,0,0,0,0,187.022,6.978,6.978,0,0,0,1.278,1.488c.039.034.081.063.121.1a142.921,142.921,0,0,0,102.591,48.057,6.981,6.981,0,0,0,.965.075c.184,0,.365-.023.548-.038.963.019,1.928.037,2.9.037s1.933-.018,2.9-.037c.182.015.363.038.547.038a6.981,6.981,0,0,0,.965-.075,142.925,142.925,0,0,0,102.6-48.069c.027-.023.058-.038.085-.062a6.945,6.945,0,0,0,1.314-1.524,142.953,142.953,0,0,0,0-187ZM254.4,438.914A141.2,141.2,0,0,0,228.5,418a192.632,192.632,0,0,0,8.347-51h44.411A128.295,128.295,0,0,1,254.4,438.914ZM23.191,367H67.6A192.515,192.515,0,0,0,76,418.088,143.277,143.277,0,0,0,50.078,439,128.514,128.514,0,0,1,23.191,367Zm26.887-86.17A143.26,143.26,0,0,0,76,301.747,193.741,193.741,0,0,0,67.6,353H23.191A129.044,129.044,0,0,1,50.078,280.83ZM159,323.338a141.478,141.478,0,0,0,56.862-14.489A176.956,176.956,0,0,1,222.837,353H159Zm0-14.012v-76c24,13.292,41.421,34.882,52.166,62.041A124.894,124.894,0,0,1,159,309.326Zm-14-76V309.3a130.353,130.353,0,0,1-52.111-14.075C103.64,268.132,122,246.593,145,233.323Zm0,89.991V353H81.615a177.453,177.453,0,0,1,6.792-44.3A141.674,141.674,0,0,0,145,323.314ZM81.614,367H145v29.229a142,142,0,0,0-56.593,14.847A183.163,183.163,0,0,1,81.614,367ZM145,410.246v75.987c-23-13.273-41.361-34.815-52.112-61.911A130.512,130.512,0,0,1,145,410.246Zm14,75.987V410.219a124.768,124.768,0,0,1,52.168,13.964C200.423,451.345,183,472.938,159,486.233Zm0-90.026V367h63.838a182.817,182.817,0,0,1-6.974,43.922A141.574,141.574,0,0,0,159,396.207ZM236.85,353a193.879,193.879,0,0,0-8.35-51.175,141.117,141.117,0,0,0,25.9-20.91A128.824,128.824,0,0,1,281.261,353Zm8.348-82.882a127.52,127.52,0,0,1-21.577,18.075c-8.709-21.193-21.481-39.282-37.707-53.182A129.329,129.329,0,0,1,245.2,270.118ZM118.539,235.011c-16.2,13.874-28.951,31.92-37.659,53.061a128.986,128.986,0,0,1-21.6-17.976A129.317,129.317,0,0,1,118.539,235.011ZM59.275,449.452a128.979,128.979,0,0,1,21.6-17.976c8.706,21.138,21.459,39.183,37.651,53.058A129.328,129.328,0,0,1,59.275,449.452Zm126.648,35.082c16.223-13.9,28.993-31.989,37.7-53.178A127.493,127.493,0,0,1,245.2,449.43,129.325,129.325,0,0,1,185.923,484.534Z" style="fill:url(#linear-gradient)"/><path d="M376.751,19a106.237,106.237,0,0,0-74.577,181.911l-24.455,55.157a7,7,0,0,0,9.964,8.862l62.268-36.848A106.258,106.258,0,1,0,376.751,19Zm0,198.5a91.9,91.9,0,0,1-25.836-3.675,7,7,0,0,0-5.531.694l-46,27.218,17.6-39.689a7,7,0,0,0-1.732-8.055,92.236,92.236,0,1,1,61.5,23.507Z" style="fill:url(#linear-gradient-2)"/><path d="M427.478,90.387,380.262,63.132a7.011,7.011,0,0,0-7.006,0L326.275,90.387A6.8,6.8,0,0,0,323,96.449v54.508a6.8,6.8,0,0,0,3.272,6.062l47.093,27.253a6.781,6.781,0,0,0,3.443.938,6.882,6.882,0,0,0,3.471-.938l47.213-27.253A7.007,7.007,0,0,0,431,150.957V96.449A7.019,7.019,0,0,0,427.478,90.387Zm-50.727,25.229L366.685,109.8l33.2-19.169,10.066,5.812Zm0-38.339,9.136,5.275-33.2,19.17-9.136-5.275ZM337,108.569l33,19.171v38.346l-33-19.171Zm47,57.517V127.74l33-19.171v38.346Z" style="fill:url(#linear-gradient-3)"/></svg>
