<?xml version="1.0"?>
<svg xmlns="http://www.w3.org/2000/svg" xmlns:xlink="http://www.w3.org/1999/xlink" id="Layer_1" data-name="Layer 1" viewBox="0 0 512 512" width="512" height="512"><defs><linearGradient id="linear-gradient" x1="256.053" y1="496" x2="256.053" y2="19.576" gradientUnits="userSpaceOnUse"><stop offset="0.322" stop-color="#a163f5"/><stop offset="0.466" stop-color="#b074ee"/><stop offset="0.752" stop-color="#d8a1dd"/><stop offset="0.898" stop-color="#efbad3"/></linearGradient><linearGradient id="linear-gradient-2" x1="377.788" y1="496" x2="377.788" y2="19.576" xlink:href="#linear-gradient"/><linearGradient id="linear-gradient-3" x1="378" y1="496" x2="378" y2="19.576" xlink:href="#linear-gradient"/></defs><title>Global Logistic app</title><path d="M424.715,31H330.86A37.74,37.74,0,0,0,293,69.019v26.8a208.762,208.762,0,0,0-44.746-4.933c-109.752,0-199.148,87.563-199.148,195.192S138.343,481.266,248.1,481.266a200.051,200.051,0,0,0,138.268-54.809c36.321-34.415,57.672-80.288,60.422-129.527A38.244,38.244,0,0,0,463,265.667V69.019A38.1,38.1,0,0,0,424.715,31ZM63.151,293h68.381c.668,28,5.361,54.5,13.667,78.317a194.8,194.8,0,0,0-39.443,30.409A178.818,178.818,0,0,1,63.151,293Zm42.6-122.67A194.791,194.791,0,0,0,145.2,200.738C136.893,224.56,132.2,251,131.532,279H63.151A178.666,178.666,0,0,1,105.755,170.33ZM293,209.175a199.231,199.231,0,0,1-38,5.131V106.744c14,7.059,26,16.052,38,26.808ZM241,214.3a188.648,188.648,0,0,1-78.371-19.933C178.747,155.508,206,124.913,241,106.751Zm0,14.009V279H145.54c.644-26,4.81-49.687,12.17-71.5A205.441,205.441,0,0,0,241,228.31ZM145.54,293H241v50.838a205.364,205.364,0,0,0-83.29,20.738C150.35,342.761,146.184,319,145.54,293ZM241,357.847V465.4c-35-18.162-62.253-48.757-78.371-87.617A188.648,188.648,0,0,1,241,357.847Zm14,0a185.8,185.8,0,0,1,78.2,20.217,193.394,193.394,0,0,1-10.938,22.266C305.663,429.18,283,451.041,255,465.405Zm0-14.009V293h49.167a37.1,37.1,0,0,0,26.693,11h19.193a243.479,243.479,0,0,1-11.889,60.931A202.6,202.6,0,0,0,255,343.841ZM255,279V228.321a213.588,213.588,0,0,0,38-4.787v42.133A36.9,36.9,0,0,0,295,279ZM307,81H449V227H307Zm23.86-36h93.855c12.878,0,23.442,10,24.232,22H306.628C307.418,55,317.982,45,330.86,45ZM293,114.809c-3-2.229-5.449-4.375-8.268-6.431,2.771.538,5.268,1.135,8.268,1.8Zm-81.241-6.42c-26.83,19.569-47.716,46.669-61.455,79.158a180.733,180.733,0,0,1-35.076-27.5A186.048,186.048,0,0,1,211.759,108.389ZM115.228,412.1A180.733,180.733,0,0,1,150.3,384.6c13.739,32.489,34.625,59.589,61.454,79.158A186.049,186.049,0,0,1,115.228,412.1Zm261.479,4.2a185.341,185.341,0,0,1-92.52,47.518,182.02,182.02,0,0,0,50.243-56.5,206.677,206.677,0,0,0,11.076-22.376,181.614,181.614,0,0,1,34.93,27.712C379.21,413.88,377.972,415.1,376.707,416.3Zm13.245-13.934a195.557,195.557,0,0,0-39.326-30.641A251.936,251.936,0,0,0,364.073,304h60.642a38.347,38.347,0,0,0,7.542-.774A177.849,177.849,0,0,1,389.952,402.361ZM424.715,290H330.86A23.994,23.994,0,0,1,307,265.667V241H449v24.667A24.354,24.354,0,0,1,424.715,290Z" style="fill:url(#linear-gradient)"/><path d="M392.257,259H363.318a7,7,0,0,0,0,14h28.939a7,7,0,1,0,0-14Z" style="fill:url(#linear-gradient-2)"/><path d="M431.394,116.125,381.341,87.257a7.046,7.046,0,0,0-7.026,0l-49.908,28.868A6.913,6.913,0,0,0,321,122.187v57.734a6.9,6.9,0,0,0,3.394,6.062l49.947,28.868a6.924,6.924,0,0,0,6.96,0l50.1-28.868a7.093,7.093,0,0,0,3.6-6.062V122.187A7.1,7.1,0,0,0,431.394,116.125Zm-53.606,26.842L366.3,136.333l36-20.783,11.491,6.635Zm0-41.565,10.506,6.066-36,20.782-10.506-6.065ZM335,134.307l36,20.785v41.573L335,175.88Zm50,62.358V155.092l36-20.785V175.88Z" style="fill:url(#linear-gradient-3)"/></svg>
