<?xml version="1.0"?>
<svg xmlns="http://www.w3.org/2000/svg" xmlns:xlink="http://www.w3.org/1999/xlink" id="Layer_1" data-name="Layer 1" viewBox="0 0 512 512" width="512" height="512"><defs><linearGradient id="linear-gradient" x1="256.001" y1="496" x2="256.001" y2="19.576" gradientUnits="userSpaceOnUse"><stop offset="0.322" stop-color="#a163f5"/><stop offset="0.466" stop-color="#b074ee"/><stop offset="0.752" stop-color="#d8a1dd"/><stop offset="0.898" stop-color="#efbad3"/></linearGradient><linearGradient id="linear-gradient-2" x1="335.526" y1="496" x2="335.526" y2="19.576" xlink:href="#linear-gradient"/><linearGradient id="linear-gradient-3" x1="282.908" y1="496" x2="282.908" y2="19.576" xlink:href="#linear-gradient"/><linearGradient id="linear-gradient-4" x1="229.092" y1="496" x2="229.092" y2="19.576" xlink:href="#linear-gradient"/></defs><title>International delivery</title><path d="M398.83,220.327a64.28,64.28,0,0,0,4.027-26.955,68.522,68.522,0,0,0-20.367-44.216,67.246,67.246,0,0,0-93.928,0c-.2.2-.4.413-.6.617a134.394,134.394,0,0,0-46.276-8.145C168.523,141.628,109,200.021,109,271.8s59.523,130.166,132.686,130.166c.9,0,1.791-.016,2.683-.033.166.012.329.035.5.035a6.9,6.9,0,0,0,.927-.07c71.271-2.137,128.581-59.672,128.581-130.1,0-3.31-.156-11.411-.521-17.516l9.649-10.072A69.841,69.841,0,0,0,398.83,220.327Zm-63.3-76.288a52.626,52.626,0,0,1,37.148,15.1,54.536,54.536,0,0,1,16.215,35.188,50.357,50.357,0,0,1-3.179,21.116,55.964,55.964,0,0,1-12.318,19.081l-37.866,39.524L297.66,234.522a55.969,55.969,0,0,1-12.318-19.08,50.38,50.38,0,0,1-3.179-21.117,54.533,54.533,0,0,1,16.216-35.188A52.622,52.622,0,0,1,335.526,144.039ZM123.222,279H163.1a169.431,169.431,0,0,0,8.371,47.625,130.313,130.313,0,0,0-22.726,17.481A115.487,115.487,0,0,1,123.222,279Zm25.52-79.26a130.3,130.3,0,0,0,22.726,17.48A170.536,170.536,0,0,0,163.1,265H123.222A113.213,113.213,0,0,1,148.742,199.74Zm157.473,64.052c.017.367.032.208.046,1.208H249V236.3a132.427,132.427,0,0,0,28.944-4.668,74.852,74.852,0,0,0,9.685,12.631ZM189.256,332.974A122.29,122.29,0,0,1,235,321.3V385.1C214,373.66,199.109,355.593,189.256,332.974ZM235,307.274a135.83,135.83,0,0,0-50.822,12.648A160.389,160.389,0,0,1,177.109,279H235ZM177.109,265a154.632,154.632,0,0,1,7.069-41.127A135.63,135.63,0,0,0,235,236.316V265ZM235,158.486v63.807a122.328,122.328,0,0,1-45.744-11.677C199.11,188,214,169.929,235,158.486Zm36.837,60.265A129.957,129.957,0,0,1,249,222.275v-63.8a111.249,111.249,0,0,1,22.793,17.709,68.334,68.334,0,0,0-3.441,17.189A64.053,64.053,0,0,0,271.837,218.751Zm-95.212-14.962A115.772,115.772,0,0,1,158.2,189.307,119.326,119.326,0,0,1,208,160.4,126.075,126.075,0,0,0,176.625,203.789Zm0,136.011A126.069,126.069,0,0,0,208,383.187,119.321,119.321,0,0,1,158.2,354.282,115.887,115.887,0,0,1,176.625,339.8ZM249,385.1V321.3a120.369,120.369,0,0,1,45.656,11.871C284.8,355.7,269,373.694,249,385.1Zm57.623-45.026a116.371,116.371,0,0,1,18.227,14.51,119.348,119.348,0,0,1-49.475,28.6A126.019,126.019,0,0,0,306.623,340.078ZM249,307.277V279h57.263a160.621,160.621,0,0,1-6.819,41.115A137.192,137.192,0,0,0,249,307.277ZM277.887,162.7c-.843-.791-1.692-1.573-2.555-2.337q1.683.486,3.351,1.023C278.408,161.821,278.151,162.264,277.887,162.7ZM360.373,271.8a114.084,114.084,0,0,1-26.024,72.5,130.552,130.552,0,0,0-22.537-17.5,169.953,169.953,0,0,0,8.481-48.415l10.179,10.625a7,7,0,0,0,10.109,0l19.759-20.625C360.361,269.708,360.373,270.882,360.373,271.8Z" style="fill:url(#linear-gradient)"/><path d="M335.526,225.991a32.854,32.854,0,1,0-32.692-32.854A32.81,32.81,0,0,0,335.526,225.991Zm0-51.707a18.854,18.854,0,1,1-18.692,18.853A18.794,18.794,0,0,1,335.526,174.284Z" style="fill:url(#linear-gradient-2)"/><path d="M467.476,158.764a7,7,0,0,0-3.758,9.159A224.694,224.694,0,0,1,126.573,437.857l31.746-43.086a7,7,0,0,0-6.537-11.094L76.914,393.4a7,7,0,0,0-6,8.138l12.9,74.387a7,7,0,0,0,12.532,2.956l21.922-29.751A238.661,238.661,0,0,0,495,254.463a237.066,237.066,0,0,0-18.366-91.942A7,7,0,0,0,467.476,158.764ZM94.806,457.37,85.96,406.343l51.357-6.67-26.073,35.388c-.021.026-.045.05-.065.077-.034.045-.061.093-.094.138Z" style="fill:url(#linear-gradient-3)"/><path d="M31,257.537A224.667,224.667,0,0,1,385.427,74.143l-31.746,43.086a7,7,0,0,0,6.537,11.094l74.868-9.723a7,7,0,0,0,6-8.138l-12.9-74.387a7,7,0,0,0-12.532-2.956L393.732,62.87A238.661,238.661,0,0,0,17,257.537a237.066,237.066,0,0,0,18.366,91.942,7,7,0,0,0,12.916-5.4A223.126,223.126,0,0,1,31,257.537ZM417.194,54.63l8.846,51.027-51.357,6.67L400.756,76.94c.021-.027.045-.051.065-.078.034-.045.061-.093.094-.138Z" style="fill:url(#linear-gradient-4)"/></svg>
