<?xml version="1.0"?>
<svg xmlns="http://www.w3.org/2000/svg" xmlns:xlink="http://www.w3.org/1999/xlink" id="Layer_1" data-name="Layer 1" viewBox="0 0 512 512" width="512" height="512"><defs><linearGradient id="linear-gradient" x1="262.282" y1="488.621" x2="262.282" y2="30.768" gradientUnits="userSpaceOnUse"><stop offset="0.322" stop-color="#a163f5"/><stop offset="0.466" stop-color="#b074ee"/><stop offset="0.752" stop-color="#d8a1dd"/><stop offset="0.898" stop-color="#efbad3"/></linearGradient><linearGradient id="linear-gradient-2" x1="41" y1="488.621" x2="41" y2="30.768" xlink:href="#linear-gradient"/><linearGradient id="linear-gradient-3" x1="69" y1="488.621" x2="69" y2="30.768" xlink:href="#linear-gradient"/><linearGradient id="linear-gradient-4" x1="98" y1="488.621" x2="98" y2="30.768" xlink:href="#linear-gradient"/><linearGradient id="linear-gradient-5" x1="126" y1="488.621" x2="126" y2="30.768" xlink:href="#linear-gradient"/><linearGradient id="linear-gradient-6" x1="155" y1="488.621" x2="155" y2="30.768" xlink:href="#linear-gradient"/><linearGradient id="linear-gradient-7" x1="263.715" y1="488.621" x2="263.715" y2="30.768" xlink:href="#linear-gradient"/><linearGradient id="linear-gradient-8" x1="256" y1="488.621" x2="256" y2="30.768" xlink:href="#linear-gradient"/></defs><title>International package</title><path d="M244.854,293.881a7.185,7.185,0,0,0,6.292-3.687L255,283.247V343.42a7,7,0,1,0,14,0V273.051l5.69,6.154a6.927,6.927,0,0,0,9.835.285,7,7,0,0,0,.255-9.9l-17.915-18.959a7.01,7.01,0,0,0-11.267,1.49l-16.9,31.44a7,7,0,0,0,6.158,10.316Z" style="fill:url(#linear-gradient)"/><path d="M41,338.45a7,7,0,0,0-7,7v25.92a7,7,0,0,0,14,0V345.45A7,7,0,0,0,41,338.45Z" style="fill:url(#linear-gradient-2)"/><path d="M69,357.65a7,7,0,0,0-7,7V388a7,7,0,0,0,14,0V364.65A7,7,0,0,0,69,357.65Z" style="fill:url(#linear-gradient-3)"/><path d="M98,376.85a7,7,0,0,0-7,7v20.56a7,7,0,0,0,14,0V383.85A7,7,0,0,0,98,376.85Z" style="fill:url(#linear-gradient-4)"/><path d="M126,396.05a7,7,0,0,0-7,7v17.77a7,7,0,0,0,14,0V403.05A7,7,0,0,0,126,396.05Z" style="fill:url(#linear-gradient-5)"/><path d="M155,415.25a7,7,0,0,0-7,7v15.36a7,7,0,0,0,14,0V422.25A7,7,0,0,0,155,415.25Z" style="fill:url(#linear-gradient-6)"/><path d="M276.16,353.467l-31.89,18.41a7,7,0,1,0,7,12.125l31.89-18.41a7,7,0,0,0-7-12.125Z" style="fill:url(#linear-gradient-7)"/><path d="M503,376.22a102.79,102.79,0,0,0-25.237-67.513c-.075-.1-.157-.19-.238-.284l-.027-.032c-.034-.04-.07-.078-.105-.117-.05-.055-.095-.113-.148-.167l-.013-.012A103.232,103.232,0,0,0,407,273.464V135.55a7.031,7.031,0,0,0-3.539-6.083L211.5,18.638a7,7,0,0,0-7,0L12.628,129.415A7,7,0,0,0,9,135.55v240.9a7,7,0,0,0,3.5,6.062l192,110.85a7,7,0,0,0,7,0l103.141-59.541a102.559,102.559,0,0,0,7.587,9.91c.08.1.166.2.252.3l.025.028c.03.035.061.068.092.1.053.059.1.121.158.178l.015.014a103.287,103.287,0,0,0,73.939,34.806,6.9,6.9,0,0,0,.847.055c.115,0,.229-.018.344-.023.7.013,1.4.025,2.1.025.741,0,1.479-.012,2.224-.027.074,0,.148.015.222.015.23,0,.46-.016.69-.039a103.282,103.282,0,0,0,74.1-34.813l.013-.013c.053-.053.1-.111.148-.166.033-.038.067-.074.1-.112l.027-.032c.083-.1.166-.191.243-.29A102.856,102.856,0,0,0,503,376.22Zm-46.854,39.926A133.907,133.907,0,0,0,461.625,383h27.083a87.372,87.372,0,0,1-16.9,45.629A100.474,100.474,0,0,0,456.146,416.146ZM328.224,428.819a89.893,89.893,0,0,1-5.216-8.053A86.071,86.071,0,0,1,311.286,383h27.088a134.106,134.106,0,0,0,5.506,33.238A103.084,103.084,0,0,0,328.224,428.819ZM99,191.648l35,19.976V339.933l-13.2-14.878a7.232,7.232,0,0,0-8.075-1.845L99,328.816Zm7.21-12.118L284.191,76.772l34.935,20.17L141.141,199.7Zm226.916-74.5L385.98,135.54,208,238.3l-52.859-30.518ZM471.807,323.543A90.057,90.057,0,0,1,488.708,369H461.625a140.675,140.675,0,0,0-5.48-32.965A100.664,100.664,0,0,0,471.807,323.543ZM447.593,369H407V352.513a102.1,102.1,0,0,0,36.554-9.432A123.225,123.225,0,0,1,447.593,369Zm-136.3,0a90.1,90.1,0,0,1,16.923-45.486,101.678,101.678,0,0,0,15.671,12.427A140.767,140.767,0,0,0,338.375,369ZM393,290.748v47.7a88.769,88.769,0,0,1-31.977-8.692C368.074,312.851,378.974,299.558,393,290.748Zm-44.14,31.839A88.145,88.145,0,0,1,337.386,313a89.246,89.246,0,0,1,30.708-19.836A101.05,101.05,0,0,0,348.86,322.587Zm7.616,20.388A103.088,103.088,0,0,0,393,352.486V369H352.406A123.474,123.474,0,0,1,356.476,342.975Zm50.524-4.5V290.746c14.058,8.826,24.974,22.154,32.024,39.107A88.031,88.031,0,0,1,407,338.471Zm-192-88.05L393,147.653V273.464A103.223,103.223,0,0,0,322.767,308.1l-.012.011c-.047.048-.087.1-.132.149s-.077.084-.115.127l-.029.036c-.083.1-.165.189-.241.287a102.989,102.989,0,0,0-14.651,113.021L215,475.176ZM352.406,383H393v16.965a102.844,102.844,0,0,0-36.529,9.29A125.752,125.752,0,0,1,352.406,383ZM393,414.01V461.7c-14.028-8.809-24.931-22.1-31.986-39.008A88.97,88.97,0,0,1,393,414.01ZM407,461.7v-47.73a87.862,87.862,0,0,1,32.023,8.63C431.97,439.555,421.054,452.882,407,461.7Zm0-61.783V383h40.594a125.344,125.344,0,0,1-4.039,26.152A101.2,101.2,0,0,0,407,399.921Zm55.637-86.9a87.187,87.187,0,0,1-11.457,9.647,101.078,101.078,0,0,0-19.261-29.5A89.277,89.277,0,0,1,462.637,313.018ZM208,32.783l62.191,35.906L92.205,171.45,30.02,135.541ZM23,147.654l62,35.917V339.28a7.135,7.135,0,0,0,9.821,6.47l18.654-7.691,22.058,25.046a7.013,7.013,0,0,0,5.262,2.375,7.563,7.563,0,0,0,2.574-.451A7.1,7.1,0,0,0,148,358.48V219.707l53,30.714V475.176L23,372.409Zm314.389,291.8a88.507,88.507,0,0,1,11.465-9.584,101.115,101.115,0,0,0,19.215,29.4A89.356,89.356,0,0,1,337.389,439.453Zm94.546,19.814a101.1,101.1,0,0,0,19.245-29.479,86.929,86.929,0,0,1,11.455,9.642A89.361,89.361,0,0,1,431.935,459.267Z" style="fill:url(#linear-gradient-8)"/></svg>
