<?xml version="1.0"?>
<svg xmlns="http://www.w3.org/2000/svg" xmlns:xlink="http://www.w3.org/1999/xlink" id="Layer_1" data-name="Layer 1" viewBox="0 0 512 512" width="512" height="512"><defs><linearGradient id="linear-gradient" x1="256" y1="496" x2="256" y2="19.576" gradientUnits="userSpaceOnUse"><stop offset="0.322" stop-color="#a163f5"/><stop offset="0.466" stop-color="#b074ee"/><stop offset="0.752" stop-color="#d8a1dd"/><stop offset="0.898" stop-color="#efbad3"/></linearGradient><linearGradient id="linear-gradient-2" x1="256" y1="496" x2="256" y2="19.576" xlink:href="#linear-gradient"/></defs><title>Locations</title><path d="M372.229,98.636a164.119,164.119,0,0,0-232.458,0A174.618,174.618,0,0,0,89.352,210.3a164.614,164.614,0,0,0,9.941,67.762c7.866,21.558,20.666,41.875,38.045,60.385L250.9,459.4a7,7,0,0,0,10.208,0L374.662,338.447c17.38-18.512,30.18-38.829,38.045-60.385a164.619,164.619,0,0,0,9.941-67.762A174.612,174.612,0,0,0,372.229,98.636Zm27.326,174.627c-7.213,19.769-19.022,38.476-35.1,55.6L256,444.386,147.545,328.865c-16.077-17.124-27.886-35.831-35.1-55.6a150.7,150.7,0,0,1-9.125-62.029,160.618,160.618,0,0,1,46.369-102.716,150.118,150.118,0,0,1,212.623,0A160.617,160.617,0,0,1,408.68,211.234,150.723,150.723,0,0,1,399.555,273.263Z" style="fill:url(#linear-gradient)"/><path d="M256,90c-63.919,0-115.922,53.314-115.922,118.847S192.081,327.7,256,327.7,371.922,274.38,371.922,208.847,319.92,90,256,90Zm0,223.7c-56.2,0-101.922-47.035-101.922-104.848S199.8,104,256,104s101.922,47.034,101.922,104.847S312.2,313.7,256,313.7Z" style="fill:url(#linear-gradient-2)"/><path d="M301.165,173.312l-58.859,56.221L210.95,198.177a7,7,0,0,0-9.9,9.9l36.194,36.194a7,7,0,0,0,9.785.112l63.806-60.945a7,7,0,0,0-9.67-10.125Z" style="fill:url(#linear-gradient-2)"/></svg>
