<?xml version="1.0"?>
<svg xmlns="http://www.w3.org/2000/svg" xmlns:xlink="http://www.w3.org/1999/xlink" id="Layer_1" data-name="Layer 1" viewBox="0 0 512 512" width="512" height="512"><defs><linearGradient id="linear-gradient" x1="156.5" y1="494" x2="156.5" y2="19.658" gradientUnits="userSpaceOnUse"><stop offset="0.322" stop-color="#a163f5"/><stop offset="0.466" stop-color="#b074ee"/><stop offset="0.752" stop-color="#d8a1dd"/><stop offset="0.898" stop-color="#efbad3"/></linearGradient><linearGradient id="linear-gradient-2" x1="361" y1="494" x2="361" y2="19.658" xlink:href="#linear-gradient"/><linearGradient id="linear-gradient-3" x1="256" y1="494" x2="256" y2="19.658" xlink:href="#linear-gradient"/></defs><title>Logistic boxes</title><path d="M78,340H235a7,7,0,0,0,7-7V204a7,7,0,0,0-7-7H78a7,7,0,0,0-7,7V333A7,7,0,0,0,78,340Zm62-129h32v27.068l-13.355-5.775a6.667,6.667,0,0,0-5.415,0L140,238.068Zm-55,0h41v37.719a6.828,6.828,0,0,0,9.579,6.426l20.336-8.8,20.352,8.8A6.97,6.97,0,0,0,186,248.719V211h42V326H85Z" style="fill:url(#linear-gradient)"/><path d="M273,204V333a7,7,0,0,0,7,7H442a7,7,0,0,0,7-7V204a7,7,0,0,0-7-7H280A7,7,0,0,0,273,204Zm70,7h37v27.49l-16.178-6.3a6.415,6.415,0,0,0-4.84,0L343,238.49Zm-56,0h42v37.719a6.719,6.719,0,0,0,9.215,6.525l23.158-9.015,23.183,9.015A6.936,6.936,0,0,0,394,248.719V211h42V326H287Z" style="fill:url(#linear-gradient-2)"/><path d="M175,169H337a7,7,0,0,0,7-7V33a7,7,0,0,0-7-7H175a7,7,0,0,0-7,7V162A7,7,0,0,0,175,169ZM238,40h36V66.821l-15.686-6.25a6.081,6.081,0,0,0-4.75,0L238,66.821Zm-56,0h42V77.088a6.68,6.68,0,0,0,9.193,6.516l22.868-9,22.9,9a6.9,6.9,0,0,0,2.54.484,6.229,6.229,0,0,0,3.695-1.217A6.778,6.778,0,0,0,288,77.088V40h42V155H182Z" style="fill:url(#linear-gradient-3)"/><path d="M419,384h57a7,7,0,0,0,0-14H36a7,7,0,0,0,0,14H93v88H36a7,7,0,0,0,0,14H476a7,7,0,0,0,0-14H419V384Zm-14,53.182V472H341V437.182a7,7,0,0,0-14,0V472H263V437.182a7,7,0,0,0-14,0V472H185V437.182a7,7,0,0,0-14,0V472H107V384h26v35.12a7,7,0,0,0,14,0V384h64v35.12a7,7,0,0,0,14,0V384h64v35.12a7,7,0,0,0,14,0V384h64v35.12a7,7,0,0,0,14,0V384h24Z" style="fill:url(#linear-gradient-3)"/></svg>
