<?xml version="1.0"?>
<svg xmlns="http://www.w3.org/2000/svg" xmlns:xlink="http://www.w3.org/1999/xlink" id="Layer_1" data-name="Layer 1" viewBox="0 0 512 512" width="512" height="512"><defs><linearGradient id="linear-gradient" x1="159.5" y1="494" x2="159.5" y2="28.606" gradientUnits="userSpaceOnUse"><stop offset="0.322" stop-color="#a163f5"/><stop offset="0.466" stop-color="#b074ee"/><stop offset="0.752" stop-color="#d8a1dd"/><stop offset="0.898" stop-color="#efbad3"/></linearGradient><linearGradient id="linear-gradient-2" x1="58.5" y1="494" x2="58.5" y2="28.606" xlink:href="#linear-gradient"/><linearGradient id="linear-gradient-3" x1="210.829" y1="494" x2="210.829" y2="28.606" xlink:href="#linear-gradient"/><linearGradient id="linear-gradient-4" x1="358.885" y1="494" x2="358.885" y2="28.606" xlink:href="#linear-gradient"/><linearGradient id="linear-gradient-5" x1="364" y1="494" x2="364" y2="28.606" xlink:href="#linear-gradient"/></defs><title>Logistic Data</title><path d="M191,249a7,7,0,0,0-7-7H135a7,7,0,0,0-7,7v81a7,7,0,0,0,7,7h49a7,7,0,0,0,7-7Zm-13,73H142V256h36Z" style="fill:url(#linear-gradient)"/><path d="M90,191a7,7,0,0,0-7-7H34a7,7,0,0,0-7,7V329a7,7,0,0,0,7,7H83a7,7,0,0,0,7-7ZM77,322H41V198H77Z" style="fill:url(#linear-gradient-2)"/><path d="M236.862,133.6A34.915,34.915,0,0,0,294.3,96.922L332.2,62.179a34.906,34.906,0,1,0-4.4-16.936c0,.646.02,1.287.055,1.924L286.785,84.815a34.9,34.9,0,0,0-57.719,37.042l-39.185,33.048a34.884,34.884,0,0,0-57.423-2.82l-39.7-27.641a35.04,35.04,0,1,0-6.249,12.709L126.3,164.858a34.925,34.925,0,1,0,68.819,8.418,35.292,35.292,0,0,0-.267-4.25ZM362.731,24.317a20.926,20.926,0,1,1-20.925,20.926A20.95,20.95,0,0,1,362.731,24.317ZM261.463,87.906a20.926,20.926,0,1,1-20.926,20.926A20.95,20.95,0,0,1,261.463,87.906ZM58.926,136.7a20.926,20.926,0,1,1,20.926-20.925A20.95,20.95,0,0,1,58.926,136.7ZM160.194,194.2a20.926,20.926,0,1,1,20.926-20.926A20.95,20.95,0,0,1,160.194,194.2Z" style="fill:url(#linear-gradient-3)"/><path d="M394,256.974V120.141c0-3.866-2.674-7.141-6.54-7.141H338a7.124,7.124,0,0,0-7,7.141V257.505a135.922,135.922,0,0,0-38,17.567V183.479c0-3.867-2.941-7.479-6.808-7.479H236.734c-3.866,0-6.734,3.612-6.734,7.479v146A6.386,6.386,0,0,0,236.734,336h9.608a128.968,128.968,0,0,0-6.9,41.165c0,68.529,55.752,124.4,124.281,124.4S487.77,445.872,487.77,377.343C487.77,319.422,448,270.69,394,256.974ZM345,127h35V254.255a116.278,116.278,0,0,0-16.511-1.131A120.007,120.007,0,0,0,345,254.544ZM244,190h35v96.3A131.4,131.4,0,0,0,252.223,322H244ZM363.721,487.683A110.28,110.28,0,1,1,474,377.4,110.406,110.406,0,0,1,363.721,487.683Z" style="fill:url(#linear-gradient-4)"/><path d="M427.36,336.7l-60.069-34.641a7.063,7.063,0,0,0-7.035,0L300.378,336.7A6.889,6.889,0,0,0,297,342.762v69.282a6.873,6.873,0,0,0,3.36,6.062l59.931,34.641a6.9,6.9,0,0,0,6.947,0l60.131-34.641A7.125,7.125,0,0,0,431,412.044V342.762A7.134,7.134,0,0,0,427.36,336.7Zm-63.639,32.615-16.589-9.577,46-26.556,16.589,9.578Zm0-53.111,15.407,8.9-46,26.555-15.407-8.895ZM311,354.882l46,26.558v53.121L311,408Zm60,79.679V381.44l46-26.558V408Z" style="fill:url(#linear-gradient-5)"/></svg>
