<?xml version="1.0"?>
<svg xmlns="http://www.w3.org/2000/svg" xmlns:xlink="http://www.w3.org/1999/xlink" id="Layer_1" data-name="Layer 1" viewBox="0 0 512 512" width="512" height="512"><defs><linearGradient id="linear-gradient" x1="139.815" y1="494" x2="139.815" y2="23.485" gradientUnits="userSpaceOnUse"><stop offset="0.322" stop-color="#a163f5"/><stop offset="0.466" stop-color="#b074ee"/><stop offset="0.752" stop-color="#d8a1dd"/><stop offset="0.898" stop-color="#efbad3"/></linearGradient><linearGradient id="linear-gradient-2" x1="256" y1="494" x2="256" y2="23.485" xlink:href="#linear-gradient"/></defs><title>Logistic office</title><path d="M139.815,148.56A53.183,53.183,0,1,0,86.633,95.377,53.243,53.243,0,0,0,139.815,148.56Zm0-92.365a39.183,39.183,0,1,1-39.182,39.182A39.226,39.226,0,0,1,139.815,56.2Z" style="fill:url(#linear-gradient)"/><path d="M476,249H451V176.544a7,7,0,0,0-.125-1.3,7.015,7.015,0,0,0,.125-1.3V95.887A6.841,6.841,0,0,0,444.075,89H340.308A7.174,7.174,0,0,0,333,95.887v78.064a7.015,7.015,0,0,0,.125,1.3,7,7,0,0,0-.125,1.3V249h-8V176.544c0-3.866-3.417-6.544-7.283-6.544H235.486c-3.866,0-7.486,2.678-7.486,6.544V249h-1.992a75.169,75.169,0,0,0-75.028-67H127.636a75.169,75.169,0,0,0-75.029,67H36a7.221,7.221,0,0,0-7,7.254v53.795A6.958,6.958,0,0,0,36,317H54V462.805A7.5,7.5,0,0,0,61.375,470H450.118A7.07,7.07,0,0,0,457,462.805V317h19a6.958,6.958,0,0,0,7-6.951V256.254A7.221,7.221,0,0,0,476,249ZM380,103h25v20H380Zm-33,0h19v27.024c0,3.867,2.646,6.976,6.512,6.976H411.87a7.091,7.091,0,0,0,7.13-6.976V103h18v67H347Zm58,81v20H380V184Zm-58,0h19v26.682c0,3.866,2.646,7.318,6.512,7.318H411.87a7.39,7.39,0,0,0,7.13-7.318V184h18v65H347Zm-78,0h15v20H269Zm-27,0h13v26.682A7.545,7.545,0,0,0,262.307,218H290.9a7.367,7.367,0,0,0,7.1-7.318V184h13v65H242ZM84.056,213.938A61.172,61.172,0,0,1,127.636,196H150.98a61.172,61.172,0,0,1,60.927,53H66.708A61.77,61.77,0,0,1,84.056,213.938ZM443,456H68V317H443Zm26-153H43V263H469Z" style="fill:url(#linear-gradient-2)"/></svg>
