<?xml version="1.0"?>
<svg xmlns="http://www.w3.org/2000/svg" xmlns:xlink="http://www.w3.org/1999/xlink" id="Layer_1" data-name="Layer 1" viewBox="0 0 512 512" width="512" height="512"><defs><linearGradient id="linear-gradient" x1="256" y1="494" x2="256" y2="28.606" gradientUnits="userSpaceOnUse"><stop offset="0.322" stop-color="#a163f5"/><stop offset="0.466" stop-color="#b074ee"/><stop offset="0.752" stop-color="#d8a1dd"/><stop offset="0.898" stop-color="#efbad3"/></linearGradient><linearGradient id="linear-gradient-2" x1="168" y1="494" x2="168" y2="28.606" xlink:href="#linear-gradient"/><linearGradient id="linear-gradient-3" x1="265" y1="494" x2="265" y2="28.606" xlink:href="#linear-gradient"/><linearGradient id="linear-gradient-4" x1="350.5" y1="494" x2="350.5" y2="28.606" xlink:href="#linear-gradient"/></defs><title>Logistic  Operator</title><path d="M350.334,317.629a92.679,92.679,0,0,0-64.186,25.761L267,335.275V300h7.559a17.979,17.979,0,0,0,17.956-15h11.754A30.488,30.488,0,0,0,335,254.482V248h3.036A27.222,27.222,0,0,0,365,220.914V214h6.243a7,7,0,0,0,0-14H365v-5.478c0-13.077-10-23.989-22-26.325V154.713a28.034,28.034,0,0,0-21-26.993V118.8C322,58.278,273.023,9.039,212.5,9.039S103,58.278,103,118.8v33.661A25.465,25.465,0,0,0,85.694,171.2a32.38,32.38,0,0,0,20.4,38.642A108.485,108.485,0,0,0,162,299.554v35.721l-59,25.17c-.129.055-.269.114-.395.177a61.476,61.476,0,0,0-33.576,49.584c-.016.193-.031.388-.031.582V466.1a6.912,6.912,0,0,0,7,6.9H282.267c16.942,18,41.184,29.909,68.067,29.909a92.64,92.64,0,1,0,0-185.28ZM279,282.693A4.307,4.307,0,0,1,274.693,287H217.307A4.307,4.307,0,0,1,213,282.693v-7.386A4.307,4.307,0,0,1,217.307,271h57.386A4.307,4.307,0,0,1,279,275.307Zm42-28.211A16.473,16.473,0,0,1,304.269,271h-4.3a100.621,100.621,0,0,0,14.659-23.338c.106,0,.21.338.318.338H321ZM221.159,120.83c8.93,9.5,36.841,34.724,86.841,39.854v3.606c-19-.457-76.406-4.655-121.881-36.9l.633-.082A298.252,298.252,0,0,0,221.159,120.83ZM351,194.522v26.392A13.208,13.208,0,0,1,338.036,234H322V182h16.036A12.726,12.726,0,0,1,351,194.522Zm-22-39.809V168h-7V142.743A14.224,14.224,0,0,1,329,154.713ZM117,118.8c0-52.8,42.7-95.762,95.5-95.762S308,66,308,118.8v27.785c-37-4.161-60.1-20.4-71.261-30.247,18.725-6.144,34.7-14.222,47.7-24.19a6.993,6.993,0,1,0-8.5-11.109c-26.564,20.373-63.978,28.839-90.691,32.354A327.367,327.367,0,0,1,132.4,116.13a7.017,7.017,0,0,0-7.344,6.565l-2.28,37.428-5.25-2.8a1.031,1.031,0,0,1-.527-1Zm3,85.819v-.154a7.046,7.046,0,0,0-5.844-6.9A18.9,18.9,0,0,1,99.1,174.53a12.021,12.021,0,0,1,7.158-8.474,15.3,15.3,0,0,0,4.673,3.719l12.153,6.242a9.08,9.08,0,0,0,13.2-7.356c0-.044.007-.087.009-.131l2.33-38.241c6.034.056,15.631-.051,27.394-.889,31.215,26.769,69.571,38.645,96.522,43.9A272.3,272.3,0,0,0,308,178.308v45.265a94.525,94.525,0,0,1-19.379,39.8A18.153,18.153,0,0,0,274.559,257H217.194A17.888,17.888,0,0,0,199,274.9v6.9a18.319,18.319,0,0,0,12.121,17.211A94.574,94.574,0,0,1,120,204.62Zm94.245,108.459A106.38,106.38,0,0,0,253,305.867v29.764a96.1,96.1,0,0,1-77,0V306.053A107.265,107.265,0,0,0,214.245,313.079ZM83,459V411.089a47.4,47.4,0,0,1,25.673-37.854l59.9-25.566a110.855,110.855,0,0,0,92.072,0l15.813,6.749A92.3,92.3,0,0,0,271.6,459Zm267.334,29.961A78.666,78.666,0,1,1,429,410.3,78.755,78.755,0,0,1,350.334,488.961Z" style="fill:url(#linear-gradient)"/><path d="M168,177.545a7,7,0,0,0-7,7v14.992a7,7,0,1,0,14,0V184.545A7,7,0,0,0,168,177.545Z" style="fill:url(#linear-gradient-2)"/><path d="M265,206.537a7,7,0,0,0,7-7V184.545a7,7,0,1,0-14,0v14.992A7,7,0,0,0,265,206.537Z" style="fill:url(#linear-gradient-3)"/><path d="M404.343,375.163l-50.431-29.071a7.07,7.07,0,0,0-7.039,0L296.51,375.163a7.008,7.008,0,0,0-3.51,6.062v58.142a6.991,6.991,0,0,0,3.491,6.062L346.839,474.5a6.991,6.991,0,0,0,7,0l50.509-29.071A7.15,7.15,0,0,0,408,439.367V381.225A7.149,7.149,0,0,0,404.343,375.163Zm-54.009,27.045-11.67-6.737,36.349-20.986,11.67,6.738Zm0-41.971,10.679,6.165-36.349,20.986-10.679-6.165ZM307,393.345l36,20.988v41.98l-36-20.988Zm50,62.968v-41.98l37-20.988v41.98Z" style="fill:url(#linear-gradient-4)"/></svg>
