<?xml version="1.0"?>
<svg xmlns="http://www.w3.org/2000/svg" xmlns:xlink="http://www.w3.org/1999/xlink" id="Layer_1" data-name="Layer 1" viewBox="0 0 512 512" width="512" height="512"><defs><linearGradient id="linear-gradient" x1="196.957" y1="496" x2="196.957" y2="19.576" gradientUnits="userSpaceOnUse"><stop offset="0.322" stop-color="#a163f5"/><stop offset="0.466" stop-color="#b074ee"/><stop offset="0.752" stop-color="#d8a1dd"/><stop offset="0.898" stop-color="#efbad3"/></linearGradient><linearGradient id="linear-gradient-2" x1="255.944" y1="496" x2="255.944" y2="19.576" xlink:href="#linear-gradient"/><linearGradient id="linear-gradient-3" x1="197" y1="496" x2="197" y2="19.576" xlink:href="#linear-gradient"/><linearGradient id="linear-gradient-4" x1="379.908" y1="496" x2="379.908" y2="19.576" xlink:href="#linear-gradient"/><linearGradient id="linear-gradient-5" x1="301.298" y1="496" x2="301.298" y2="19.576" xlink:href="#linear-gradient"/><linearGradient id="linear-gradient-6" x1="414.746" y1="496" x2="414.746" y2="19.576" xlink:href="#linear-gradient"/><linearGradient id="linear-gradient-7" x1="335.608" y1="496" x2="335.608" y2="19.576" xlink:href="#linear-gradient"/><linearGradient id="linear-gradient-8" x1="401.823" y1="496" x2="401.823" y2="19.576" xlink:href="#linear-gradient"/><linearGradient id="linear-gradient-9" x1="322.884" y1="496" x2="322.884" y2="19.576" xlink:href="#linear-gradient"/></defs><title>Logistics Application Ipad</title><path d="M210.611,451H183.3a7,7,0,0,0,0,14h27.308a7,7,0,0,0,0-14Z" style="fill:url(#linear-gradient)"/><path d="M357.821,10.362A116.985,116.985,0,0,0,244.5,98H69.642A32.7,32.7,0,0,0,37,130.518V469.175A32.964,32.964,0,0,0,69.642,502H324.271A33.039,33.039,0,0,0,357,469.175V244.344s.591.018.954.018a117.076,117.076,0,0,0,116.934-117C474.888,62.848,422.335,10.362,357.821,10.362Zm-81.045,242.6a7.007,7.007,0,0,0,4.379,1.538,8.566,8.566,0,0,0,2.343-.327l21.5-6.736V420H89V154H243.921a117.351,117.351,0,0,0,33.294,58.115l-3.034,34.755A7.033,7.033,0,0,0,276.776,252.958ZM343,469.175A19.026,19.026,0,0,1,324.271,488H69.642A18.95,18.95,0,0,1,51,469.175V130.518A18.684,18.684,0,0,1,69.642,112H241.811a118.412,118.412,0,0,0-.99,15.3,113.6,113.6,0,0,0,.7,12.7H82.373A7.386,7.386,0,0,0,75,147.068V427.161c0,3.866,3.507,6.839,7.373,6.839H311.54c3.866,0,7.46-2.973,7.46-6.839V243l8.484-2.717A95.669,95.669,0,0,0,343,243.391Zm14.821-238.813a102.591,102.591,0,0,1-28.847-4.1,6.986,6.986,0,0,0-4.08.045L289.04,237.656l2.421-27.713a7,7,0,0,0-2.307-5.826,102.987,102.987,0,1,1,68.667,26.245Z" style="fill:url(#linear-gradient-2)"/><path d="M270.479,253.37l-70.011-40.415a7.008,7.008,0,0,0-7.006,0L123.481,253.37A6.981,6.981,0,0,0,120,259.432v80.829a6.978,6.978,0,0,0,3.479,6.062l69.989,40.414a6.984,6.984,0,0,0,6.992,0l70.02-40.414a7.019,7.019,0,0,0,3.52-6.062V259.432A7.018,7.018,0,0,0,270.479,253.37Zm-73.522,38.387-21.686-12.52,56-32.329,21.686,12.521Zm0-64.657,20.309,11.725-55.995,32.329-20.309-11.725ZM134,271.55l56,32.332v64.669l-56-32.332Zm70,97V303.882l56-32.332v64.669Z" style="fill:url(#linear-gradient-3)"/><path d="M424.889,85H334.928a7,7,0,0,0,0,14h89.961a7,7,0,0,0,0-14Z" style="fill:url(#linear-gradient-4)"/><path d="M290.753,99h21.09a7,7,0,0,0,0-14h-21.09a7,7,0,0,0,0,14Z" style="fill:url(#linear-gradient-5)"/><path d="M424.889,125H404.6a7,7,0,0,0,0,14h20.286a7,7,0,0,0,0-14Z" style="fill:url(#linear-gradient-6)"/><path d="M290.753,139h89.711a7,7,0,0,0,0-14H290.753a7,7,0,0,0,0,14Z" style="fill:url(#linear-gradient-7)"/><path d="M424.889,165H378.757a7,7,0,0,0,0,14h46.132a7,7,0,0,0,0-14Z" style="fill:url(#linear-gradient-8)"/><path d="M355.015,165H290.753a7,7,0,0,0,0,14h64.262a7,7,0,0,0,0-14Z" style="fill:url(#linear-gradient-9)"/></svg>
