<?xml version="1.0"?>
<svg xmlns="http://www.w3.org/2000/svg" xmlns:xlink="http://www.w3.org/1999/xlink" id="Layer_1" data-name="Layer 1" viewBox="0 0 512 512" width="512" height="512"><defs><linearGradient id="linear-gradient" x1="262.282" y1="488.621" x2="262.282" y2="30.768" gradientUnits="userSpaceOnUse"><stop offset="0.322" stop-color="#a163f5"/><stop offset="0.466" stop-color="#b074ee"/><stop offset="0.752" stop-color="#d8a1dd"/><stop offset="0.898" stop-color="#efbad3"/></linearGradient><linearGradient id="linear-gradient-2" x1="41" y1="488.621" x2="41" y2="30.768" xlink:href="#linear-gradient"/><linearGradient id="linear-gradient-3" x1="69" y1="488.621" x2="69" y2="30.768" xlink:href="#linear-gradient"/><linearGradient id="linear-gradient-4" x1="98" y1="488.621" x2="98" y2="30.768" xlink:href="#linear-gradient"/><linearGradient id="linear-gradient-5" x1="126" y1="488.621" x2="126" y2="30.768" xlink:href="#linear-gradient"/><linearGradient id="linear-gradient-6" x1="155" y1="488.621" x2="155" y2="30.768" xlink:href="#linear-gradient"/><linearGradient id="linear-gradient-7" x1="263.715" y1="488.621" x2="263.715" y2="30.768" xlink:href="#linear-gradient"/><linearGradient id="linear-gradient-8" x1="256" y1="488.621" x2="256" y2="30.768" xlink:href="#linear-gradient"/></defs><title>Logistics call center 2</title><path d="M244.854,293.881a7.185,7.185,0,0,0,6.292-3.687L255,283.247V343.42a7,7,0,1,0,14,0V273.051l5.69,6.155a6.929,6.929,0,0,0,9.836.284,7,7,0,0,0,.254-9.9l-17.915-18.96a7.011,7.011,0,0,0-11.267,1.491l-16.9,31.44a7,7,0,0,0,6.158,10.316Z" style="fill:url(#linear-gradient)"/><path d="M41,338.45a7,7,0,0,0-7,7v25.92a7,7,0,0,0,14,0V345.45A7,7,0,0,0,41,338.45Z" style="fill:url(#linear-gradient-2)"/><path d="M69,357.65a7,7,0,0,0-7,7V388a7,7,0,0,0,14,0V364.65A7,7,0,0,0,69,357.65Z" style="fill:url(#linear-gradient-3)"/><path d="M98,376.85a7,7,0,0,0-7,7v20.56a7,7,0,0,0,14,0V383.85A7,7,0,0,0,98,376.85Z" style="fill:url(#linear-gradient-4)"/><path d="M126,396.05a7,7,0,0,0-7,7v17.77a7,7,0,0,0,14,0V403.05A7,7,0,0,0,126,396.05Z" style="fill:url(#linear-gradient-5)"/><path d="M155,415.25a7,7,0,0,0-7,7v15.36a7,7,0,0,0,14,0V422.25A7,7,0,0,0,155,415.25Z" style="fill:url(#linear-gradient-6)"/><path d="M276.16,353.467l-31.89,18.41a7,7,0,1,0,7,12.125l31.89-18.41a7,7,0,1,0-7-12.125Z" style="fill:url(#linear-gradient-7)"/><path d="M478.852,362h-.208l-1.443-.066-.071-10.271A77.533,77.533,0,0,0,407,274.987V135.55a7.03,7.03,0,0,0-3.54-6.083L211.5,18.638a7,7,0,0,0-7,0L12.628,129.415A7,7,0,0,0,9,135.55v240.9a7,7,0,0,0,3.5,6.062l192,110.85a7,7,0,0,0,7,0l104.362-60.107a24.067,24.067,0,0,0,5.27.745h.222l19.74-.32a7.121,7.121,0,0,0,6.935-7.169l-.52-56.493a7.07,7.07,0,0,0-7-7.018h-.063l-4.266.1-.072-10.4C335.876,317.782,364.1,289,398.97,289h.977a63.454,63.454,0,0,1,63.183,62.9l.071,10.177-4.3,0a6.979,6.979,0,0,0-6.931,7.04l.52,56.4a6.492,6.492,0,0,0,2.1,4.706,6.8,6.8,0,0,0,4.9,1.778h.068l4.278.179.044,4.889a13.439,13.439,0,0,1-13.252,13.605l-10.074.074a19.575,19.575,0,0,0-18.419-12.4l-24.76.232A19.608,19.608,0,0,0,378,458.18v.191A19.627,19.627,0,0,0,397.5,478h.171l24.824-.33a19.7,19.7,0,0,0,18.2-12.864l10.044-.084a27.409,27.409,0,0,0,27.147-27.671l-.044-4.785,1.462-.015A23.924,23.924,0,0,0,503,408.105l-.21-22.482A23.9,23.9,0,0,0,478.852,362ZM208,238.3l-52.859-30.518L333.126,105.025,385.98,135.54ZM99,191.648l35,19.976V339.933l-13.195-14.878a7.229,7.229,0,0,0-8.076-1.845L99,328.816Zm7.21-12.118L284.191,76.772l34.935,20.17L141.141,199.7ZM208,32.783l62.191,35.906L92.206,171.449,30.02,135.541ZM23,147.654l62,35.917V339.28a7.136,7.136,0,0,0,9.822,6.47l18.652-7.691,22.059,25.046a7.01,7.01,0,0,0,5.262,2.375,7.553,7.553,0,0,0,2.573-.451A7.094,7.094,0,0,0,148,358.48V219.707l53,30.714V475.176L23,372.409ZM321.228,419.721a9.9,9.9,0,0,1-10.019-9.826L311,387.323a9.844,9.844,0,0,1,2.84-7.038,9.989,9.989,0,0,1,7-3.09l8.409-.195h.051l4.279.077.39,42.47Zm.882-67.073.073,10.649-1.48.014A23.928,23.928,0,0,0,297,387.455l.21,22.574a23.878,23.878,0,0,0,5.2,14.688L215,475.176V250.421L393,147.653v127.28A77.641,77.641,0,0,0,322.11,352.648ZM428,457.98c0,3.062-2.564,6.02-5.63,6.02H397.491A5.641,5.641,0,0,1,392,458.31v-.13a5.722,5.722,0,0,1,5.5-5.775l24.771-.4h.058a5.825,5.825,0,0,1,3.956,1.778A5.929,5.929,0,0,1,428,457.85Zm51.163-39.73-12.738.123-.391-42.331L478.77,376h.086a9.88,9.88,0,0,1,9.935,9.755L489,408.277A9.9,9.9,0,0,1,479.163,418.25Z" style="fill:url(#linear-gradient-8)"/></svg>
