<?xml version="1.0"?>
<svg xmlns="http://www.w3.org/2000/svg" xmlns:xlink="http://www.w3.org/1999/xlink" id="Layer_1" data-name="Layer 1" viewBox="0 0 512 512" width="512" height="512"><defs><linearGradient id="linear-gradient" x1="262.282" y1="488.621" x2="262.282" y2="30.768" gradientUnits="userSpaceOnUse"><stop offset="0.322" stop-color="#a163f5"/><stop offset="0.466" stop-color="#b074ee"/><stop offset="0.752" stop-color="#d8a1dd"/><stop offset="0.898" stop-color="#efbad3"/></linearGradient><linearGradient id="linear-gradient-2" x1="41" y1="488.621" x2="41" y2="30.768" xlink:href="#linear-gradient"/><linearGradient id="linear-gradient-3" x1="69" y1="488.621" x2="69" y2="30.768" xlink:href="#linear-gradient"/><linearGradient id="linear-gradient-4" x1="98" y1="488.621" x2="98" y2="30.768" xlink:href="#linear-gradient"/><linearGradient id="linear-gradient-5" x1="126" y1="488.621" x2="126" y2="30.768" xlink:href="#linear-gradient"/><linearGradient id="linear-gradient-6" x1="155" y1="488.621" x2="155" y2="30.768" xlink:href="#linear-gradient"/><linearGradient id="linear-gradient-7" x1="263.715" y1="488.621" x2="263.715" y2="30.768" xlink:href="#linear-gradient"/><linearGradient id="linear-gradient-8" x1="256" y1="488.621" x2="256" y2="30.768" xlink:href="#linear-gradient"/><linearGradient id="linear-gradient-9" x1="400.13" y1="488.621" x2="400.13" y2="30.768" xlink:href="#linear-gradient"/></defs><title>Logistics company</title><path d="M244.854,293.881a7.185,7.185,0,0,0,6.292-3.687L255,283.247V343.42a7,7,0,1,0,14,0V273.051l5.69,6.155a6.929,6.929,0,0,0,9.836.284,7,7,0,0,0,.254-9.9l-17.915-18.96a7.011,7.011,0,0,0-11.267,1.491l-16.9,31.44a7,7,0,0,0,6.158,10.316Z" style="fill:url(#linear-gradient)"/><path d="M41,338.45a7,7,0,0,0-7,7v25.92a7,7,0,0,0,14,0V345.45A7,7,0,0,0,41,338.45Z" style="fill:url(#linear-gradient-2)"/><path d="M69,357.65a7,7,0,0,0-7,7V388a7,7,0,0,0,14,0V364.65A7,7,0,0,0,69,357.65Z" style="fill:url(#linear-gradient-3)"/><path d="M98,376.85a7,7,0,0,0-7,7v20.56a7,7,0,0,0,14,0V383.85A7,7,0,0,0,98,376.85Z" style="fill:url(#linear-gradient-4)"/><path d="M126,396.05a7,7,0,0,0-7,7v17.77a7,7,0,0,0,14,0V403.05A7,7,0,0,0,126,396.05Z" style="fill:url(#linear-gradient-5)"/><path d="M155,415.25a7,7,0,0,0-7,7v15.36a7,7,0,0,0,14,0V422.25A7,7,0,0,0,155,415.25Z" style="fill:url(#linear-gradient-6)"/><path d="M276.16,353.467l-31.89,18.41a7,7,0,1,0,7,12.125l31.89-18.41a7,7,0,1,0-7-12.125Z" style="fill:url(#linear-gradient-7)"/><path d="M496.67,355.162l-15.97-1.537a82.861,82.861,0,0,0-7.812-18.581l10.133-12.228a7,7,0,0,0-.411-9.384l-19.629-19.88a7,7,0,0,0-9.445-.473l-12.267,10.156a84.686,84.686,0,0,0-18.543-7.837l-1.538-16.019A7.045,7.045,0,0,0,414.22,273H407V135.55a7.03,7.03,0,0,0-3.535-6.081L211.5,18.638a7,7,0,0,0-7,0L12.628,129.415A7,7,0,0,0,9,135.55v240.9a7,7,0,0,0,3.5,6.062l192,110.85a7,7,0,0,0,7.14-.083L317.8,428.649l-.816.985a7,7,0,0,0,.441,9.416l19.88,19.88a7,7,0,0,0,9.416.44l12.264-10.162a84.271,84.271,0,0,0,18.544,7.838l1.538,15.8A6.851,6.851,0,0,0,386.03,479h28.19a6.851,6.851,0,0,0,6.968-6.154l1.537-15.883a82.748,82.748,0,0,0,18.581-7.768l12.228,10.153a7,7,0,0,0,9.416-.429l19.88-19.875a7,7,0,0,0,.441-9.411l-10.157-12.266a84.622,84.622,0,0,0,7.839-18.548l15.726-1.533A7,7,0,0,0,503,390.32V362.13A7,7,0,0,0,496.67,355.162ZM386.03,273a7.045,7.045,0,0,0-6.968,6.379l-1.537,15.99a83.234,83.234,0,0,0-18.58,7.824l-12.231-10.121a7,7,0,0,0-9.414.445L317.42,313.4a7,7,0,0,0-.441,9.417l10.163,12.264a84.218,84.218,0,0,0-7.838,18.545l-15.974,1.537A7,7,0,0,0,297,362.13v28.19a7,7,0,0,0,6.329,6.968l15.967,1.536A82.211,82.211,0,0,0,322.98,409.1L215,474.843V250.421L393,147.653V273ZM99,191.648l35,19.976V339.933l-13.195-14.878a7.229,7.229,0,0,0-8.076-1.845L99,328.816Zm7.21-12.118L284.191,76.772l34.935,20.17L141.141,199.7Zm226.916-74.5L385.98,135.54,208,238.3l-52.859-30.518ZM208,32.783l62.191,35.906L92.206,171.449,30.02,135.541ZM23,147.654l62,35.917V339.28a7.136,7.136,0,0,0,9.822,6.47l18.652-7.691,22.059,25.046a7.01,7.01,0,0,0,5.262,2.375,7.553,7.553,0,0,0,2.573-.451A7.094,7.094,0,0,0,148,358.48V219.707l53,30.714V475.175L23,372.409ZM489,383.969l-14.309,1.394a7,7,0,0,0-6.162,5.483,70.812,70.812,0,0,1-9.862,23.36,7,7,0,0,0,.491,8.258l9.267,11.192-10.867,10.867-11.192-9.273a7,7,0,0,0-8.351-.432,68.215,68.215,0,0,1-23.262,9.8,6.8,6.8,0,0,0-5.49,6L407.861,465H392.389l-1.4-14.386a6.9,6.9,0,0,0-5.49-6.084,70.291,70.291,0,0,1-23.349-9.813,7,7,0,0,0-8.264.511l-11.192,9.284-10.865-10.86,9.274-11.188a7,7,0,0,0,.442-8.335c-1.236-1.863-2.363-3.75-3.35-5.61l0-.01a68.141,68.141,0,0,1-6.456-17.656,7,7,0,0,0-6.171-5.491L311,383.961V368.489l14.56-1.4a7,7,0,0,0,6.171-5.49,70.436,70.436,0,0,1,9.858-23.348,7,7,0,0,0-.488-8.266l-9.274-11.192,10.867-10.866,11.192,9.265a7,7,0,0,0,8.344.434,68.619,68.619,0,0,1,23.274-9.8,7.058,7.058,0,0,0,5.483-6.22l1.4-14.6h15.472l1.4,14.6a7.029,7.029,0,0,0,5.483,6.195,70.854,70.854,0,0,1,23.361,9.875,7,7,0,0,0,8.257-.486l11.16-9.236L468.2,318.76l-9.3,11.223a7,7,0,0,0-.431,8.354,68.216,68.216,0,0,1,9.8,23.26,7,7,0,0,0,6.171,5.491l14.56,1.4Z" style="fill:url(#linear-gradient-8)"/><path d="M400.13,319.22a57,57,0,1,0,57,57A57.065,57.065,0,0,0,400.13,319.22Zm0,100a43,43,0,1,1,43-43A43.048,43.048,0,0,1,400.13,419.22Z" style="fill:url(#linear-gradient-9)"/></svg>
