<?xml version="1.0"?>
<svg xmlns="http://www.w3.org/2000/svg" xmlns:xlink="http://www.w3.org/1999/xlink" id="Layer_1" data-name="Layer 1" viewBox="0 0 512 512" width="512" height="512"><defs><linearGradient id="linear-gradient" x1="210.753" y1="494" x2="210.753" y2="23.485" gradientUnits="userSpaceOnUse"><stop offset="0.322" stop-color="#a163f5"/><stop offset="0.466" stop-color="#b074ee"/><stop offset="0.752" stop-color="#d8a1dd"/><stop offset="0.898" stop-color="#efbad3"/></linearGradient><linearGradient id="linear-gradient-2" x1="256" y1="494" x2="256" y2="23.485" xlink:href="#linear-gradient"/><linearGradient id="linear-gradient-3" x1="330.5" y1="494" x2="330.5" y2="23.485" xlink:href="#linear-gradient"/></defs><title>Mobile application</title><path d="M188.553,431h44.4a7,7,0,0,0,0-14h-44.4a7,7,0,0,0,0,14Z" style="fill:url(#linear-gradient)"/><path d="M424.331,164.776,338,122.3V88c0-30.327-24.92-55-55.248-55h-144A54.851,54.851,0,0,0,84,88V424a54.851,54.851,0,0,0,54.752,55h144C313.08,479,338,454.327,338,424V356.78l57.188-39.133C413.726,305.021,428,277.582,428,255.183V171.061A6.78,6.78,0,0,0,424.331,164.776ZM98,88a40.836,40.836,0,0,1,40.752-41h144A41.259,41.259,0,0,1,324,88v1H98ZM324,424a41.259,41.259,0,0,1-41.248,41h-144A40.836,40.836,0,0,1,98,424V383H324Zm0-55H98V103H324v19.774l-85.829,41.873A7.24,7.24,0,0,0,234,170.936v84.247c0,9.481,2.706,20.049,7.591,30.562,6.252,13.454,15.765,25.082,25.777,31.9L324,356.105Zm90-113.817c0,17.64-12.214,40.947-26.818,50.894l-56,38.194-56.029-38.194c-7.986-5.439-15.667-15-20.886-26.232C250.3,271.292,248,262.533,248,255.183V175.3L331,134.7l83,40.728Z" style="fill:url(#linear-gradient-2)"/><path d="M327.252,165.765l-53.573,30.827A7.172,7.172,0,0,0,270,202.654V264.31a7.172,7.172,0,0,0,3.679,6.062L327.163,301.2a7.162,7.162,0,0,0,3.545.938,7.08,7.08,0,0,0,3.522-.938l53.332-30.828A6.941,6.941,0,0,0,391,264.31V202.654a6.932,6.932,0,0,0-3.426-6.062l-53.358-30.827A6.935,6.935,0,0,0,327.252,165.765ZM324,283.013l-40-22.744V214.775l40,22.745Zm53-22.744-39,22.744V237.52l39-22.745Zm-6.856-57.617L330.752,225.4l-13.221-7.634,39.392-22.743Zm-27.221-15.716-39.392,22.743-12.17-7.027,39.391-22.742Z" style="fill:url(#linear-gradient-3)"/></svg>
