<?xml version="1.0"?>
<svg xmlns="http://www.w3.org/2000/svg" xmlns:xlink="http://www.w3.org/1999/xlink" id="Layer_1" data-name="Layer 1" viewBox="0 0 512 512" width="512" height="512"><defs><linearGradient id="linear-gradient" x1="183.076" y1="494" x2="183.076" y2="23.485" gradientUnits="userSpaceOnUse"><stop offset="0.322" stop-color="#a163f5"/><stop offset="0.466" stop-color="#b074ee"/><stop offset="0.752" stop-color="#d8a1dd"/><stop offset="0.898" stop-color="#efbad3"/></linearGradient><linearGradient id="linear-gradient-2" x1="184.297" y1="494" x2="184.297" y2="23.485" xlink:href="#linear-gradient"/><linearGradient id="linear-gradient-3" x1="255.775" y1="494" x2="255.775" y2="23.485" xlink:href="#linear-gradient"/><linearGradient id="linear-gradient-4" x1="349" y1="494" x2="349" y2="23.485" xlink:href="#linear-gradient"/></defs><title>Mobile </title><path d="M159.843,440h46.466a7,7,0,0,0,0-14H159.843a7,7,0,1,0,0,14Z" style="fill:url(#linear-gradient)"/><path d="M184.3,188.052a49.778,49.778,0,1,0,49.777,49.778A49.834,49.834,0,0,0,184.3,188.052Zm0,85.555a35.778,35.778,0,1,1,35.777-35.777A35.817,35.817,0,0,1,184.3,273.607Z" style="fill:url(#linear-gradient-2)"/><path d="M348.642,21.759A112.563,112.563,0,0,0,293.5,36.074,57.064,57.064,0,0,0,258.426,24h-150.7C76.167,24,50,49.816,50,81.374V433.008C50,464.566,76.167,490,107.726,490h150.7C289.983,490,316,464.566,316,433.008V246.373l4.156-2.561A112.86,112.86,0,1,0,348.642,21.759ZM64,81.374C64,57.535,83.887,38,107.726,38h150.7a43.053,43.053,0,0,1,22.4,6.247A112.86,112.86,0,0,0,248.1,83H64ZM302,433.008C302,456.847,282.265,476,258.426,476h-150.7C83.887,476,64,456.847,64,433.008V390H302ZM113.744,376a69.984,69.984,0,0,1,138.662,0ZM302,376H266.516a83.984,83.984,0,0,0-166.881,0H64V97H242.111a114.6,114.6,0,0,0-6.335,37.542,113.079,113.079,0,0,0,33.874,80.641l-26.215,59.151a7.011,7.011,0,0,0,6.4,9.852,7.6,7.6,0,0,0,3.733-.973L302,254.658Zm46.642-142.509a98.532,98.532,0,0,1-27.69-3.938,6.984,6.984,0,0,0-5.531.693L265.1,260.021l19.36-43.667a7,7,0,0,0-1.733-8.055,98.853,98.853,0,1,1,65.911,25.192Z" style="fill:url(#linear-gradient-3)"/><path d="M412.32,92.271l-60.089-34.64a7.084,7.084,0,0,0-7.044,0l-59.844,34.64A6.859,6.859,0,0,0,282,98.334v69.282a6.839,6.839,0,0,0,3.32,6.063l59.911,34.64a6.838,6.838,0,0,0,3.456.938,6.914,6.914,0,0,0,3.477-.938l60.168-34.64A7.163,7.163,0,0,0,416,167.616V98.334A7.175,7.175,0,0,0,412.32,92.271Zm-63.678-20.5,15.407,8.9-46,26.555-15.407-8.9ZM342,190.133l-46-26.558V110.454l46,26.558Zm6.642-65.245-16.588-9.578,46-26.555,16.588,9.576ZM402,163.575l-46,26.558V137.012l46-26.558Z" style="fill:url(#linear-gradient-4)"/></svg>
