<?xml version="1.0"?>
<svg xmlns="http://www.w3.org/2000/svg" xmlns:xlink="http://www.w3.org/1999/xlink" id="Layer_1" data-name="Layer 1" viewBox="0 0 512 512" width="512" height="512"><defs><linearGradient id="linear-gradient" x1="224.365" y1="494" x2="224.365" y2="28.606" gradientUnits="userSpaceOnUse"><stop offset="0.322" stop-color="#a163f5"/><stop offset="0.466" stop-color="#b074ee"/><stop offset="0.752" stop-color="#d8a1dd"/><stop offset="0.898" stop-color="#efbad3"/></linearGradient><linearGradient id="linear-gradient-2" x1="225.183" y1="494" x2="225.183" y2="28.606" xlink:href="#linear-gradient"/><linearGradient id="linear-gradient-3" x1="256" y1="494" x2="256" y2="28.606" xlink:href="#linear-gradient"/><linearGradient id="linear-gradient-4" x1="400" y1="494" x2="400" y2="28.606" xlink:href="#linear-gradient"/></defs><title>Monitor Package</title><path d="M283.054,193.549a7,7,0,0,0-11.667-3.673,19.457,19.457,0,0,1-27.1-27.916c.375-.375.8-.767,1.278-1.165a7,7,0,0,0-2.3-12,59.927,59.927,0,1,0,39.792,44.753Zm-26.215,44.594a45.93,45.93,0,1,1-32.583-78.436q2.142,0,4.294.2a33.5,33.5,0,0,0,41.73,47.005A45.8,45.8,0,0,1,256.839,238.143Z" style="fill:url(#linear-gradient)"/><path d="M318.194,207.649a93.011,93.011,0,1,0-93.011,93.011A93.116,93.116,0,0,0,318.194,207.649ZM225.183,286.66a79.011,79.011,0,1,1,79.011-79.011A79.1,79.1,0,0,1,225.183,286.66Z" style="fill:url(#linear-gradient-2)"/><path d="M429.162,233.43a243.073,243.073,0,0,0,12.7-22.7,7,7,0,0,0,0-6.167,242.774,242.774,0,0,0-436.007,0,7,7,0,0,0,0,6.167,243.362,243.362,0,0,0,87.909,98.14,243.328,243.328,0,0,0,199.1,27.823,107,107,0,1,0,136.3-103.266ZM101.279,297.06a229.372,229.372,0,0,1-81.312-89.411,228.772,228.772,0,0,1,407.786,0,229.623,229.623,0,0,1-13.293,22.7,107.008,107.008,0,0,0-120.6,91.385A229.273,229.273,0,0,1,101.279,297.06Zm298.58,132.291a93,93,0,1,1,93-93A93.108,93.108,0,0,1,399.859,429.351Z" style="fill:url(#linear-gradient-3)"/><path d="M463.43,295.648,403.4,261.007a7.031,7.031,0,0,0-7.018,0l-59.939,34.641A6.941,6.941,0,0,0,333,301.71v69.282a6.935,6.935,0,0,0,3.43,6.062L396.4,411.7a6.949,6.949,0,0,0,6.973,0l60.066-34.641A7.062,7.062,0,0,0,467,370.992V301.71A7.065,7.065,0,0,0,463.43,295.648Zm-63.571,32.615-16.588-9.577,46-26.556,16.588,9.578Zm0-53.111,15.408,8.9-46,26.556-15.408-8.895ZM347,313.829l46,26.558v53.121L347,366.95Zm60,79.679V340.387l46-26.558V366.95Z" style="fill:url(#linear-gradient-4)"/></svg>
