<?xml version="1.0"?>
<svg xmlns="http://www.w3.org/2000/svg" xmlns:xlink="http://www.w3.org/1999/xlink" id="Layer_1" data-name="Layer 1" viewBox="0 0 512 512" width="512" height="512"><defs><linearGradient id="linear-gradient" x1="256.012" y1="494" x2="256.012" y2="28.606" gradientUnits="userSpaceOnUse"><stop offset="0.322" stop-color="#a163f5"/><stop offset="0.466" stop-color="#b074ee"/><stop offset="0.752" stop-color="#d8a1dd"/><stop offset="0.898" stop-color="#efbad3"/></linearGradient><linearGradient id="linear-gradient-2" x1="354" y1="494" x2="354" y2="28.606" xlink:href="#linear-gradient"/></defs><title>On time delivery</title><path d="M353.927,14.771A108.51,108.51,0,0,0,266.239,59H56a7.018,7.018,0,0,0-6.97,7.051A37.26,37.26,0,0,0,85,103.269v56.319a126,126,0,0,0,84.217,118.555A126,126,0,0,0,85,397.225v55.786a37.136,37.136,0,0,0-35.97,37.078A6.9,6.9,0,0,0,56,497H366.047a6.879,6.879,0,0,0,6.946-6.911A37.155,37.155,0,0,0,337,453.011V396.692c0-54.82-35.406-101.477-84.439-118.577a126.391,126.391,0,0,0,64.941-51.4A109.1,109.1,0,1,0,353.927,14.771ZM99,159.533V103H246.812a115.394,115.394,0,0,0-1.959,20.93A110.817,110.817,0,0,0,260.8,181H100.966A116.77,116.77,0,0,1,99,159.533ZM64.079,73H257.427a130.207,130.207,0,0,0-6.948,16H86.2A23.557,23.557,0,0,1,64.079,73ZM357.968,483H64.079A23.558,23.558,0,0,1,86.2,467H335.849A23.558,23.558,0,0,1,357.968,483ZM138.887,453l47.069-47.62a33.716,33.716,0,0,1,47.621-.271L280.924,453ZM323,396.708V453H300.61L243.8,395.531l-.377-.382A47.733,47.733,0,0,0,176,395.54L119.2,453H99V397.209A111.895,111.895,0,0,1,210.526,285h.8C272.854,285,323,335.157,323,396.708ZM211.521,271h-.8a110.805,110.805,0,0,1-78.854-32.326A113.23,113.23,0,0,1,104.605,195H270.971A107.182,107.182,0,0,0,304.5,221.223,111.778,111.778,0,0,1,211.521,271Zm142.406-52.031A95.074,95.074,0,1,1,449,123.9,95.181,95.181,0,0,1,353.927,218.969Z" style="fill:url(#linear-gradient)"/><path d="M417.463,83.193,357.445,48.552a7.014,7.014,0,0,0-7.009,0L290.468,83.193A6.969,6.969,0,0,0,287,89.255v69.282a6.966,6.966,0,0,0,3.463,6.062l59.982,34.641a6.973,6.973,0,0,0,6.986,0L417.466,164.6A7.032,7.032,0,0,0,421,158.537V89.255A7.033,7.033,0,0,0,417.463,83.193Zm-63.536,32.615-16.589-9.577,46-26.556,16.589,9.578Zm0-53.111,15.407,8.895-46,26.556-15.407-8.895ZM301,101.374l46,26.558v53.121L301,154.5Zm60,79.679V127.932l46-26.558V154.5Z" style="fill:url(#linear-gradient-2)"/></svg>
