<?xml version="1.0"?>
<svg xmlns="http://www.w3.org/2000/svg" xmlns:xlink="http://www.w3.org/1999/xlink" id="Layer_1" data-name="Layer 1" viewBox="0 0 512 512" width="512" height="512"><defs><linearGradient id="linear-gradient" x1="256" y1="493.94" x2="256" y2="19.599" gradientUnits="userSpaceOnUse"><stop offset="0.322" stop-color="#a163f5"/><stop offset="0.466" stop-color="#b074ee"/><stop offset="0.752" stop-color="#d8a1dd"/><stop offset="0.898" stop-color="#efbad3"/></linearGradient></defs><title>Package_1</title><path d="M459.5,134.468,259.5,19a7,7,0,0,0-7,0L52.5,134.468A7,7,0,0,0,49,140.53V371.47a7,7,0,0,0,3.5,6.062L252.5,493a7.005,7.005,0,0,0,7,0l200-115.471a7,7,0,0,0,3.5-6.062V140.53A7,7,0,0,0,459.5,134.468ZM256,33.143l84.024,48.511L154.038,189.033,70.014,140.522Zm-7,441.673L63,367.429V152.638L249,260.026ZM256,247.9l-87.961-50.785L354.025,89.737l87.961,50.785ZM449,367.429,263,474.816V260.026L449,152.638Z" style="fill:url(#linear-gradient)"/></svg>
