<?xml version="1.0"?>
<svg xmlns="http://www.w3.org/2000/svg" xmlns:xlink="http://www.w3.org/1999/xlink" id="Layer_1" data-name="Layer 1" viewBox="0 0 512 512" width="512" height="512"><defs><linearGradient id="linear-gradient" x1="256" y1="496" x2="256" y2="19.576" gradientUnits="userSpaceOnUse"><stop offset="0.322" stop-color="#a163f5"/><stop offset="0.466" stop-color="#b074ee"/><stop offset="0.752" stop-color="#d8a1dd"/><stop offset="0.898" stop-color="#efbad3"/></linearGradient><linearGradient id="linear-gradient-2" x1="362" y1="496" x2="362" y2="19.576" xlink:href="#linear-gradient"/><linearGradient id="linear-gradient-3" x1="188" y1="496" x2="188" y2="19.576" xlink:href="#linear-gradient"/></defs><title>Package bill</title><path d="M362,291a99.7,99.7,0,0,0-17,1.466V142a7,7,0,0,0-2.05-4.95l-112-112A7,7,0,0,0,226,23H86A35.04,35.04,0,0,0,51,58V394a35.04,35.04,0,0,0,35,35H271.012A99,99,0,1,0,362,291ZM233,46.9,321.1,135H254a21.024,21.024,0,0,1-21-21ZM86,415a21.024,21.024,0,0,1-21-21V58A21.024,21.024,0,0,1,86,37H219v77a35.04,35.04,0,0,0,35,35h77V295.971A99.048,99.048,0,0,0,266.2,415Zm276,60a85,85,0,1,1,85-85A85.1,85.1,0,0,1,362,475Z" style="fill:url(#linear-gradient)"/><path d="M362,346.717a19.664,19.664,0,0,1,19.642,19.642,7,7,0,0,0,14,0A33.7,33.7,0,0,0,369,333.454v-8.376a7,7,0,0,0-14,0v8.376A33.641,33.641,0,0,0,362,400a19.638,19.638,0,0,1,.188,39.275c-.063,0-.125-.009-.188-.009s-.125.007-.188.009a19.659,19.659,0,0,1-19.454-19.632,7,7,0,0,0-14,0A33.7,33.7,0,0,0,355,452.547v9.588a7,7,0,0,0,14,0v-9.588A33.642,33.642,0,0,0,362,386a19.642,19.642,0,1,1,0-39.283Z" style="fill:url(#linear-gradient-2)"/><path d="M268,239a7.2,7.2,0,0,0,7-7.229V190.253A7.22,7.22,0,0,0,268,183H108a7.22,7.22,0,0,0-7,7.253v41.518A7.2,7.2,0,0,0,108,239h9v82.747A7.465,7.465,0,0,0,124.282,329H251.961A7.254,7.254,0,0,0,259,321.747V239ZM115,197H261v28H115Zm58,42h30v26.841l-11.789-7.065a6.735,6.735,0,0,0-7.04.041L173,265.675Zm72,76H131V239h28v39.1a6.923,6.923,0,0,0,10.528,5.987l18.357-11.129L206.8,284.13a6.669,6.669,0,0,0,6.849.051A6.836,6.836,0,0,0,217,278.1V239h28Z" style="fill:url(#linear-gradient-3)"/></svg>
