<?xml version="1.0"?>
<svg xmlns="http://www.w3.org/2000/svg" xmlns:xlink="http://www.w3.org/1999/xlink" id="Layer_1" data-name="Layer 1" viewBox="0 0 512 512" width="512" height="512"><defs><linearGradient id="linear-gradient" x1="256.098" y1="494" x2="256.098" y2="28.606" gradientUnits="userSpaceOnUse"><stop offset="0.322" stop-color="#a163f5"/><stop offset="0.466" stop-color="#b074ee"/><stop offset="0.752" stop-color="#d8a1dd"/><stop offset="0.898" stop-color="#efbad3"/></linearGradient><linearGradient id="linear-gradient-2" x1="255.787" y1="494" x2="255.787" y2="28.606" xlink:href="#linear-gradient"/><linearGradient id="linear-gradient-3" x1="399.408" y1="494" x2="399.408" y2="28.606" xlink:href="#linear-gradient"/><linearGradient id="linear-gradient-4" x1="399.813" y1="494" x2="399.813" y2="28.606" xlink:href="#linear-gradient"/><linearGradient id="linear-gradient-5" x1="118" y1="494" x2="118" y2="28.606" xlink:href="#linear-gradient"/></defs><title>Package cost</title><path d="M141.657,96h50.159a7.273,7.273,0,0,0,4.951-12.315L177.312,64.17A130.024,130.024,0,0,1,364.461,91.716a7,7,0,0,0,11.469-8.043,144.069,144.069,0,0,0-208.584-29.53L146.607,33.405a6.726,6.726,0,0,0-7.457-1.518A6.846,6.846,0,0,0,135,38.354V88.513C135,92.379,137.791,96,141.657,96ZM149,55.253,161.856,68.28c.007.008-.074.016-.067.024.184.208.338.642.541.822L174.917,82H149Z" style="fill:url(#linear-gradient)"/><path d="M370.113,416H319.954A7.272,7.272,0,0,0,315,428.315l19.454,19.515a130.024,130.024,0,0,1-187.149-27.546,7,7,0,0,0-11.469,8.041,144.07,144.07,0,0,0,208.585,29.532L365.163,478.6a7,7,0,0,0,4.952,2.051,6.7,6.7,0,0,0,2.62-.533A6.947,6.947,0,0,0,377,473.646V423.487C377,419.621,373.979,416,370.113,416ZM363,456.747,350.029,443.72c-.007-.008.017-.016.01-.024-.184-.207-.366-.64-.568-.82L336.854,430H363Z" style="fill:url(#linear-gradient-2)"/><path d="M399.408,150.487a102,102,0,1,0,102,102A102.116,102.116,0,0,0,399.408,150.487Zm0,190a88,88,0,1,1,88-88A88.1,88.1,0,0,1,399.408,340.487Z" style="fill:url(#linear-gradient-3)"/><path d="M399.626,210.352a17.311,17.311,0,0,1,17.292,17.292,7,7,0,0,0,7,7,7.162,7.162,0,0,0,7.187-7A31.065,31.065,0,0,0,407,197.151v-7.146a7,7,0,0,0-14,0v7.146a31.265,31.265,0,0,0,6.719,61.784,17.287,17.287,0,0,1,.1,34.574c-.056,0-.124-.009-.18-.009s-.118.008-.175.009a17.308,17.308,0,0,1-17.125-17.282,7,7,0,0,0-7-7,6.842,6.842,0,0,0-6.813,7A31.39,31.39,0,0,0,393,306.718v8.252a7,7,0,0,0,14,0v-8.252a31.063,31.063,0,0,0,24.105-30.491,31.407,31.407,0,0,0-31.386-31.292,17.292,17.292,0,0,1-.093-34.583Z" style="fill:url(#linear-gradient-4)"/><path d="M209,331.747V229h8.592A7.557,7.557,0,0,0,225,221.771V180.253A7.578,7.578,0,0,0,217.592,173h-200C13.726,173,11,176.387,11,180.253v41.518c0,3.867,2.726,7.229,6.592,7.229H27V331.747A7.114,7.114,0,0,0,33.873,339h167.68A7.614,7.614,0,0,0,209,331.747ZM25,187H211v28H25Zm77,42h31v36.841l-11.993-7.065a7.461,7.461,0,0,0-7.438.041L102,265.675ZM41,325V229H88v49.1a7.3,7.3,0,0,0,10.986,5.987L117.41,272.96l18.95,11.17a7.041,7.041,0,0,0,3.573.972,7.119,7.119,0,0,0,3.5-.921A7.03,7.03,0,0,0,147,278.1V229h48v96Z" style="fill:url(#linear-gradient-5)"/></svg>
