<?xml version="1.0"?>
<svg xmlns="http://www.w3.org/2000/svg" xmlns:xlink="http://www.w3.org/1999/xlink" id="Layer_1" data-name="Layer 1" viewBox="0 0 512 512" width="512" height="512"><defs><linearGradient id="linear-gradient" x1="256" y1="496" x2="256" y2="19.576" gradientUnits="userSpaceOnUse"><stop offset="0.322" stop-color="#a163f5"/><stop offset="0.466" stop-color="#b074ee"/><stop offset="0.752" stop-color="#d8a1dd"/><stop offset="0.898" stop-color="#efbad3"/></linearGradient><linearGradient id="linear-gradient-2" x1="159.5" y1="496" x2="159.5" y2="19.576" xlink:href="#linear-gradient"/></defs><title>Package ,delivery</title><path d="M464.394,213.335,442.182,147h20.054A10.417,10.417,0,0,0,473,136.473V113.956A10.775,10.775,0,0,0,462.236,103H320.616A10.654,10.654,0,0,0,310,113.956V321H188.475a46.179,46.179,0,0,0-40.819,0H103.869a46.2,46.2,0,0,0-40.829,0H20.011A11.155,11.155,0,0,0,9,332.155v27.483A11.337,11.337,0,0,0,20.011,371h17.8a47.431,47.431,0,0,0,13.256,25.01,46.369,46.369,0,0,0,64.79-.136,46.479,46.479,0,0,0,9.914-14.236,46.511,46.511,0,0,0,74.7,14.375A47.446,47.446,0,0,0,213.726,371H378.733a47.414,47.414,0,0,0,13.251,25.007A46.392,46.392,0,0,0,470.6,365.919a42.158,42.158,0,0,0,20.618-12.6C498.59,345.382,503,335.4,503,326.636v-69.4A44.308,44.308,0,0,0,464.394,213.335ZM449.5,213H324V147H427.413ZM324,227h96v25.346c0,18.2-15.171,32.654-33.367,32.654H324Zm0-110H459v16H324ZM310,357H214a46.623,46.623,0,0,0-8.662-22H310ZM130.867,335a57.857,57.857,0,0,0-5.089,8.7,56.929,56.929,0,0,0-5.1-8.7ZM23,335H46.244c-4.692,6-7.679,14-8.7,22H23Zm92.778,28.474a32.328,32.328,0,0,1-64.639-.062c-.007-.228-.006-.462-.006-.69a32.266,32.266,0,0,1,8.624-21.98l.132-.132c.047-.047.094-.1.139-.143a32,32,0,0,1,8.01-6.162,32.382,32.382,0,0,1,30.823,0l.029.017a31.967,31.967,0,0,1,8,6.149c.046.049.092.1.14.144l.134.134a32.225,32.225,0,0,1,8.623,21.978C115.786,362.95,115.788,363.184,115.778,363.474Zm52.1,31.57a32.45,32.45,0,0,1-32.219-31.654c-.007-.221.043-.448.043-.668a32.342,32.342,0,0,1,16.914-28.407c.009,0,.031-.01.04-.015a31.943,31.943,0,0,1,15.411-3.9,32.36,32.36,0,0,1,15.4,3.9l.028.014a31.977,31.977,0,0,1,16.622,26.01c.053.742-.116,1.526-.116,2.4v.83C200,380.924,185.267,395.044,167.875,395.044ZM456.7,363.48a32.325,32.325,0,0,1-64.633-.04c-.006-.238,0-.483,0-.719a32.322,32.322,0,0,1,64.558-2.369c.057.762.086,1.559.086,2.369C456.7,362.964,456.7,363.217,456.7,363.48ZM489,326.636c0,9.123-9.175,21.4-19.631,25.068a46.325,46.325,0,0,0-90.9,5.3H324V299h62.633C412.549,299,434,278.262,434,252.346V227h24.978A30.249,30.249,0,0,1,489,257.238Z" style="fill:url(#linear-gradient)"/><path d="M29.312,315h120A6.393,6.393,0,0,0,156,308.418V221h7v87.418c0,3.867,3.2,6.582,7.07,6.582h120a6.6,6.6,0,0,0,6.93-6.582V214.242A7.152,7.152,0,0,0,290.07,207H227V120.209A7.451,7.451,0,0,0,219.69,113h-120A6.925,6.925,0,0,0,93,120.209V207H29.312A7.482,7.482,0,0,0,22,214.242v94.176C22,312.285,25.446,315,29.312,315Zm240.5-94L230.07,252.118,190.511,221h79.3ZM150.728,207h-30.6L159.2,176.338,197.683,207H150.728Zm-50.39,54.33L142,228.634v65.392ZM129.053,301H49.569l39.743-31.19ZM230.07,269.81,269.812,301H190.328ZM177,294.026V228.634l41.661,32.7Zm64.339-32.7L283,228.634v65.392ZM170.83,167.7,213,134.6v66.7Zm-11.562-9.176L119.708,127h79.724Zm-11.009,9.093L107,199.994V134.738ZM98.274,221h30.6L89.312,252.118,49.569,221ZM77.662,261.33,36,294.026V228.634Z" style="fill:url(#linear-gradient-2)"/></svg>
