<?xml version="1.0"?>
<svg xmlns="http://www.w3.org/2000/svg" xmlns:xlink="http://www.w3.org/1999/xlink" id="Layer_1" data-name="Layer 1" viewBox="0 0 512 512" width="512" height="512"><defs><linearGradient id="linear-gradient" x1="262.282" y1="488.621" x2="262.282" y2="30.768" gradientUnits="userSpaceOnUse"><stop offset="0.322" stop-color="#a163f5"/><stop offset="0.466" stop-color="#b074ee"/><stop offset="0.752" stop-color="#d8a1dd"/><stop offset="0.898" stop-color="#efbad3"/></linearGradient><linearGradient id="linear-gradient-2" x1="41" y1="488.621" x2="41" y2="30.768" xlink:href="#linear-gradient"/><linearGradient id="linear-gradient-3" x1="69" y1="488.621" x2="69" y2="30.768" xlink:href="#linear-gradient"/><linearGradient id="linear-gradient-4" x1="98" y1="488.621" x2="98" y2="30.768" xlink:href="#linear-gradient"/><linearGradient id="linear-gradient-5" x1="126" y1="488.621" x2="126" y2="30.768" xlink:href="#linear-gradient"/><linearGradient id="linear-gradient-6" x1="155" y1="488.621" x2="155" y2="30.768" xlink:href="#linear-gradient"/><linearGradient id="linear-gradient-7" x1="263.715" y1="488.621" x2="263.715" y2="30.768" xlink:href="#linear-gradient"/><linearGradient id="linear-gradient-8" x1="245" y1="488.621" x2="245" y2="30.768" xlink:href="#linear-gradient"/><linearGradient id="linear-gradient-9" x1="400" y1="488.621" x2="400" y2="30.768" xlink:href="#linear-gradient"/></defs><title>package security check</title><path d="M244.854,293.881a7.185,7.185,0,0,0,6.292-3.687L255,283.247V343.42a7,7,0,1,0,14,0V273.051l5.69,6.155a6.929,6.929,0,0,0,9.836.284,7,7,0,0,0,.254-9.9l-17.915-18.96a7.011,7.011,0,0,0-11.267,1.491l-16.9,31.44a7,7,0,0,0,6.158,10.316Z" style="fill:url(#linear-gradient)"/><path d="M41,338.45a7,7,0,0,0-7,7v25.92a7,7,0,0,0,14,0V345.45A7,7,0,0,0,41,338.45Z" style="fill:url(#linear-gradient-2)"/><path d="M69,357.65a7,7,0,0,0-7,7V388a7,7,0,0,0,14,0V364.65A7,7,0,0,0,69,357.65Z" style="fill:url(#linear-gradient-3)"/><path d="M98,376.85a7,7,0,0,0-7,7v20.56a7,7,0,0,0,14,0V383.85A7,7,0,0,0,98,376.85Z" style="fill:url(#linear-gradient-4)"/><path d="M126,396.05a7,7,0,0,0-7,7v17.77a7,7,0,0,0,14,0V403.05A7,7,0,0,0,126,396.05Z" style="fill:url(#linear-gradient-5)"/><path d="M155,415.25a7,7,0,0,0-7,7v15.36a7,7,0,0,0,14,0V422.25A7,7,0,0,0,155,415.25Z" style="fill:url(#linear-gradient-6)"/><path d="M276.16,353.467l-31.89,18.41a7,7,0,1,0,7,12.125l31.89-18.41a7,7,0,1,0-7-12.125Z" style="fill:url(#linear-gradient-7)"/><path d="M477.174,313.266,407,278.788V135.55a7.03,7.03,0,0,0-3.54-6.083L211.5,18.638a7,7,0,0,0-7,0L12.628,129.415A7,7,0,0,0,9,135.55v240.9a7,7,0,0,0,3.5,6.062l192,110.85a7,7,0,0,0,7.158-.094l117.08-71.758c4.931,8.3,11.209,15.344,17.861,19.885l49.46,33.69a7,7,0,0,0,7.882,0l49.373-33.692C468.889,430.77,481,407.708,481,388.89V319.55A6.917,6.917,0,0,0,477.174,313.266Zm-154.34-.114A6.918,6.918,0,0,0,319,319.44v69.45a58.188,58.188,0,0,0,3.776,19.909L215,474.8V250.421L393,147.653V278.781ZM99,191.648l35,19.976V339.933l-13.195-14.878a7.229,7.229,0,0,0-8.076-1.845L99,328.816Zm7.21-12.118L284.191,76.772l34.935,20.17L141.141,199.7Zm226.916-74.5L385.98,135.54,208,238.3l-52.859-30.518ZM208,32.783l62.191,35.906L92.205,171.449,30.02,135.541ZM23,147.654l62,35.917V339.28a7.136,7.136,0,0,0,9.822,6.47l18.652-7.691,22.059,25.046a7.01,7.01,0,0,0,5.262,2.375,7.553,7.553,0,0,0,2.573-.451A7.094,7.094,0,0,0,148,358.48V219.707l53,30.714V475.176L23,372.409ZM467,388.89c0,14.18-9.831,32.927-21.571,40.935l-45.474,31-45.491-31c-6.313-4.31-12.458-12.21-16.606-21.127A48.711,48.711,0,0,1,333,388.89V323.808l67-32.863L467,323.912Z" style="fill:url(#linear-gradient-8)"/><path d="M373.679,371.279a7,7,0,0,0-9.9,9.9l20.85,20.84a7,7,0,0,0,9.9,0l41.69-41.69a7,7,0,0,0-9.9-9.9l-36.741,36.741Z" style="fill:url(#linear-gradient-9)"/></svg>
