<?xml version="1.0"?>
<svg xmlns="http://www.w3.org/2000/svg" xmlns:xlink="http://www.w3.org/1999/xlink" id="Layer_1" data-name="Layer 1" viewBox="0 0 512 512" width="512" height="512"><defs><linearGradient id="linear-gradient" x1="256" y1="496" x2="256" y2="19.576" gradientUnits="userSpaceOnUse"><stop offset="0.322" stop-color="#a163f5"/><stop offset="0.466" stop-color="#b074ee"/><stop offset="0.752" stop-color="#d8a1dd"/><stop offset="0.898" stop-color="#efbad3"/></linearGradient><linearGradient id="linear-gradient-2" x1="179" y1="496" x2="179" y2="19.576" xlink:href="#linear-gradient"/></defs><title>Package settings</title><path d="M486.672,187.782l-34.127-3.289a148.9,148.9,0,0,0-17.286-41.06L456.983,117.2a7,7,0,0,0-.41-9.383L419.809,70.582a7,7,0,0,0-9.447-.473L384.083,91.871A152.208,152.208,0,0,0,343.07,74.55l-3.289-34.175A7.04,7.04,0,0,0,332.813,34h-52.79a7.039,7.039,0,0,0-6.967,6.374l-3.29,34.15a148.921,148.921,0,0,0-41.059,17.3L202.475,70.1a7,7,0,0,0-9.415.444l-37.237,37.238a7,7,0,0,0-.441,9.415l21.764,26.28a160.772,160.772,0,0,0-7.969,14.95C85.52,163.47,19,233.116,19,318.017c0,88.165,71.727,159.792,159.891,159.792A160.077,160.077,0,0,0,310.85,408h21.963a6.914,6.914,0,0,0,6.968-6.229l3.289-34.078a148.862,148.862,0,0,0,41.06-17.26l26.232,21.736a7,7,0,0,0,9.415-.435L457.014,334.5a7,7,0,0,0,.441-9.413l-21.764-26.278a152.2,152.2,0,0,0,17.324-41.018l33.665-3.284A7,7,0,0,0,493,247.54V194.75A7,7,0,0,0,486.672,187.782ZM178.891,463.908C98.446,463.908,33,398.462,33,318.018S98.446,172.127,178.891,172.127s145.89,65.446,145.89,145.891S259.335,463.908,178.891,463.908ZM338.633,311.373c-2.8-68.074-48.354-125.3-110.466-145.466A95.789,95.789,0,1,1,338.633,311.373ZM319.438,394a146.277,146.277,0,0,0,8.877-19.3L326.456,394ZM479,241.19l-32.33,3.154a7,7,0,0,0-6.162,5.488A138.361,138.361,0,0,1,421.2,295.593a7,7,0,0,0,.49,8.26l20.917,25.257-28.223,28.224-25.258-20.917a7,7,0,0,0-8.348-.433A134.247,134.247,0,0,1,335.1,355.235a6.981,6.981,0,0,0-.762.23,159.314,159.314,0,0,0,4.234-29.327A109.793,109.793,0,1,0,213.932,162.005a159.451,159.451,0,0,0-29.044-3.754c2.055-3.9,4.305-7.767,6.749-11.554a7,7,0,0,0-.491-8.26L170.229,113.18l28.224-28.224,25.258,20.917a7,7,0,0,0,8.348.432,134.247,134.247,0,0,1,45.672-19.25,7.052,7.052,0,0,0,5.489-6.216L286.381,48h40.075l3.16,32.839a7.026,7.026,0,0,0,5.488,6.193,138.389,138.389,0,0,1,45.762,19.319,7,7,0,0,0,8.26-.484l25.227-20.888,27.809,28.168-20.943,25.289a7,7,0,0,0-.433,8.349,134.237,134.237,0,0,1,19.251,45.673,7,7,0,0,0,6.17,5.489L479,201.108Z" style="fill:url(#linear-gradient)"/><path d="M272.591,258.6,182.637,206.64a6.954,6.954,0,0,0-6.977,0L85.58,258.6A7.074,7.074,0,0,0,82,264.663V368.586a7.085,7.085,0,0,0,3.591,6.062l90.046,51.962a7.062,7.062,0,0,0,7.034,0l89.915-51.962A6.92,6.92,0,0,0,276,368.586V264.663A6.915,6.915,0,0,0,272.591,258.6Zm-93.408,49.934L147.3,290.127l75.994-43.875,31.883,18.408Zm0-87.75,30.111,17.384L133.3,282.045,103.188,264.66ZM96,276.78l76,43.879v87.764L96,364.545Zm90,131.643V320.659l76-43.879v87.765Z" style="fill:url(#linear-gradient-2)"/></svg>
