<?xml version="1.0"?>
<svg xmlns="http://www.w3.org/2000/svg" xmlns:xlink="http://www.w3.org/1999/xlink" id="Layer_1" data-name="Layer 1" viewBox="0 0 512 512" width="512" height="512"><defs><linearGradient id="linear-gradient" x1="250.439" y1="494" x2="250.439" y2="28.606" gradientUnits="userSpaceOnUse"><stop offset="0.322" stop-color="#a163f5"/><stop offset="0.466" stop-color="#b074ee"/><stop offset="0.752" stop-color="#d8a1dd"/><stop offset="0.898" stop-color="#efbad3"/></linearGradient><linearGradient id="linear-gradient-2" x1="256" y1="494" x2="256" y2="28.606" xlink:href="#linear-gradient"/><linearGradient id="linear-gradient-3" x1="358" y1="494" x2="358" y2="28.606" xlink:href="#linear-gradient"/></defs><title>Premium Package_1</title><path d="M287.878,223a7,7,0,0,0-7-7H227V141.49a7,7,0,0,0-14,0v81.659A6.591,6.591,0,0,0,219.66,230h61.218A7,7,0,0,0,287.878,223Z" style="fill:url(#linear-gradient)"/><path d="M387.313,255.615a172.006,172.006,0,0,0,3.556-34.756c0-94.254-76.681-170.935-170.934-170.935S49,126.605,49,220.859s76.681,170.934,170.935,170.934a171.866,171.866,0,0,0,37.012-4.037A105.365,105.365,0,1,0,387.313,255.615ZM219.935,377.793C133.4,377.793,63,307.393,63,220.859S133.4,63.924,219.935,63.924s156.934,70.4,156.934,156.935a157.969,157.969,0,0,1-3.223,31.709,105.373,105.373,0,0,0-119.92,121.561A157.8,157.8,0,0,1,219.935,377.793Zm137.7,70.283A91.361,91.361,0,1,1,449,356.715,91.465,91.465,0,0,1,357.64,448.076Z" style="fill:url(#linear-gradient-2)"/><path d="M361.14,281.371a7,7,0,0,0-7,0l-59.82,34.641a6.837,6.837,0,0,0-3.32,6.062v69.282a6.837,6.837,0,0,0,3.32,6.062l59.91,34.641a6.824,6.824,0,0,0,3.455.938,6.9,6.9,0,0,0,3.477-.938l60.169-34.641A7.162,7.162,0,0,0,425,391.356V322.074a7.173,7.173,0,0,0-3.68-6.062Zm-3.5,67.256-16.589-9.577,46-26.556,16.589,9.578Zm0-53.111,15.407,8.9-46,26.555-15.407-8.895ZM305,334.194l46,26.558v53.121l-46-26.559Zm60,79.679V360.752l46-26.558v53.12Z" style="fill:url(#linear-gradient-3)"/></svg>
