<?xml version="1.0"?>
<svg xmlns="http://www.w3.org/2000/svg" xmlns:xlink="http://www.w3.org/1999/xlink" id="Layer_1" data-name="Layer 1" viewBox="0 0 512 512" width="512" height="512"><defs><linearGradient id="linear-gradient" x1="255.978" y1="496" x2="255.978" y2="19.576" gradientUnits="userSpaceOnUse"><stop offset="0.322" stop-color="#a163f5"/><stop offset="0.466" stop-color="#b074ee"/><stop offset="0.752" stop-color="#d8a1dd"/><stop offset="0.898" stop-color="#efbad3"/></linearGradient><linearGradient id="linear-gradient-2" x1="207" y1="496" x2="207" y2="19.576" xlink:href="#linear-gradient"/></defs><title>Search Logistics</title><path d="M485.561,445.312l-96.778-96.776a7,7,0,0,0-9.9,0l-10.224,10.223-24.542-24.541A187.705,187.705,0,0,0,73.805,73.8,187.705,187.705,0,0,0,334.218,344.118l24.542,24.541-10.225,10.225a7,7,0,0,0,0,9.9l96.777,96.778a26.031,26.031,0,0,0,36.769,0l3.479-3.478h0A26.033,26.033,0,0,0,485.561,445.312ZM83.7,329.368a173.709,173.709,0,1,1,122.832,50.879A173.174,173.174,0,0,1,83.7,329.368ZM475.66,472.183l-3.478,3.478a12.013,12.013,0,0,1-16.97,0l-91.827-91.828,20.448-20.448,91.827,91.827A12.012,12.012,0,0,1,475.66,472.183Z" style="fill:url(#linear-gradient)"/><path d="M310.268,142.739,210.152,85a7.106,7.106,0,0,0-7.058,0l-99.8,57.735A6.816,6.816,0,0,0,100,148.8v115.47a6.792,6.792,0,0,0,3.268,6.062l99.884,57.735a6.788,6.788,0,0,0,3.442.938,6.892,6.892,0,0,0,3.471-.938l100.218-57.735A7.209,7.209,0,0,0,314,264.271V148.8A7.224,7.224,0,0,0,310.268,142.739ZM206.536,198.445l-36.981-21.351,85.993-49.648L292.529,148.8Zm0-99.3,35.012,20.214-85.993,49.648L120.543,148.8ZM114,160.917l86,49.652v99.312l-86-49.652ZM214,309.881V210.569l86-49.652v99.312Z" style="fill:url(#linear-gradient-2)"/></svg>
