<?xml version="1.0"?>
<svg xmlns="http://www.w3.org/2000/svg" xmlns:xlink="http://www.w3.org/1999/xlink" id="Layer_1" data-name="Layer 1" viewBox="0 0 512 512" width="512" height="512"><defs><linearGradient id="linear-gradient" x1="254.302" y1="494" x2="254.302" y2="19.658" gradientUnits="userSpaceOnUse"><stop offset="0.322" stop-color="#a163f5"/><stop offset="0.466" stop-color="#b074ee"/><stop offset="0.752" stop-color="#d8a1dd"/><stop offset="0.898" stop-color="#efbad3"/></linearGradient><linearGradient id="linear-gradient-2" x1="254.491" y1="494" x2="254.491" y2="19.658" xlink:href="#linear-gradient"/><linearGradient id="linear-gradient-3" x1="99" y1="494" x2="99" y2="19.658" xlink:href="#linear-gradient"/><linearGradient id="linear-gradient-4" x1="99.183" y1="494" x2="99.183" y2="19.658" xlink:href="#linear-gradient"/><linearGradient id="linear-gradient-5" x1="398" y1="494" x2="398" y2="19.658" xlink:href="#linear-gradient"/></defs><title>Secure box</title><path d="M140.066,96h50.159a7.272,7.272,0,0,0,4.949-12.316L175.721,64.17A130.024,130.024,0,0,1,362.87,91.717a7,7,0,0,0,11.468-8.044A144.07,144.07,0,0,0,165.754,54.142L145.016,33.4A7.046,7.046,0,0,0,133,38.354V88.513C133,92.379,136.2,96,140.066,96ZM147,55.253l13.062,13.029c.006.007.027.014.033.021.184.207.388.641.591.822L173.325,82H147Z" style="fill:url(#linear-gradient)"/><path d="M368.521,416H318.363a7.273,7.273,0,0,0-4.95,12.316l19.453,19.514a130.024,130.024,0,0,1-187.149-27.547,7,7,0,0,0-11.468,8.042,144.069,144.069,0,0,0,208.584,29.532L363.572,478.6a7,7,0,0,0,4.951,2.05,8.186,8.186,0,0,0,2.916-.533A7.225,7.225,0,0,0,376,473.646V423.487A7.852,7.852,0,0,0,368.521,416ZM362,456.747l-13.271-13.031c0-.006-.128-.013-.134-.019-.183-.207-.439-.64-.64-.821L335.262,430H362Z" style="fill:url(#linear-gradient-2)"/><path d="M186,262.707v-74.85a6.917,6.917,0,0,0-3.823-6.283l-79.954-39.293a6.958,6.958,0,0,0-6.142,0L16,181.459a7.075,7.075,0,0,0-4,6.286v74.962c0,20.159,13.148,44.853,29.814,56.215L95.193,355.3a7.056,7.056,0,0,0,7.923,0l53.247-36.373C173.03,307.56,186,282.866,186,262.707Zm-37.519,44.648L99.137,341.04,49.678,307.354C36.881,298.63,26,278.184,26,262.707v-70.6l73-35.75,73,35.857v70.489C172,278.184,161.28,298.63,148.481,307.355Z" style="fill:url(#linear-gradient-3)"/><path d="M128.144,222.777,89.5,260.508,70.223,241.689a7,7,0,0,0-9.781,10.018L84.607,275.3a7,7,0,0,0,9.781,0L137.924,232.8a7,7,0,0,0-9.78-10.018Z" style="fill:url(#linear-gradient-4)"/><path d="M491.408,194.464,401.363,142.5a7.045,7.045,0,0,0-7.023,0l-89.92,51.962a6.926,6.926,0,0,0-3.42,6.062V304.449a6.917,6.917,0,0,0,3.408,6.063l89.955,51.961a6.94,6.94,0,0,0,6.965,0l90.086-51.961A7.083,7.083,0,0,0,495,304.449V200.526A7.087,7.087,0,0,0,491.408,194.464Zm-93.591-37.817,30.111,17.385-75.994,43.875-30.111-17.385ZM391,344.286l-76-43.878V212.643l76,43.879Zm6.817-99.889L365.935,225.99l75.993-43.875,31.882,18.407ZM481,300.408l-76,43.878V256.522l76-43.879Z" style="fill:url(#linear-gradient-5)"/></svg>
