<?xml version="1.0"?>
<svg xmlns="http://www.w3.org/2000/svg" xmlns:xlink="http://www.w3.org/1999/xlink" id="Layer_1" data-name="Layer 1" viewBox="0 0 512 512" width="512" height="512"><defs><linearGradient id="linear-gradient" x1="213.46" y1="488.621" x2="213.46" y2="30.768" gradientUnits="userSpaceOnUse"><stop offset="0.322" stop-color="#a163f5"/><stop offset="0.466" stop-color="#b074ee"/><stop offset="0.752" stop-color="#d8a1dd"/><stop offset="0.898" stop-color="#efbad3"/></linearGradient><linearGradient id="linear-gradient-2" x1="256" y1="488.621" x2="256" y2="30.768" xlink:href="#linear-gradient"/></defs><title>Security checked package</title><path d="M173.665,230.573a7,7,0,0,0-10.291,9.493l31.07,33.681a7,7,0,0,0,9.874.415l58.811-53.87a7,7,0,0,0-9.457-10.324l-53.667,49.158Z" style="fill:url(#linear-gradient)"/><path d="M442.771,297.088A15.392,15.392,0,0,0,429.66,290H393.8a127.381,127.381,0,0,0,2.2-23.31V112.24a6.975,6.975,0,0,0-3.884-6.283L216.552,19.717a6.989,6.989,0,0,0-6.158,0L34.852,105.723A6.939,6.939,0,0,0,31,112.01V266.69c0,44.721,27.809,97.446,64.771,122.643l113.777,77.62a6.946,6.946,0,0,0,7.855,0L262,436.527V477.45A15.58,15.58,0,0,0,277.56,493H465.59A15.453,15.453,0,0,0,481,477.45V359.21a6.767,6.767,0,0,0-1.032-3.71Zm-11.8,7.424L461.367,352H379V304h5.993c.032,0,.064,0,.1,0s.037,0,.056,0H429.66A1.4,1.4,0,0,1,430.967,304.512ZM339,264.69c0,7.678-1.6,16.31-4.468,25.31H313.49a15.389,15.389,0,0,0-13.113,7.093L263.106,355.5A6.846,6.846,0,0,0,262,359.21v7.611l-48.55,33.116-84.35-57.53C106.824,327.212,88,291.623,88,264.69V144.956l125.49-61.43L339,145.141Zm-26.818,39.825A1.4,1.4,0,0,1,313.49,304H365v48H281.782ZM213.45,452.7l-109.8-74.931C70.175,354.944,45,307.192,45,266.69V116.376L213.511,33.8,382,116.6V266.69A114.457,114.457,0,0,1,379.518,290H349.159A97.005,97.005,0,0,0,353,264.69V140.78a7.04,7.04,0,0,0-3.959-6.283L216.568,69.447a7.028,7.028,0,0,0-6.176,0L77.936,134.3A7.016,7.016,0,0,0,74,140.59v124.1c0,31.476,21.187,71.528,47.216,89.283l88.3,60.22a6.99,6.99,0,0,0,7.882,0L262,383.767V419.58ZM383,479H360V402.869l23,14.891Zm82.59,0H397V413.97a7.009,7.009,0,0,0-3.184-5.862L357,384.079a7.16,7.16,0,0,0-7.247-.3A7.085,7.085,0,0,0,346,389.94V479H277.56a1.563,1.563,0,0,1-1.56-1.55V366H467V477.45A1.441,1.441,0,0,1,465.59,479Z" style="fill:url(#linear-gradient-2)"/></svg>
