<?xml version="1.0"?>
<svg xmlns="http://www.w3.org/2000/svg" xmlns:xlink="http://www.w3.org/1999/xlink" id="Layer_1" data-name="Layer 1" viewBox="0 0 512 512" width="512" height="512"><defs><linearGradient id="linear-gradient" x1="271.056" y1="488.621" x2="271.056" y2="30.768" gradientUnits="userSpaceOnUse"><stop offset="0.322" stop-color="#a163f5"/><stop offset="0.466" stop-color="#b074ee"/><stop offset="0.752" stop-color="#d8a1dd"/><stop offset="0.898" stop-color="#efbad3"/></linearGradient><linearGradient id="linear-gradient-2" x1="50" y1="488.621" x2="50" y2="30.768" xlink:href="#linear-gradient"/><linearGradient id="linear-gradient-3" x1="78" y1="488.621" x2="78" y2="30.768" xlink:href="#linear-gradient"/><linearGradient id="linear-gradient-4" x1="106" y1="488.621" x2="106" y2="30.768" xlink:href="#linear-gradient"/><linearGradient id="linear-gradient-5" x1="135" y1="488.621" x2="135" y2="30.768" xlink:href="#linear-gradient"/><linearGradient id="linear-gradient-6" x1="163" y1="488.621" x2="163" y2="30.768" xlink:href="#linear-gradient"/><linearGradient id="linear-gradient-7" x1="272.465" y1="488.621" x2="272.465" y2="30.768" xlink:href="#linear-gradient"/><linearGradient id="linear-gradient-8" x1="256.123" y1="488.621" x2="256.123" y2="30.768" xlink:href="#linear-gradient"/></defs><title>Service center 3</title><path d="M253.6,293.881a7.38,7.38,0,0,0,6.417-3.687L264,283.248V343.42a7,7,0,1,0,14,0V273.051l5.565,6.155a6.853,6.853,0,0,0,9.773.284,7,7,0,0,0,.223-9.9l-17.931-18.96a7.021,7.021,0,0,0-11.279,1.492l-16.9,31.44a7,7,0,0,0,6.156,10.315Z" style="fill:url(#linear-gradient)"/><path d="M50,338.45a7,7,0,0,0-7,7v25.92a7,7,0,0,0,14,0V345.45A7,7,0,0,0,50,338.45Z" style="fill:url(#linear-gradient-2)"/><path d="M78,357.65a7,7,0,0,0-7,7V388a7,7,0,0,0,14,0V364.65A7,7,0,0,0,78,357.65Z" style="fill:url(#linear-gradient-3)"/><path d="M106,376.85a7,7,0,0,0-7,7v20.56a7,7,0,0,0,14,0V383.85A7,7,0,0,0,106,376.85Z" style="fill:url(#linear-gradient-4)"/><path d="M135,396.05a7,7,0,0,0-7,7v17.77a7,7,0,0,0,14,0V403.05A7,7,0,0,0,135,396.05Z" style="fill:url(#linear-gradient-5)"/><path d="M163,415.25a7,7,0,0,0-7,7v15.36a7,7,0,0,0,14,0V422.25A7,7,0,0,0,163,415.25Z" style="fill:url(#linear-gradient-6)"/><path d="M284.91,353.467l-31.89,18.41a7,7,0,1,0,7,12.125l31.89-18.41a7,7,0,1,0-7-12.125Z" style="fill:url(#linear-gradient-7)"/><path d="M479.8,364.439c-.016-4.747.072-13.249,0-14.488A81.545,81.545,0,0,0,416,275.062V135.55a7.149,7.149,0,0,0-3.66-6.081L220.312,18.638a7.058,7.058,0,0,0-7.031,0L21.508,129.422A6.9,6.9,0,0,0,18,135.55v240.9a6.885,6.885,0,0,0,3.375,6.062l191.937,110.85a6.915,6.915,0,0,0,7.069-.068L340.669,420.73a496.5,496.5,0,0,1-.776,50.975,6.754,6.754,0,0,0,1.85,5.169A6.9,6.9,0,0,0,346.87,479h66.19a6.764,6.764,0,0,0,6.94-6.78V458.86a3.575,3.575,0,0,1,3.117-3.644l.149-.01c.049,0,.107-.006.122-.006l8.7.039a6.813,6.813,0,0,0,4.477,1.511l29.781.25h.187c9.294,0,16.469-7.11,17.469-16.429v-.251c0-8.482-7-15.57-15-16.84V415h14.95a10.646,10.646,0,0,0,9.62-14.341Zm-87,32.925c-.059,0-.117-.185-.176-.182-.185.012-.384-.182-.514-.182h-.015a15.042,15.042,0,0,1-15.217-15.309l.029-2.656A15.3,15.3,0,0,1,392.267,364h.151a15.3,15.3,0,0,1,15.222,15.3l-.039,2.953A15.323,15.323,0,0,1,392.792,397.364Zm5.026-124.134-.185,0c-.647.011-1.323.021-2,.042-1.176.042-2.433.116-3.723.221a74.614,74.614,0,0,0-59.132,38.657,76.036,76.036,0,0,0-.981,71.687,196.856,196.856,0,0,1,7.433,21.481L224,474.9V250.421L402,147.653V273.3C400,273.246,399.176,273.215,397.818,273.23ZM108,191.648l35,19.976V339.933l-13.32-14.878a7.132,7.132,0,0,0-8.014-1.845L108,328.816Zm6.96-12.118L292.941,76.772l34.935,20.17L149.891,199.7Zm226.917-74.5L394.73,135.54,216.75,238.3l-52.859-30.518ZM216.75,32.783l62.191,35.906L100.955,171.45,38.769,135.541ZM32,147.654l62,35.917V339.28a6.967,6.967,0,0,0,9.635,6.47l18.621-7.691L144.3,363.105a7,7,0,0,0,5.255,2.375,8.248,8.248,0,0,0,2.694-.451A7.211,7.211,0,0,0,157,358.48V219.707l53,30.714V475.176L32,372.409ZM406,458.86V465H354.308c.627-12,1.463-36.152-.469-56.956-.852-9.048-8.338-27.709-9.19-29.813a6.5,6.5,0,0,0-.284-.589,62.033,62.033,0,0,1,.433-58.757,60.393,60.393,0,0,1,40.2-30.31v62.076c-12,3.043-22.15,14.472-22.34,28.183l.091,2.78a29.465,29.465,0,0,0,23.2,29.094l-.019,3.8a31.925,31.925,0,0,0,25.512,31.55A17.807,17.807,0,0,0,406,458.86Zm64-18.455a3.263,3.263,0,0,1-3.274,3l-22.861-.474L443.848,437h22.715A3.663,3.663,0,0,1,470,440.32ZM462.08,401c-3.866,0-7.08,2.634-7.08,6.5V423H436.95a7.112,7.112,0,0,0-7,7.027l-.038,2.682-12.236-.041a17.9,17.9,0,0,1-17.727-18.053l.039-4.289a29.509,29.509,0,0,0,21.79-27.919l.221-2.786v-.4c0-13.66-10-25.232-23-28.466V287.242a67.205,67.205,0,0,1,66.57,63.477c.044.949.151,8.393.17,15.041a8.441,8.441,0,0,0,.49,2.726L478.572,401Z" style="fill:url(#linear-gradient-8)"/></svg>
