<?xml version="1.0"?>
<svg xmlns="http://www.w3.org/2000/svg" xmlns:xlink="http://www.w3.org/1999/xlink" id="Layer_1" data-name="Layer 1" viewBox="0 0 512 512" width="512" height="512"><defs><linearGradient id="linear-gradient" x1="411.601" y1="496" x2="411.601" y2="19.576" gradientUnits="userSpaceOnUse"><stop offset="0.322" stop-color="#a163f5"/><stop offset="0.466" stop-color="#b074ee"/><stop offset="0.752" stop-color="#d8a1dd"/><stop offset="0.898" stop-color="#efbad3"/></linearGradient><linearGradient id="linear-gradient-2" x1="100.399" y1="496" x2="100.399" y2="19.576" xlink:href="#linear-gradient"/><linearGradient id="linear-gradient-4" x1="167.993" y1="496" x2="167.993" y2="19.576" xlink:href="#linear-gradient"/><linearGradient id="linear-gradient-5" x1="344.021" y1="496" x2="344.021" y2="19.576" xlink:href="#linear-gradient"/><linearGradient id="linear-gradient-6" x1="327.403" y1="496" x2="327.403" y2="19.576" xlink:href="#linear-gradient"/><linearGradient id="linear-gradient-7" x1="421.115" y1="496" x2="421.115" y2="19.576" xlink:href="#linear-gradient"/><linearGradient id="linear-gradient-8" x1="294.494" y1="496" x2="294.494" y2="19.576" xlink:href="#linear-gradient"/><linearGradient id="linear-gradient-9" x1="388.379" y1="496" x2="388.379" y2="19.576" xlink:href="#linear-gradient"/><linearGradient id="linear-gradient-10" x1="322.014" y1="496" x2="322.014" y2="19.576" xlink:href="#linear-gradient"/><linearGradient id="linear-gradient-11" x1="416.304" y1="496" x2="416.304" y2="19.576" xlink:href="#linear-gradient"/><linearGradient id="linear-gradient-12" x1="309.715" y1="496" x2="309.715" y2="19.576" xlink:href="#linear-gradient"/><linearGradient id="linear-gradient-13" x1="403.655" y1="496" x2="403.655" y2="19.576" xlink:href="#linear-gradient"/><linearGradient id="linear-gradient-14" x1="422.519" y1="496" x2="422.519" y2="19.576" xlink:href="#linear-gradient"/><linearGradient id="linear-gradient-15" x1="205" y1="496" x2="205" y2="19.576" xlink:href="#linear-gradient"/><linearGradient id="linear-gradient-16" x1="81.196" y1="496" x2="81.196" y2="19.576" xlink:href="#linear-gradient"/><linearGradient id="linear-gradient-17" x1="84.696" y1="496" x2="84.696" y2="19.576" xlink:href="#linear-gradient"/><linearGradient id="linear-gradient-18" x1="101.196" y1="496" x2="101.196" y2="19.576" xlink:href="#linear-gradient"/><linearGradient id="linear-gradient-19" x1="58.196" y1="496" x2="58.196" y2="19.576" xlink:href="#linear-gradient"/></defs><title>Support Logistic</title><path d="M411.6,400a91.333,91.333,0,0,0-91.4,91.2,6.834,6.834,0,0,0,7,6.8H496a6.834,6.834,0,0,0,7-6.8A91.333,91.333,0,0,0,411.6,400Zm-77.085,84c3.55-39,36.767-70.4,77.085-70.4S485.136,445,488.687,484Z" style="fill:url(#linear-gradient)"/><path d="M100.4,128.882A57.639,57.639,0,1,0,42.76,71.243,57.7,57.7,0,0,0,100.4,128.882Zm0-101.278A43.639,43.639,0,1,1,56.76,71.243,43.688,43.688,0,0,1,100.4,27.6Z" style="fill:url(#linear-gradient-2)"/><path d="M16,247H184.8a6.982,6.982,0,0,0,7-6.979A91.4,91.4,0,0,0,9,240.015,6.987,6.987,0,0,0,16,247Zm84.4-84.4c40.318,0,73.535,31.4,77.085,70.4H23.313C26.864,194,60.081,162.6,100.4,162.6Z" style="fill:url(#linear-gradient-2)"/><path d="M326.92,410.159a7.328,7.328,0,0,0-5.552-6,44.22,44.22,0,0,0-7.131-1C299.439,401.784,286,399.1,286,381.735V316.807A28.593,28.593,0,0,0,257.371,288H37.943A28.859,28.859,0,0,0,9,316.807V452.459A28.634,28.634,0,0,0,37.943,481H257.371A28.367,28.367,0,0,0,286,452.459V443.53a.746.746,0,0,1,.493-.623c28.646-5.062,37.811-23.857,39.633-28.473A7.118,7.118,0,0,0,326.92,410.159Zm-42.862,18.962A14.658,14.658,0,0,0,272,443.53v8.929A14.355,14.355,0,0,1,257.371,467H37.943A14.621,14.621,0,0,1,23,452.459V316.807A14.844,14.844,0,0,1,37.943,302H257.371A14.578,14.578,0,0,1,272,316.807v64.928c0,13.469,5.85,23.636,16.62,29.4,6.539,3.5,13.825,4.813,19.729,5.5C304.2,421.323,296.79,426.871,284.058,429.121Z" style="fill:url(#linear-gradient-4)"/><path d="M474.057,21H254.629C238.67,21,226,34.26,226,50.22v64.928c0,17.37-13.439,20.049-28.237,21.432a42.983,42.983,0,0,0-7.057,1,7.392,7.392,0,0,0-5.587,5.994,7.077,7.077,0,0,0,.7,4.275c1.822,4.616,11.056,23.411,39.7,28.473a.739.739,0,0,1,.483.623v8.929C226,201.832,238.67,215,254.629,215H474.057A29.134,29.134,0,0,0,503,185.872V50.22A29.214,29.214,0,0,0,474.057,21ZM489,185.872A15.119,15.119,0,0,1,474.057,201H254.629A14.854,14.854,0,0,1,240,185.872v-8.929a14.658,14.658,0,0,0-12.058-14.409c-12.743-2.252-20.236-7.807-24.375-12.481,5.9-.69,13.311-2,19.852-5.5C234.19,138.784,240,128.617,240,115.148V50.22C240,41.98,246.389,35,254.629,35H474.057A15.2,15.2,0,0,1,489,50.22Z" style="fill:url(#linear-gradient-5)"/><path d="M281.169,107h92.468a7,7,0,0,0,0-14H281.169a7,7,0,0,0,0,14Z" style="fill:url(#linear-gradient-6)"/><path d="M445.747,93H396.482a7,7,0,0,0,0,14h49.265a7,7,0,1,0,0-14Z" style="fill:url(#linear-gradient-7)"/><path d="M281.169,143h26.649a7,7,0,0,0,0-14H281.169a7,7,0,0,0,0,14Z" style="fill:url(#linear-gradient-8)"/><path d="M445.747,129H331.011a7,7,0,0,0,0,14H445.747a7,7,0,1,0,0-14Z" style="fill:url(#linear-gradient-9)"/><path d="M362.859,166h-81.69a7,7,0,0,0,0,14h81.69a7,7,0,0,0,0-14Z" style="fill:url(#linear-gradient-10)"/><path d="M445.747,166H386.86a7,7,0,0,0,0,14h58.887a7,7,0,1,0,0-14Z" style="fill:url(#linear-gradient-11)"/><path d="M281.169,70h57.092a7,7,0,0,0,0-14H281.169a7,7,0,0,0,0,14Z" style="fill:url(#linear-gradient-12)"/><path d="M445.747,56H361.562a7,7,0,0,0,0,14h84.185a7,7,0,0,0,0-14Z" style="fill:url(#linear-gradient-13)"/><path d="M472,289.762a7,7,0,0,0-7,7v3.4a57.76,57.76,0,1,0-53.361,80.253A57.345,57.345,0,0,0,460.122,354H465v19H451a7,7,0,1,0,0,14h20.689c3.867,0,7.308-2.867,7.308-6.733V352.3a19.045,19.045,0,0,0,12-17.647v-8.574a19.047,19.047,0,0,0-12-17.647V296.762A7,7,0,0,0,472,289.762Zm-60.4,76.476A43.64,43.64,0,1,1,455.24,322.6,43.689,43.689,0,0,1,411.6,366.238ZM469.2,321h2.49A5.343,5.343,0,0,1,477,326.076v8.574a5.587,5.587,0,0,1-5.308,5.35h-5.028a62.045,62.045,0,0,0,2.576-17.265C469.24,322.225,469.215,322,469.2,321Z" style="fill:url(#linear-gradient-14)"/><path d="M258.675,349.5,208.41,320.429a6.915,6.915,0,0,0-6.956,0L151.3,349.5a6.82,6.82,0,0,0-3.3,6.062V413.7a6.839,6.839,0,0,0,3.323,6.062l50.264,29.071a6.834,6.834,0,0,0,3.455.938,6.917,6.917,0,0,0,3.478-.938l50.166-29.071A6.831,6.831,0,0,0,262,413.7V355.562A6.841,6.841,0,0,0,258.675,349.5ZM205,376.546l-11.67-6.738,36.349-20.986,11.67,6.738Zm0-41.972,10.679,6.166-36.349,20.986-10.679-6.166Zm-43,33.108,36,20.988v41.981l-36-20.988Zm50,62.969V388.67l36-20.988v41.981Z" style="fill:url(#linear-gradient-15)"/><path d="M112.14,376H50.253a7,7,0,1,0,0,14H112.14a7,7,0,0,0,0-14Z" style="fill:url(#linear-gradient-16)"/><path d="M119.14,339H50.253a7,7,0,1,0,0,14H119.14a7,7,0,0,0,0-14Z" style="fill:url(#linear-gradient-17)"/><path d="M112.14,416H90.253a7,7,0,0,0,0,14H112.14a7,7,0,0,0,0-14Z" style="fill:url(#linear-gradient-18)"/><path d="M66.14,416H50.253a7,7,0,1,0,0,14H66.14a7,7,0,0,0,0-14Z" style="fill:url(#linear-gradient-19)"/></svg>
