<?xml version="1.0"?>
<svg xmlns="http://www.w3.org/2000/svg" xmlns:xlink="http://www.w3.org/1999/xlink" id="Layer_1" data-name="Layer 1" viewBox="0 0 512 512" width="512" height="512"><defs><linearGradient id="linear-gradient" x1="256" y1="496" x2="256" y2="19.576" gradientUnits="userSpaceOnUse"><stop offset="0.322" stop-color="#a163f5"/><stop offset="0.466" stop-color="#b074ee"/><stop offset="0.752" stop-color="#d8a1dd"/><stop offset="0.898" stop-color="#efbad3"/></linearGradient><linearGradient id="linear-gradient-2" x1="334.362" y1="496" x2="334.362" y2="19.576" xlink:href="#linear-gradient"/></defs><title>Trolley 2</title><path d="M476.522,335.993,242.385,384.708a49.621,49.621,0,0,0-49.02-33.237l-52.41-251.9A48.067,48.067,0,0,0,84.1,62.3L32.626,73.011a7,7,0,1,0,2.852,13.706L86.955,76.006a34.109,34.109,0,0,1,40.294,26.414L179.6,354.052a49.65,49.65,0,0,0,15.817,96.671,50.073,50.073,0,0,0,10.213-1.057A49.657,49.657,0,0,0,245.1,398.442L479.374,349.7a7,7,0,1,0-2.852-13.706ZM225.33,420.606a35.643,35.643,0,1,1-37.069-54.436,35.983,35.983,0,0,1,7.333-.759,35.652,35.652,0,0,1,29.736,55.195Z" style="fill:url(#linear-gradient)"/><path d="M199.517,197.278a6.988,6.988,0,0,0,8.279,5.427l17.058-3.549L258.049,358.7a7,7,0,0,0,8.279,5.427l207.084-43.085a7,7,0,0,0,5.427-8.279L445.644,153.219l16.7-3.475a7,7,0,0,0,5.427-8.279l-9.63-46.287a7,7,0,0,0-8.279-5.427L195.314,142.712a7,7,0,0,0-5.427,8.279Zm264.19,111.487L270.329,349,238.56,196.3l57.182-11.9,16.8,80.767a7,7,0,0,0,11.624,3.7l25.1-23.38,33.18,11.3a7,7,0,0,0,9.11-8.053l-16.805-80.766,57.182-11.9ZM361.05,170.819l14.307,68.763-25.537-8.695a7,7,0,0,0-7.028,1.5l-19.071,17.764-14.273-68.6Zm84.811-65.936,6.779,32.581L211.8,187.573l-6.778-32.58Z" style="fill:url(#linear-gradient-2)"/></svg>
