<?xml version="1.0"?>
<svg xmlns="http://www.w3.org/2000/svg" xmlns:xlink="http://www.w3.org/1999/xlink" id="Layer_1" data-name="Layer 1" viewBox="0 0 512 512" width="512" height="512"><defs><linearGradient id="linear-gradient" x1="256" y1="496" x2="256" y2="19.576" gradientUnits="userSpaceOnUse"><stop offset="0.322" stop-color="#a163f5"/><stop offset="0.466" stop-color="#b074ee"/><stop offset="0.752" stop-color="#d8a1dd"/><stop offset="0.898" stop-color="#efbad3"/></linearGradient><linearGradient id="linear-gradient-2" x1="330.5" y1="496" x2="330.5" y2="19.576" xlink:href="#linear-gradient"/></defs><title>Trolley</title><path d="M461.079,402H192.785A49.626,49.626,0,0,0,152,359.367v-257.3c0-26.5-22-48.067-48.5-48.067H50.921a7,7,0,1,0,0,14H103.5c18.785,0,34.5,15.283,34.5,34.067V359.092A49.64,49.64,0,1,0,192.649,416h268.43a7,7,0,0,0,0-14Zm-317.5,42a35.643,35.643,0,1,1,35.642-35.642A35.682,35.682,0,0,1,143.578,444Z" style="fill:url(#linear-gradient)"/><path d="M217.6,379H443.474C453,379,461,371.541,461,362.02V219.975a7.19,7.19,0,0,0-.194-.9c-.009-.071-.086-.142-.1-.214a7.191,7.191,0,0,0-.2-.764c-.01-.038-.034-.076-.045-.113a6.923,6.923,0,0,0-.324-.852c-.02-.045-.047-.088-.068-.133a6.685,6.685,0,0,0-.376-.691c-.019-.031-.033-.066-.053-.1l-44.77-70.228A17.188,17.188,0,0,0,400.314,138H260.762a17.189,17.189,0,0,0-14.561,7.984l-44.768,70.229c-.02.031-.034.065-.053.1a6.941,6.941,0,0,0-.374.69c-.021.045-.044.088-.064.133a6.887,6.887,0,0,0-.316.852c-.011.037-.018.075-.028.113a6.866,6.866,0,0,0-.166.764c-.011.072-.191.143-.2.214a7.32,7.32,0,0,0-.232.9V362.02C200,371.541,208.081,379,217.6,379ZM358,365H303V267.415l55,23Zm85.474,0H372V285.757a7.015,7.015,0,0,0-4.311-6.455l-68.862-28.868A7.094,7.094,0,0,0,289,256.889V365H217.6c-1.8,0-3.6-1.179-3.6-2.98V227H447V362.02C447,363.821,445.275,365,443.474,365Zm-40.4-211.478L440.977,213H338V152h62.314A3.263,3.263,0,0,1,403.069,153.522Zm-145.063,0A3.266,3.266,0,0,1,260.762,152H324v61H220.1Z" style="fill:url(#linear-gradient-2)"/></svg>
