<?xml version="1.0"?>
<svg xmlns="http://www.w3.org/2000/svg" xmlns:xlink="http://www.w3.org/1999/xlink" id="Layer_1" data-name="Layer 1" viewBox="0 0 512 512" width="512" height="512"><defs><linearGradient id="linear-gradient" x1="262.282" y1="488.621" x2="262.282" y2="30.768" gradientUnits="userSpaceOnUse"><stop offset="0.322" stop-color="#a163f5"/><stop offset="0.466" stop-color="#b074ee"/><stop offset="0.752" stop-color="#d8a1dd"/><stop offset="0.898" stop-color="#efbad3"/></linearGradient><linearGradient id="linear-gradient-2" x1="41" y1="488.621" x2="41" y2="30.768" xlink:href="#linear-gradient"/><linearGradient id="linear-gradient-3" x1="69" y1="488.621" x2="69" y2="30.768" xlink:href="#linear-gradient"/><linearGradient id="linear-gradient-4" x1="98" y1="488.621" x2="98" y2="30.768" xlink:href="#linear-gradient"/><linearGradient id="linear-gradient-5" x1="126" y1="488.621" x2="126" y2="30.768" xlink:href="#linear-gradient"/><linearGradient id="linear-gradient-6" x1="155" y1="488.621" x2="155" y2="30.768" xlink:href="#linear-gradient"/><linearGradient id="linear-gradient-7" x1="263.715" y1="488.621" x2="263.715" y2="30.768" xlink:href="#linear-gradient"/><linearGradient id="linear-gradient-8" x1="256" y1="488.621" x2="256" y2="30.768" xlink:href="#linear-gradient"/></defs><title>truck  Delivery</title><path d="M244.854,293.881a7.185,7.185,0,0,0,6.292-3.687L255,283.247V343.42a7,7,0,1,0,14,0V273.051l5.69,6.155a6.929,6.929,0,0,0,9.836.284,7,7,0,0,0,.254-9.9l-17.915-18.96a7.011,7.011,0,0,0-11.267,1.491l-16.9,31.44a7,7,0,0,0,6.158,10.316Z" style="fill:url(#linear-gradient)"/><path d="M41,338.45a7,7,0,0,0-7,7v25.92a7,7,0,0,0,14,0V345.45A7,7,0,0,0,41,338.45Z" style="fill:url(#linear-gradient-2)"/><path d="M69,357.65a7,7,0,0,0-7,7V388a7,7,0,0,0,14,0V364.65A7,7,0,0,0,69,357.65Z" style="fill:url(#linear-gradient-3)"/><path d="M98,376.85a7,7,0,0,0-7,7v20.56a7,7,0,0,0,14,0V383.85A7,7,0,0,0,98,376.85Z" style="fill:url(#linear-gradient-4)"/><path d="M126,396.05a7,7,0,0,0-7,7v17.77a7,7,0,0,0,14,0V403.05A7,7,0,0,0,126,396.05Z" style="fill:url(#linear-gradient-5)"/><path d="M155,415.25a7,7,0,0,0-7,7v15.36a7,7,0,0,0,14,0V422.25A7,7,0,0,0,155,415.25Z" style="fill:url(#linear-gradient-6)"/><path d="M276.16,353.467l-31.89,18.41a7,7,0,1,0,7,12.125l31.89-18.41a7,7,0,1,0-7-12.125Z" style="fill:url(#linear-gradient-7)"/><path d="M502.917,379.908c-.03-.2-.067-.406-.115-.6-.017-.072-.035-.143-.054-.214q-.086-.312-.2-.612c-.02-.052-.037-.105-.058-.158a6.974,6.974,0,0,0-.35-.748l-22.919-41.948a6.183,6.183,0,0,0-.977-1.243A19.953,19.953,0,0,0,463.47,328H418v-9.63a20.108,20.108,0,0,0-11-17.888V135.55a7.03,7.03,0,0,0-3.54-6.083L211.5,18.638a7,7,0,0,0-7,0L12.628,129.415A7,7,0,0,0,9,135.55v240.9a7,7,0,0,0,3.5,6.062l192,110.85a7,7,0,0,0,3.5.938,7.181,7.181,0,0,0,3.5-1.088L319.005,431h8.183a29.82,29.82,0,0,0,57.974,0h35.706a29.82,29.82,0,0,0,57.974,0h4.118A19.813,19.813,0,0,0,503,411.25V380.93a7.041,7.041,0,0,0-.051-.813C502.941,380.047,502.928,379.978,502.917,379.908ZM463.47,342a5.961,5.961,0,0,1,3.953,1.385L484.2,374H418V342ZM311,374V318.37a6.338,6.338,0,0,1,6.04-6.37h80.99a7.55,7.55,0,0,1,5.97,6.37V374ZM99,191.648l35,19.976V339.933l-13.195-14.878a7.229,7.229,0,0,0-8.076-1.845L99,328.816Zm7.21-12.118L284.191,76.772l34.935,20.17L141.141,199.7Zm226.916-74.5L385.98,135.54,208,238.3l-52.859-30.518ZM215,250.421,393,147.653V298H317.04A20.348,20.348,0,0,0,297,318.37v92.88a19.918,19.918,0,0,0,5.3,13.528l-87.3,50.4ZM208,32.783l62.191,35.906L92.205,171.449,30.02,135.541ZM23,147.654l62,35.917V339.28a7.136,7.136,0,0,0,9.822,6.47l18.652-7.691,22.059,25.046a7.01,7.01,0,0,0,5.262,2.375,7.553,7.553,0,0,0,2.573-.451A7.094,7.094,0,0,0,148,358.48V219.707l53,30.714V475.175L23,372.409ZM356.17,440.12A15.825,15.825,0,1,1,372,424.3,15.838,15.838,0,0,1,356.17,440.12Zm93.69,0a15.825,15.825,0,1,1,15.82-15.82A15.843,15.843,0,0,1,449.86,440.12ZM482.96,417h-4.117a29.819,29.819,0,0,0-57.976,0h-35.7a29.818,29.818,0,0,0-57.975,0H317.04a5.8,5.8,0,0,1-6.04-5.75V388H489v23.25A5.8,5.8,0,0,1,482.96,417Z" style="fill:url(#linear-gradient-8)"/></svg>
